<svg width="745" height="602" viewBox="0 0 745 602" fill="none"
    xmlns="http://www.w3.org/2000/svg">
    <path d="M291.66 492.93L292.26 493.7L297.09 492.81L299.8 493.08L301.85 494.42L302.18 495.88L302.25 500.24L301.7 503.1L301.75 503.83L302.69 504.86L316.78 505.72L318.02 507.58L318.24 509.77L318.94 510.81L322.15 513.14L323.49 513.35L324.57 514.64L323.98 518.36L324.13 522.14L325.5 526.77L326.23 528.45L327.94 530.45L328.7 533L328.1 534.21L324.68 533.45L321.99 530.84L319.45 530L316.69 527.86L316.11 525.75L314.92 524.28L311.52 523.37L309.1 523.51L308.82 524.42L309.35 527.93L307.51 533.03L307.83 533.48L310.06 533.32L309.36 535.76L308.63 536.66L302.55 536.5L301.45 537.48L301.38 538.23L302.45 540.17L301.24 545.98L301.21 548.38L301.87 550.87L300.7 553.76L298.18 555.7L298.27 556.47L297.8 557.11L298.02 558.58L298.61 559.25L298.63 560.42L297.96 562.04L299.75 565.41L299.88 567.26L297.52 565.47L294.58 564.06L292.78 564.49L289.5 563.27L286.71 563.39L285.6 564.03L282.47 564.61L280.67 564.34L279.22 562.93L278.63 561.83L278.79 560.73L280.16 557.03L283.58 552.7L285.97 548.51L285.92 545.73L285.26 544.01L284.72 543.96L287.81 533.71L289.91 529.84L291.73 528.16L292.91 525.12L293.8 524.22L294.23 522.21L293.87 518.76L294.15 516.71L292.64 514.27L293.87 513.5L293.49 505.03L293.02 503.68L291.98 502.23L286.64 500.45L284.63 498.76L285.9 496.54L287.26 495.24L291.66 492.93Z" fill="#CCCCCC" stroke="white" stroke-width="0.5"/>
    <path d="M683.29 188.44L683.16 190.27L682.34 192.03L681.32 193.6L680.22 194.43L678.45 197.33L677.09 202.22L674.43 204.67L673.95 205.77L673.34 208.78L674.06 212.39L674.83 213.45V215.15L673.22 216.81L672.96 221.42L671.99 223.09L672.12 226.54L671.34 228.48L669.29 231.05L669.03 234.07L667.42 235.11L665.98 237.72L660.11 238.88L655.93 244.76L656.08 245.74L657.62 247.36L657.66 248L656.51 250.74L654.66 252.13L654.63 253.9L655.32 255.5L658.01 256.83L659.02 258.42L656.86 261.51L656.73 263.76L656.19 265.05L656.46 266.16L655.38 267.63L655.71 268.41L655.49 269.82L655.92 270.45L655.18 272.65L654.16 274.29L653.19 274.16L651.49 275.48L643.48 276.3L640.73 278.46L639.11 278.75L635.35 282.14L631.59 284.12L631.68 285.46L634.05 285.73L634.54 286.15L634.63 293.63L633.9 294.32L633.07 298.73L633.91 300.8L632.75 304.83L633.05 306.15L630.24 310.95L627.6 313.25L627.59 314.25L628.3 315.24L627.48 317.29L628.75 321.21L627.62 323.06L626.53 323.44L624.86 323.21L623.4 323.75L622.83 324.85L622.67 327.58L621.69 328.32L620.7 330.17L618.52 330.36L615.12 333.12L614.29 333.24L608.41 331.6L607.75 332.26L607.51 333.97L606.33 335.13L605.52 338.18L603.75 340.52L601.42 340.66L600.3 341.55L597.83 341.27L595.98 342.48L594.07 342.81L593.35 343.63L592.67 347.67L594.11 352.89L594.69 358.66L594.63 359.7L593.86 360.26L591.43 364.77L592.05 367.28L592.27 371.01L588.14 377.36L584.65 380.45L582.89 383.46L582.41 385.46L581.29 386.93L580.88 390.38L579.77 391.94L580.46 398.08L581.11 399.88L578.18 401.36L576.22 401.63L573.47 404.77L572.25 403.89L572.3 402.33L570.36 397.71L569.98 394.17L569.24 392.44L569.82 386.95L568.78 384.93L566.63 382.33L562.31 378.49L559.81 375.34L558.29 374.22L556.87 373.79L555.23 374.17L552.4 378.18L549.68 380.17L546.97 377.72L544.06 373.02L541.54 366.29L542.36 364.71L546.5 359.93L550.3 356.71L555.38 351.23L564.01 339.71L570.13 334.49L570.57 332.41L570.19 326.63L576.18 315.19L577.18 311.57L576.92 309.76L574.9 305.92L570.76 304.45L568.1 301.51L567.76 297.67L568.22 295.5L562.96 285.68L560.88 284.39L556.23 283.31L554.77 281.39L549.32 271.21L555.52 270.3L558.89 268.87L568.29 263.21L574.04 259.21L575.14 256.88L574.62 253.18L575.3 242.95L581.64 243.92L584.34 243.73L588.91 242.41L590.65 241.34L592.35 239.44L596.08 233.89L602.28 226.83L604.79 225.96L611.08 225.47L616.98 223.25L619.42 220.63L620.24 217.97L623.56 217.83L625.91 216.69L628.13 212.99L630.23 210.83L632.74 209.36L641.26 210.15L644.13 211.18L646.71 212.73L649.55 215.84L651.98 216.99L654.36 218.01L658.75 218L659.89 216.78L661.37 209.02L664.08 203.34L665.3 199.7L666.18 195.6L666.46 187.59L669.55 187.16L670.17 187.9L673.92 189.04L677.78 188.75L683.4 187.01L683.29 188.44Z" fill="#CCCCCC" stroke="white" stroke-width="0.5"/>
    <path d="M303.56 586.59V586.6L303.54 586.58L303.56 586.59ZM311.13 585.89L312.1 586.39L313.02 586.2L313.9 586.06L314.23 586.34L310.65 587.09L310.16 586.5L311.13 585.89ZM351.44 578.33L352.32 580.42L351.56 581.24L350.49 581.46L350.27 580.22L350.83 580.12L351.18 579.22L351.44 578.33ZM299.88 567.26L299.76 565.41L297.97 562.05L298.64 560.42L298.62 559.25L298.03 558.58L297.81 557.11L298.28 556.46L298.19 555.69L300.71 553.75L301.89 550.86L301.23 548.37L301.25 545.96L302.46 540.15L301.39 538.21L301.46 537.46L302.56 536.48L308.65 536.64L309.38 535.74L310.08 533.3L307.85 533.46L307.53 533.01L309.37 527.91L308.84 524.4L309.13 523.49L311.55 523.35L314.95 524.26L316.14 525.73L316.72 527.84L319.47 529.98L322.01 530.82L324.7 533.43L323.85 533.53L322.7 535.98L323.36 537.77L324.2 538.08L324.98 540.02L329.75 539.46L334.71 542.14L335.11 544.24L334.5 550.34L336.13 555.47L339.54 560.38L342.73 563.18L346.5 567.51L350.17 570.32L350.76 571.33L350.33 573.49L351.12 573.93L351.15 576.43L350.65 576.88L350.24 576.21L350.17 576.79L351.36 577.96L350.76 579.76L350.02 579.95L350.12 580.98L349.09 582.13L349.33 582.3L348.28 584.68L343.05 584.05L337.31 583.98L326.6 584.53L314.55 586.21L314.03 585.75L312.21 586.11L311.28 585.63L310.4 585.99L309.45 585.9L309.43 585.93L309.93 586.74L310.2 587.17L306.88 588.49L305.9 586.79L304.73 586.14L303.87 585.95L302.91 584.89L303.29 583.98L303.2 583.86L302.67 584.36L302.17 583.98L301.56 582.81L301.6 582.17L302.11 581.85L301.53 577.3L302.49 573.03L301.86 570.73L299.88 567.26Z" fill="#CCCCCC" stroke="white" stroke-width="0.5"/>
    <path d="M263.32 446.18L263.76 446.58L263.85 450.2L267.68 450.07L270.12 451.48L272.17 451.56L275.9 453.26L276.26 454.05L275.01 457.5L274.26 458.58L272.57 459.72L270.72 462.2L270.96 463.16L270.34 463.99L269.91 466.34L270.3 466.88L274.15 468.04L275.57 469.84L276.91 473.48L278.22 475.33L277.92 476.29L277.1 476.58L277.51 477.95L277.01 479.57L277.73 480.31L279.62 479.18L280.23 479.31L280.82 481.89L282.15 482.52L281.8 484.67L283.68 488.46L283.86 489.97L284.62 490.95L287.01 492.35L288.67 491.39L289.75 491.48L290.87 492.22L290.83 492.76L291.66 492.93L287.26 495.24L285.9 496.54L284.63 498.76L279.31 500.18L273.93 498.93L267.62 500.09L265.84 501.13L264.91 504.68L262.54 509.29L259.86 509.56L255.35 507.64L253.73 508.44L250.73 512.27L248.64 513.1L246.24 512.89L245.13 511.61L246.14 510.44L248.06 506.54L248.4 503.9L250.17 499.21L252.67 494.66L253.05 488.65L254.33 485L253.1 481.23L251.62 473.94L251.7 472.57L250.57 471.44L248.44 461.87L248.37 461.58L250.04 460.81L253.63 461.47L255.06 460.58L256.9 458.07L256.96 455.34L258.2 451.22L260.44 448.91L261.98 448.05L263.32 446.18Z" fill="#CCCCCC" stroke="white" stroke-width="0.5"/>
    <path d="M492.59 88.79L500.33 94.98L501.47 97.91L502.24 104.99L502.05 106.8L505.21 111.46L505.42 118.2L505.75 120.9L506.7 123.61L506.9 127.48L515.25 148.39L515.02 153.31L513.97 156.03L512.98 162.81L514.61 164.34L517.65 164.71L516.85 164.95L514.14 168.71L508.1 171.99L505.53 175.69L503.52 177.44L502.03 178.2L498.12 179.08L496.68 180.44L495.3 182.47L494.33 187.41L491.72 194.84L488.11 199.91L487.91 201.29L495.29 204.28L496.43 205.99L497.3 213.14L498.18 214.29L505.38 216.91L507.46 221.85L506.98 230.48L507.38 233.34L506.55 235.1L502.65 235.73L500.66 236.65L499.35 238.56L499.68 240.18L503.97 244.56L506.47 245.97L515.62 253.06L516.85 256.85L517.46 263.04L520.04 268.32L521.73 270.44L521.6 271.39L521.02 271.55L517.03 271.52L510.59 270.43L500 275.28L494.15 274.5L489.56 277.15L483.2 273.72L477.02 269.68L465.95 264.94L456.69 260.01L454.12 259.5L446.52 255.55L443.49 257.33L443.19 258.77L446.36 262.83L446.63 264.57L446.13 266.24L441.37 267.54L438.48 272.75L434.09 274.16L424.05 274.75L418.58 273.27L413.78 273L412.27 272.47L410.71 271.13L409.06 267.06L408.16 265.9L407.37 265.19L403.45 263.77L402.85 262.92L402.94 261.23L405.32 256.76L405.55 255.59L405.29 249.65L404.32 246.52L402.52 244.6L401.46 244.39L390.49 246.58L390.53 234.2L389.75 229.4L387.14 225.24L384.36 224.36L381.18 224.28L379.65 224.77L377.12 222.06L374.33 220.31L374.06 219.58L376.41 215.38L376.94 211.42L377.93 210.86L380.52 206.77L381.85 202.92L381.77 200.92L381 199.25L377.14 194.92L376.69 192.93L376.29 186.04L376.74 182.54L378.34 177.97L379.36 177.54L382.06 177.7L384.1 177.19L386.84 173.98L389.49 169.87L394.23 165.7L394.9 164.6L397.38 163.03L399.07 162.73L400.21 163.8L401.35 163.89L406.87 161.72L407.87 161.53L413.87 162.63L421.3 165.04L424.65 163.58L426.95 164.31L428.73 167.98L431.86 168.19L439.56 167.71L443.13 166.8L444.27 167.1L446.94 172L447.48 174.15L446.65 182L447.46 184.05L448.81 185.41L454.51 186.6L460.11 185.21L461.67 185.38L463.53 186.74L465.99 187.36L467.85 186.79L466.74 183.36L466.78 181.56L468.31 179.65L470.84 178.29L474.88 177.3L476.32 176.52L478.17 175.13L479.27 172.41L478.23 170.95L469.36 170.39L463.64 169.12L457.25 168.35L454.26 166.5L448.96 159.08L447.91 156.58L447.44 154.01L443.6 154.95L442.42 153.84L441.87 152.1L444.38 147.1L443.86 142.78L442.4 138.36L440.59 137.86L437.84 138.13L435.72 139.16L433.11 139.2L431.76 138.57L432.25 134.31L435.47 129.77L441.63 129.31L447.1 126.27L458.04 122.54L464.27 120.03L465.46 119.09L465.43 116.84L464.86 114.96L471.57 94.37L476.11 92.42L479.59 91.87L480.58 92.69L481.41 94.33L481.53 95.72L492.59 88.79Z" fill="#CCCCCC" stroke="white" stroke-width="0.5"/>
    <path d="M310.31 369.03L319.44 371.51L327.95 372.76L336.66 376.31L341.58 379.13L346.83 380.12L347.9 379.98L351.22 382.78L356.55 385.01L357.69 383.91L357.78 382.55L353.08 370.91L353 368.39L354.02 365.53L355.26 364.12L359.21 361.92L360.59 361.64L363.18 361.46L365.86 361.9L375.95 365.62L382.81 367.17L387.69 367.58L391.65 367.36L391.66 366.66L403.45 375.59L399.66 381.56L401.56 382.13L407.68 379.5L415.15 378.55L423.33 379.03L430.81 380.8L435.95 385.7L440.39 391.35L448.76 398.92L448.62 399.57L449.79 400.93L449.53 401.97L450.09 403.75L449.5 406.98L447.12 412.87L447.41 418.79L446.49 420.22L443.4 422.16L439.96 425.41L436.65 431.57L434.54 443.07L435.15 443.8L434.82 444.88L434.79 453.64L432.89 461.83L432.17 462.13L430.05 461.4L429.27 462.82L429.37 464.82L426.55 466.56L424.76 466.78L421.98 466.34L421.33 464.79L416.45 458.16L410.92 452.43L409.43 451.71L406.34 451.49L396.77 453.73L392.39 453.29L391.18 452.4L391.84 447.63L391.28 445.99L382.64 440.61L377.21 438.92L375.1 438.85L372.79 439.44L370.68 440.11L369.16 441.31L369.93 445.81L366.79 447.73L363.66 448.56L359.82 448.42L357.76 447.75L355.84 448.2L354.48 449.95L352.12 451.91L349.13 452.4L347.43 450.13L346.59 445.87L344.83 444.57L343.81 446.88L340.4 447.25L338.63 450.13L336.71 451.06L333.76 450.81L330.31 451.21L329.06 459.44L328.07 461.49L326.66 462.08L324.88 461.34L320.87 457.66L320.22 456.12L320.39 455.21L322.67 448.79L321.77 443.17L320.35 441.03L318.83 439.88L316.02 439.53L313.81 441.64L311.71 442.37L308.79 440.85L305.21 438.09L302.32 434.74L299.58 428.23L299.71 427.7L300.12 427.2L300.96 427.78L304.33 431.07L305.15 430.97L306.5 432.02H308.26L308.6 427.6L309.56 426.16L316 423.04L319.3 419.93L321.24 414.1L321.66 410.17L322.13 408.88L323.36 407.67L323.72 405.86L322.24 405.39L318.93 405.71L317.66 404.66L316.42 399.13L315.85 392.32L315.84 385.42L315.11 383.57L312.41 380.96L310.53 377.74L309.99 371.87L310.31 369.03Z" fill="#CCCCCC" stroke="white" stroke-width="0.5"/>
    <path d="M662.8 12.35L663.5 18L662.67 21L666.16 27.26L665.96 29.78L665.5 30.27L665.78 28.1L664.74 29.43L664.52 31.35L666.9 33.9L669.36 34.51L668.71 35.18L668.99 35.72L669.77 35.91L674.23 43.44L677.06 46.52L678.11 46.74L679.83 47.7L681.46 48.9L685.33 49.65L685.59 50.51L685.01 50.5L684.45 51.6L684.25 50.56L683.59 51.14L682.85 51.1L684.29 52.7L684.56 54.46L688.44 53.3L690.75 50.69L693.22 48.67L694.82 48L693.74 49.76L693.89 50.21L694.54 50.02L695.11 52.36L694.78 52.58L694.11 51.2L693.26 51.68L692.69 52.91L690.67 53.48L691.34 55.36L690.15 56.49L688.29 60.22L688.7 60.99L690.07 60.54L690 62.98L689.42 64.13L690.27 64.17L689.93 65.53L688.78 67.07L689.18 67.64L690.75 67.21L691.04 67.76L688.41 69.15L690.38 69.65L690.23 70.54L691.43 70.59L690.68 71.44L689.36 71.77L689.48 72.19L690.72 71.96L690.84 72.56L690.36 73L690.13 72.63L689.12 72.86L689.36 73.61L690.1 73.49L689.25 75.16L690.76 75.37L690.98 76.71L690.41 77.45L690.67 78.7L691.64 78.92L692.17 80.13L691.93 81.28L693.88 81.83L694.22 83.29L694.83 83.81L696.44 82.86L696.9 83.06L697.61 84.97L698.83 85.68L699.14 86.76L701.3 87.53L701.27 88.63L701.94 89.63L701.57 90.82L702.28 91.46L703.39 92.01L704.8 91.51L706.8 91.77L706.53 92.81L707.36 92.87L707.75 92.18L709.56 92.11L711.03 91.3L713.49 91.22L713.66 92.44L714.73 92.53L714.61 93.44L713.36 93.76L713.58 94.29L713.2 94.93L714.15 95.21L716.4 97.82L719.82 97.29L720.85 97.24L721.28 98.05L723 97.18L725.93 98.05L729.43 97.7L730.11 98.01L730.96 98.13L732.57 98.47L733.36 99.67L734.63 100.01L734.97 100.88L734.3 100.9L734.38 102.02L736.55 103.03L737.25 104.4L736.53 105.79L739.52 106.56L740.28 108.06L739.74 108.52L740.87 109.06L741.65 109.18L741.77 108.69L742.74 108.61L743.25 108.1L744.58 110.61L743.21 111.9L742.89 113.7L742.15 114.57L742.83 116.57L741.11 117.73L741.05 119.3L743.25 123.08L742.04 124.82L742.27 126.17L739.95 128.94L739.96 130.44L740.25 134.23L739.55 135.46L736.74 137.61L736.68 138.16L737.94 139.88L739.95 141.01L742.11 143.19L742.55 145.35L741.93 150.03L740.67 150.96L734.31 153.53L730.43 154.43L728.73 157.52L720.64 160.69L717.36 162.76L715.43 165.41L710.97 167.35L708.65 167.39L705.93 165.02L703.41 164.58L702.34 163.75L701.27 163.91L700.66 164.67L700.08 166.99L698 169.35L697.22 172.03L696.5 173.08L695.04 174.04L695.28 175.53L694.63 175.74L693.55 177.42L691.23 179.46L690.02 182.37L686.78 183.98L684.36 184.52L683.59 185.27L683.4 187.01L677.78 188.75L673.92 189.04L670.17 187.9L669.55 187.16L666.46 187.59L666.18 195.6L665.3 199.7L664.08 203.34L661.37 209.02L659.89 216.78L658.75 218L654.36 218.01L651.98 216.99L649.55 215.84L646.71 212.73L644.13 211.18L641.26 210.15L632.74 209.36L630.23 210.83L628.13 212.99L625.91 216.69L623.56 217.83L620.24 217.97L619.42 220.63L616.98 223.25L611.08 225.47L604.79 225.96L602.28 226.83L596.08 233.89L592.35 239.44L590.65 241.34L588.91 242.41L584.34 243.73L581.64 243.92L575.3 242.95L571.39 240.75L569.58 239.15L566.45 232.98L560.79 230.64L558.96 228.82L556.53 225.31L555.72 222.48L560.9 214.92L561.52 211.9L560.17 208.6L563.21 207.91L566.62 203.38L566.34 194.99L566.95 192.22L568.67 189.39L571.33 187.47L582.54 184.45L588.65 180.8L590.74 177.72L590.98 174.78L590.22 170.63L590.18 167.66L591.08 164.8L593.97 161.45L597.27 155.55L601.81 151.12L602.8 149.01L601.96 145.68L598.83 141.93L593.92 142.14L593.28 141.78L593.13 139.84L597.85 130.7L596.16 123.26L596.29 119.76L598.83 103.47L598.88 97.68L597.16 93.85L597.71 91.65L604.77 85.34L607.14 82.26L608.98 78.05L608.5 74.31L603.7 70.47L602.25 68.65L601.02 64.8L602.51 56.78L602.59 52.57L604.04 52.45L608.42 53.33L608.45 52.14L609.04 51.73L609.11 50.99L609.3 49.28L610.78 47.95L611.92 48.19L613.27 47.46L612.93 46.3L613.66 45.22L613.43 44.9L612.54 44.71L612.94 43.58L613.71 42.25L614.51 40.47L615.15 39.87L617.43 40.22L618.81 39.35L619.77 39.44L620.38 40.18L621.34 39.07L621.57 37.63L622.91 37.4L624.38 37.11L624.67 36.65L624.33 36.25L625.31 35.08L627.42 34.6L628.04 33.36L629.41 32.58L629.57 31.79L630.15 31.05L630.55 30.31L630.53 29.45L631.63 29.02L632.06 28L631.25 27.69L631.82 27.08L633.05 27.71L632.76 26.14L633.86 26.26L633.92 26.73L634.77 27.02L635.87 26.88L637.74 25.21L638.76 24.84L639.08 25.22L641.06 25.12L642.45 23.79L643.47 24.28L643.52 23.2L644.6 22.84L645.62 22.93L644.73 24.1L646.2 24.89L647.12 23.58L648.47 24.62L648.27 23.31L649.75 22.8L649.44 24.88L650.36 25L650.81 24.03L651.96 23.78L652.88 25.17L653.84 22.64L655.5 21.8L655.52 21.36L654.97 21.17L655.16 20.46L656.35 20.66L656.99 19.86L656.35 19.69L655.95 18.67L657.63 17.07L657.57 16.49L659.06 15.82L659.01 14.89L660.06 13.83L661.3 13.59L661.69 12.53L662.8 12.35Z" fill="#CCCCCC" stroke="white" stroke-width="0.5"/>
    <path d="M251.87 580.58L251.66 579.96L250.98 580.06L247.02 577.46L245.82 573.08L244.44 571.21L242.45 571.19L235.91 573.73L234.87 573.47L234.52 571.53L234.94 570.07L231.63 568.63L231.13 567.8L231.2 563.46L233.1 560.79L233.86 558.74L233.89 557.47L232.6 557.63L231.76 556.85L233.09 552.41L237.58 544.57L240.35 544.74L240.9 544.24L241.65 541.75L243.19 540.96L242.96 539.15L244.54 538.08L245.49 536.6L245.46 534.66L244.83 533.12L244.07 532.54L242.15 531.71L239.21 532.2L238.17 531.92L238.94 534.39L237.74 535.24L232.66 537.43L229.17 536.99L226.43 537.48L224.42 541.58L222.31 542.1L221.52 541.5L220.05 541.42L219.69 542.37L219.95 544.68L217.12 546.24L215.5 546.8L212.49 546.56L211.26 548.55L208.95 549.17L207.06 548.5L206.07 546.84L203.96 545.56L203.21 546.06L201.73 549.13L198.43 550.77L195.81 550.35L188.33 554.45L187.39 554.08L185.07 554.48L184.07 553.38L181.38 551.78L178.33 551.07L175.43 549.41L173.33 547.31L172.77 548.03L172.05 547.46L170.62 547.99L170.26 547.49L168.63 548.33L170.99 552.94L172.9 558.75L172.56 559.54L173.51 561.06L173.86 562.92L177.92 569.69L178.11 571.13L179.05 571.68L179.06 571.85L179.11 572.95L186.61 583.33L187.8 583.95L187.78 584.7L190.55 586.05L190.28 586.46L191.33 587.21L191.45 587.86L194.01 589.45L194.2 589.06L194.51 589.4L194.29 589.64L194.31 589.98L196.92 592.14L197.4 592.12L197.26 591.35L196.81 591.14L198.39 590.68L197.63 591.38L197.96 592.1L197.7 592.37L197.77 592.88L200.09 594.58L205.16 596.94L205.35 594.94L204.56 594.43L204.01 593.18L204.35 593.3L204.64 594.19L205.43 594.41L205.31 593.71L205.72 593.74L205.7 594.44L206.22 594.61L206.48 595.38L205.86 596.56L206.12 596.99L205.78 598.29L206.18 598.58L211.36 599.9L211.55 597.67L212.2 597.09L212.58 600.93L220.92 600.23L220.28 597.83L221.31 594.78L221.96 593.68L221.67 592.31L219.76 591.16L220.24 591.11L221.43 591.38L222.39 592.96L222.99 591.83L222.44 591.04L222.53 588.9L221.69 587.55L222 586.81L222.17 587.84L222.86 588.39L222.89 588.77L223.63 590.79L223.53 593.89L226.25 591.42L225.67 590.79L225.77 588.85L227.68 588.25L228.18 587.62L228.87 589.23L228.99 590.52L228.51 591.55L229.11 592.87L229.16 594.48L230.5 594.74L231.58 596.25L232.06 596.2L231.87 596.53L232.09 596.96L234.26 596.48L234.45 596.82L233.83 597.47L235.36 598.26L243.82 597.35L243.84 596.87L243.44 596.36L243.37 595.59L243.27 595.25L243.94 594.39L244.54 593.81L244.02 595.85L244.24 596.24L246.27 598L247.23 597.02L250.76 596.64L250.26 594.17L250.17 593.79L249.79 592.66L248.64 591.91L248.45 590.92L248.47 590.73L248.76 589.67L248.23 587.42L247.82 586.87L248.17 586.51L248.93 587.41L250.18 591.61L250.56 591.03L249.91 585.8L251.61 582.41L251.87 580.58ZM233.08 598.65L224.86 599.64L222.06 599.54L221.84 598.84L223.2 596.32L223.35 596.3L223.8 596.34L223.94 595.04L225.92 592.85L226.04 592.54L226.47 591.65L226.92 591.46L226.33 590.69L226.15 589.39L226.7 589.04L227.73 588.85L228.63 590.19L228.13 591.52L228.91 593.14L228.69 594.71L230.32 595.15L230.97 596.07L233.08 598.65Z" fill="#CCCCCC"/>
    <path d="M173.57 561.17L173.58 561.18M251.87 580.58L251.66 579.96L250.98 580.06L247.02 577.46L245.82 573.08L244.44 571.21L242.45 571.19L235.91 573.73L234.87 573.47L234.52 571.53L234.94 570.07L231.63 568.63L231.13 567.8L231.2 563.46L233.1 560.79L233.86 558.74L233.89 557.47L232.6 557.63L231.76 556.85L233.09 552.41L237.58 544.57L240.35 544.74L240.9 544.24L241.65 541.75L243.19 540.96L242.96 539.15L244.54 538.08L245.49 536.6L245.46 534.66L244.83 533.12L244.07 532.54L242.15 531.71L239.21 532.2L238.17 531.92L238.94 534.39L237.74 535.24L232.66 537.43L229.17 536.99L226.43 537.48L224.42 541.58L222.31 542.1L221.52 541.5L220.05 541.42L219.69 542.37L219.95 544.68L217.12 546.24L215.5 546.8L212.49 546.56L211.26 548.55L208.95 549.17L207.06 548.5L206.07 546.84L203.96 545.56L203.21 546.06L201.73 549.13L198.43 550.77L195.81 550.35L188.33 554.45L187.39 554.08L185.07 554.48L184.07 553.38L181.38 551.78L178.33 551.07L175.43 549.41L173.33 547.31L172.77 548.03L172.05 547.46L170.62 547.99L170.26 547.49L168.63 548.33L170.99 552.94L172.9 558.75L172.56 559.54L173.51 561.06L173.86 562.92L177.92 569.69L178.11 571.13L179.05 571.68L179.06 571.85L179.11 572.95L186.61 583.33L187.8 583.95L187.78 584.7L190.55 586.05L190.28 586.46L191.33 587.21L191.45 587.86L194.01 589.45L194.2 589.06L194.51 589.4L194.29 589.64L194.31 589.98L196.92 592.14L197.4 592.12L197.26 591.35L196.81 591.14L198.39 590.68L197.63 591.38L197.96 592.1L197.7 592.37L197.77 592.88L200.09 594.58L205.16 596.94L205.35 594.94L204.56 594.43L204.01 593.18L204.35 593.3L204.64 594.19L205.43 594.41L205.31 593.71L205.72 593.74L205.7 594.44L206.22 594.61L206.48 595.38L205.86 596.56L206.12 596.99L205.78 598.29L206.18 598.58L211.36 599.9L211.55 597.67L212.2 597.09L212.58 600.93L220.92 600.23L220.28 597.83L221.31 594.78L221.96 593.68L221.67 592.31L219.76 591.16L220.24 591.11L221.43 591.38L222.39 592.96L222.99 591.83L222.44 591.04L222.53 588.9L221.69 587.55L222 586.81L222.17 587.84L222.86 588.39L222.89 588.77L223.63 590.79L223.53 593.89L226.25 591.42L225.67 590.79L225.77 588.85L227.68 588.25L228.18 587.62L228.87 589.23L228.99 590.52L228.51 591.55L229.11 592.87L229.16 594.48L230.5 594.74L231.58 596.25L232.06 596.2L231.87 596.53L232.09 596.96L234.26 596.48L234.45 596.82L233.83 597.47L235.36 598.26L243.82 597.35L243.84 596.87L243.44 596.36L243.37 595.59L243.27 595.25L243.94 594.39L244.54 593.81L244.02 595.85L244.24 596.24L246.27 598L247.23 597.02L250.76 596.64L250.26 594.17L250.17 593.79L249.79 592.66L248.64 591.91L248.45 590.92L248.47 590.73L248.76 589.67L248.23 587.42L247.82 586.87L248.17 586.51L248.93 587.41L250.18 591.61L250.56 591.03L249.91 585.8L251.61 582.41L251.87 580.58ZM233.08 598.65L224.86 599.64L222.06 599.54L221.84 598.84L223.2 596.32L223.35 596.3L223.8 596.34L223.94 595.04L225.92 592.85L226.04 592.54L226.47 591.65L226.92 591.46L226.33 590.69L226.15 589.39L226.7 589.04L227.73 588.85L228.63 590.19L228.13 591.52L228.91 593.14L228.69 594.71L230.32 595.15L230.97 596.07L233.08 598.65Z" stroke="white" stroke-width="0.5"/>
    <path d="M349.13 452.4L352.12 451.91L354.48 449.95L355.84 448.2L357.76 447.75L359.82 448.42L363.66 448.56L366.79 447.73L369.93 445.81L369.16 441.31L370.68 440.11L372.79 439.44L375.1 438.85L377.21 438.92L382.64 440.61L391.28 445.99L391.84 447.63L391.18 452.4L392.39 453.29L396.77 453.73L406.34 451.49L409.43 451.71L410.92 452.43L416.45 458.16L421.33 464.79L421.98 466.34L419.81 474.68L414.66 472.47L413.88 474.31L413.86 476.29L413.28 477.02L412.2 477.96L409.4 482.82L406.17 483.76L404.54 484.95L403.34 486.13L402.39 488.63L401.4 489.6L392.68 497.37L388.87 500.1L387.75 500.43L386.11 502.73L384.42 503.6L383.12 505.08L383.52 505.94L384.88 506.98L383.83 508.46L384.23 509.29L383.78 510.25L382.31 512.12L381.74 511.54L381.79 513.04L386.89 518.68L387.2 520.44L384.8 524.49L384.16 526.89L383.04 528.25L383.25 532.14L381.44 538.02L381.59 544.58L379.05 548.78L377.16 549.55L377.08 550.39L375.74 551.43L374.52 554.73L373.27 555.77L374.24 556.79L373.34 557.14L372.36 558.38L372.41 558.95L371.4 559.33L371.49 561.09L369.52 561.84L368.5 563.09L368.48 564.05L369.68 565.19L370.02 566.72L367.6 568.18L366.51 567.94L365.83 567.22L364.8 568.04L364.16 569.56L363.41 570.09L363.25 571.56L363.92 571.63L364.52 569.88L364.78 572.39L364.42 572.95L363.99 572.28L363.39 572.42L363.97 573.86L362.49 574.13L362.55 574.89L360.77 575.18L359.3 574.58L359.81 572.81L360.88 572.69L359.61 571.08L358.81 572.3L357.65 572.78L355.58 572.32L354.93 571.17L355.7 570.47L355.91 570.31L355.6 569.4L354.24 569.81L353.11 569.18L350.73 571.36L350.14 570.35L346.47 567.54L342.69 563.2L339.51 560.4L336.1 555.49L334.47 550.36L335.08 544.26L334.69 542.16L329.73 539.48L324.96 540.04L324.17 538.1L323.34 537.79L322.68 536L323.83 533.55L324.68 533.45L328.1 534.21L328.7 533L327.94 530.45L326.23 528.45L325.5 526.77L324.13 522.14L323.98 518.36L324.57 514.64L323.49 513.35L323.87 510.96L326.21 507.85L325.85 505.19L327.31 503.93L327.65 502.58L329.63 500.29L329.71 497.87L328.57 496.07L328.76 495.09L331.03 494.01L333.65 493.83L336.34 498.33L337.68 496.25L339.84 495.48L342.04 493.77L342.32 492.46L344.2 492.17L346.38 493.43L347.22 492.52L347.9 490.22L348 487.63L348.8 486.16L355.72 477.77L355.74 476.37L353.88 473.77L353.87 472.17L355.52 470.54L357.71 470.17L358.54 468.47L358.3 467.42L356.92 466.42L356.51 464.92L355.99 464.55L356.09 462.61L354.81 461.49L354.31 459.78L351.61 457.91L349.62 455.29L349.13 452.4Z" fill="#CCCCCC" stroke="white" stroke-width="0.5"/>
    <path d="M253.1 481.23L251.62 473.94L251.7 472.57L250.57 471.44L248.44 461.87L246.56 463.91L242.46 463.53L238.73 464.34L230.54 469.46L223.19 472.56L219.16 477.09L218.52 477.14L215.94 473.2L214.93 472.78L213.26 472.47L211.48 474.05L210.59 476.08L210.44 478.45L210.84 479.2L212.3 480.01L212.84 484.83L214.87 488.42L216.83 490.84L218.71 492.3L220.94 493.11L221.23 494.86L220.53 498.1L218.98 500.01L217.35 501.67L214.27 503.7L211.98 506.77L209.2 508.76L207.39 509.36L202.16 510.4L200.03 509.84L200.73 508.04L199.13 506.43L201.17 502.4L200.7 501.57L196.79 499.22L194.79 496.39L190.12 493.77L186.95 492.52L185.31 491.18L180.19 493.03L178.34 495.41L176.57 495.01L174.3 493.03L172.92 492.74L169.75 493.41L166.77 492.69L165.78 493L165.15 493.3L165.09 494.33L165.98 495.9L165.46 496.96L161.36 500.18L159.7 500.25L159.65 497.78L158.99 495.23L159.69 492.3L159.54 490.87L157.88 489.2L152.45 486.4L145.55 503.14L148.03 507.62L149.42 508.5L150 506.9L151.31 505.65L159.07 501.43L160.33 501.21L162.18 499.93L163.31 499.39L163.67 499.9L163.65 500.07L161.65 501.02L160.64 502.62L160.57 502.88L159.74 502.35L157.49 503.33L154.31 505.84L153.97 506.59L151.99 506.14L150.94 506.96L150.15 510.1L150.41 511.64L153.04 516.14L156.22 519.28L157.34 518.75L160.35 517.41L163.32 517.82L164.06 514.66L165.21 512.51L165.19 512.13L165.59 511.83V511.84L165.97 511.96L165.74 512.1L165.5 514L164.38 516.27L165.38 518.4L167.29 519.03L168.92 518.76L170.5 515.58L172.1 515.68L172.29 515.43V515.44L175.28 516.98L176.4 517.65L176.59 518.13L175.4 517.79L175.67 518.56L175.77 519.88L174.44 519.53L175.41 518.86L175.08 517.52L173.96 516.8L170.83 516.51L170.23 516.65L170.32 518.28L169.77 519.41L167.43 521.38L168.43 519.8L166.64 519.95L164.54 519.4L160.1 518.73L158.14 518.92L158.02 519.76L156.4 520.84L155.14 522.51L157.91 526.47L160.95 529.08L166.99 531.71L172.08 532L172.1 531.35L170.91 529.96L169.96 527.06L169.7 526.61L169.77 525.87L170.24 525.75L170.05 526.57L171.05 528.77L171.88 528.17H172.24L172.17 528.39L171.22 529.47L171.48 529.97L174.13 531.09L174.7 530.88L176.35 526.08L177.19 524.62L178.15 524L177.51 523.67L180.71 523.79L181.19 523.94L182.24 523.48L182.7 522.35L183.44 521.97L184.56 522.14L185.51 523.05L186.12 522.39L186.21 522.62L186.09 523.37L185.2 523.41L183.82 522.47L182.81 524.15L181.23 524.94L179.42 524.82L179.64 525.68L178.68 524.7L177.36 525.06L176.81 528.08L177.08 529.4L177.66 530.48L178.11 531.2L181.47 532.29L181.17 533.09L179.62 531.97L178.97 532.33L178.94 533.03L178.87 533.25L178.38 533.38L178.7 531.91L178.39 531.79L177.96 531.45L177.51 530.99L177.06 531.47L176.32 531.97L175.96 532.5L175.17 532.62L174.05 533.19L174.96 533.65L177.01 533.55L174.04 534.51L173.64 535.14L172.64 533.53L172.04 533.58L171.76 533.56L169.23 533.71L168.06 534.34L167.99 533.95L167.3 533.88L166.89 533.57L166.22 533.79L165.39 533.36L165.44 535.8L167.35 543.43L167.11 545.09L169.19 547.35L171.24 546.47L173.89 546.3L173 544.95L172.91 543.83L173.06 543.59L173.56 541.21L173.85 541.18L173.7 541.78L173.85 542.19L173.33 544.88L174.21 545.43L174.11 546.96L173.31 547.27L175.41 549.37L178.31 551.03L181.36 551.74L184.05 553.34L185.05 554.44L187.37 554.04L188.31 554.41L195.79 550.31L198.41 550.73L201.71 549.09L203.19 546.02L203.94 545.52L206.05 546.8L207.04 548.46L208.93 549.13L211.24 548.51L212.47 546.52L215.48 546.76L217.1 546.2L219.93 544.64L219.67 542.33L220.03 541.38L221.5 541.46L222.29 542.06L224.4 541.54L226.41 537.44L229.15 536.95L232.64 537.39L237.72 535.2L238.92 534.35L238.15 531.88L237.58 530.84L237.79 530.4L241.31 528.59L241.5 523.29L242.2 521.81L244.25 520.39L245.14 518.64L245.96 515.46L244.87 511.92L245.1 511.57L246.11 510.4L248.03 506.5L248.37 503.87L250.13 499.18L252.63 494.63L253.01 488.62L254.28 484.97L253.1 481.23Z" fill="#CCCCCC" stroke="white" stroke-width="0.5"/>
    <path d="M320.39 455.21L320.22 456.12L320.87 457.66L324.88 461.34L326.66 462.08L328.07 461.49L329.06 459.44L330.31 451.21L333.76 450.81L336.71 451.06L338.63 450.13L340.4 447.25L343.81 446.88L344.83 444.57L346.59 445.87L347.43 450.13L349.13 452.4L349.62 455.29L351.61 457.91L354.31 459.78L354.81 461.49L356.09 462.61L355.99 464.55L356.51 464.92L356.92 466.42L358.3 467.42L358.54 468.47L357.71 470.17L355.52 470.54L353.87 472.17L353.88 473.77L355.74 476.37L355.72 477.77L348.8 486.16L348 487.63L347.9 490.22L347.22 492.52L346.38 493.43L344.2 492.17L342.32 492.46L342.04 493.77L339.84 495.48L337.68 496.25L336.34 498.33L333.65 493.83L331.03 494.01L328.76 495.09L328.57 496.07L329.71 497.87L329.63 500.29L327.65 502.58L327.31 503.93L325.85 505.19L326.21 507.85L323.87 510.96L323.49 513.35L322.15 513.14L318.94 510.81L318.24 509.77L318.02 507.58L316.78 505.72L302.69 504.86L301.75 503.83L301.7 503.1L302.25 500.24L302.18 495.88L305.81 494.87L307.8 496.57L308.57 496.66L310.68 499.17L311.41 499.24L312.06 497.8L311.26 494.88L311.11 492.24L313.78 489.51L314.58 487.78L313.59 481.14L312.97 478.59L311.89 477.52L311.91 476.29L314.65 470.18L314.66 464.36L314.01 463.21L313.63 459.92L312.15 455.02L318.6 455.57L320.39 455.21Z" fill="#CCCCCC" stroke="white" stroke-width="0.5"/>
    <path d="M209 396.76L209.77 397.4L211.52 397.03L212.22 397.39L212.5 398.07L212.12 398.96L212.58 399.61L214.76 399.36L215.03 400.16L214.07 402.01L213.84 403.94L214.12 404.99L215.2 405.77L217.33 406.3L223.27 403.37L224.83 405.47L225.48 405.4L226.74 406.81L227.29 406.75L229.25 408.98L231.51 408.79L232.25 408.28L234.81 408.43L235.87 410.44L235.94 411.66L236.79 412.27L237.27 414.01L238.01 414.57L237.77 415.08L238.43 416.71L242.18 415.87L242.61 416.25L244.07 415.26L245.94 414.85L247.69 416.26L248.24 418.38L249.69 419.46L250.48 421.47L250.63 424.88L250.32 426.8L248.7 430.74L248.76 434.9L246.85 439.72L244.69 443.27L245.97 445.42L245.04 450.94L245.93 453.54L247.34 455.55L248.37 461.58L248.44 461.87L246.56 463.9L242.47 463.52L238.74 464.33L230.55 469.44L223.2 472.54L219.17 477.07L218.52 477.11L215.94 473.17L214.93 472.76L213.27 472.44L211.48 474.03L210.59 476.05L210.44 478.42L210.84 479.17L212.3 479.98L212.84 484.8L214.87 488.38L216.83 490.8L218.71 492.26L220.94 493.07L221.22 494.81L220.53 498.05L218.98 499.96L217.36 501.62L214.28 503.65L211.98 506.72L209.21 508.71L207.4 509.31L202.16 510.35L200.03 509.78L200.73 507.98L199.13 506.37L201.16 502.34L200.69 501.51L196.79 499.16L194.79 496.33L190.11 493.71L186.95 492.46L185.31 491.12L180.19 492.97L178.34 495.35L176.57 494.95L174.3 492.97L172.92 492.68L169.75 493.35L166.78 492.63L165.79 492.94L165.15 493.24L165.09 494.27L165.98 495.84L165.46 496.9L161.37 500.13L159.71 500.2L159.66 497.73L159 495.18L159.71 492.25L159.56 490.82L157.9 489.15L152.47 486.36L152.86 485.2L151.63 482.94L150.3 481.9L148.74 481.81L147.09 478.87L145.15 477.51L144.45 477.45L144.01 476.54L144.26 475.95L143.98 476.39L144.78 475.69L145.74 472.06L146.32 471.45L149.27 470.58L150.11 466.84L151.85 465.13L152.69 463.17L153.04 461.45L152.47 460L151.07 457.72L149.84 457.08V454.24L150.65 453.26L150.55 451.04L151.04 450.08L152.79 448.46L153.24 447.43L154.97 446.63L155.76 444.36L156.72 443.67L156.81 441.72L157.26 440.94L159.46 439.93L161.59 440.33L163.87 439.95L165.55 440.31L172.19 440.42L175.48 440.04L177.12 440.38L178.86 442.46L176.85 444.72L178.95 450.18L179.69 450.15L183.46 446.99L184.8 447.11L185.99 448.59L186.8 448.94L189.48 447.92L190.99 444.53L191.94 439.57L192.19 439.32L193.38 439.83L193.39 438.2L194.27 437.68L194.12 436.87L192.94 435.59L193.55 430.95L194.79 429.29L196.31 428.56L196.68 427.71L196.36 426.87L199.59 419.98L199.44 418.59L199.91 417.55L201.67 415.72L203.82 414.67L205.25 411.13L204.82 410.85L204.05 408.37L204.92 405.48L202.91 404.66L202.51 403.82L202.69 402.43L204.1 400.71L205.66 400.85L206.55 400.25L209 396.76Z" fill="#CCCCCC" stroke="white" stroke-width="0.5"/>
    <path d="M149.31 368.38L149.72 368.21L150.33 369.88L151.36 370.37L155.84 369.12L156.79 369.49L158.26 371.55L159.21 372.04L161.54 371.81L163.84 372.43L165.79 371.85L167.08 372.4L168.12 370.24L167.83 369.61L168.65 367.39L172.76 366.05L178.52 365.96L177.43 366.38L177.4 370.66L177.95 371.11L180.43 369.69L184.1 369.05L186.41 369.32L186.97 370.02L186.69 371.39L185.35 372.03L183.06 375.04L182.98 376.6L184.3 380.35L185.62 381.31L186.9 381.34L188.75 383.03L195.57 385.42L194.05 387.82L193.23 388.12L191.73 386.87L189.87 387.26L189.02 389.32L186.84 390.77L184.44 393.25L183.31 395.39L181.6 403.49L179.9 407.41L176.85 411.84L171.32 415.33L169.05 414.74L167.96 412.06L168.12 411.2L167.08 408.01L165.66 405.79L164.11 405.27L157.14 405.58L149.36 405.14L144.81 406.59L143.98 404.89L143.14 401.1L140.29 394.99L139.6 390.21L140.79 386.22L139.98 383.41L140.1 382.01L142 377.76L143.62 376.26L145.8 375.32L147.79 373.68L149.31 368.38Z" fill="#CCCCCC" stroke="white" stroke-width="0.5"/>
    <path d="M263.32 446.18L266.05 441.17L266.96 441.42L267.14 443.7L267.88 443.75L269.21 445.76L269.9 446.1L271.14 445.77L276.11 440.38L282.09 436.52L288.27 429.1L290.71 428.19L292.85 426.09L296.16 425.33L298.6 426.08L299.71 427.7L299.58 428.23L302.32 434.74L305.21 438.09L308.79 440.85L311.71 442.37L313.81 441.64L316.02 439.53L318.83 439.88L320.35 441.03L321.77 443.17L322.67 448.79L320.39 455.21L318.6 455.57L312.15 455.02L313.63 459.92L314.01 463.21L314.66 464.36L314.65 470.18L311.91 476.29L311.89 477.52L312.97 478.59L313.59 481.14L314.58 487.78L313.78 489.51L311.11 492.24L311.26 494.88L312.06 497.8L311.41 499.24L310.68 499.17L308.57 496.66L307.8 496.57L305.81 494.87L302.18 495.88L301.85 494.42L299.8 493.08L297.09 492.81L292.26 493.7L291.66 492.93L290.83 492.76L290.87 492.22L289.75 491.48L288.67 491.39L287.01 492.35L284.62 490.95L283.86 489.97L283.68 488.46L281.8 484.67L282.15 482.52L280.82 481.89L280.23 479.31L279.62 479.18L277.73 480.31L277.01 479.57L277.51 477.95L277.1 476.58L277.92 476.29L278.22 475.33L276.91 473.48L275.57 469.84L274.15 468.04L270.3 466.88L269.91 466.34L270.34 463.99L270.96 463.16L270.72 462.2L272.57 459.72L274.26 458.58L275.01 457.5L276.26 454.05L275.9 453.26L272.17 451.56L270.12 451.48L267.68 450.07L263.85 450.2L263.76 446.58L263.32 446.18Z" fill="#CCCCCC" stroke="white" stroke-width="0.5"/>
    <path d="M288.39 289.57L294.51 288.94L297.71 289.26L299.23 290.11L300.36 289.26L302.17 286.22L303.23 285.68L304.3 286.11L305.77 289.22L306.71 289.53L307.89 288.74L307.82 291.18L307.4 291.8L306.37 291.87L305.84 292.48L303.73 299L303.65 304.62L304.16 306.81L303.61 313.81L301.63 319.08L300.11 327.03L299.32 327.39L298.24 330.79L297.2 332.43L293.42 337.05L286.46 340.69L281.83 341.75L278.92 342.95L267.79 344.7L266.39 345.16L258.93 345.01L257.1 345.22L255.68 344.75L253.73 339.84L254.19 338.47L253.44 308.26L253.8 294.6L254.14 294.22L256.82 293.89L267.85 293.42L269.61 294.05L278.8 302.15L279.74 301.91L288.39 289.57Z" fill="#CCCCCC" stroke="white" stroke-width="0.5"/>
    <path d="M517.65 164.71L518.56 163.83L522.73 162.32L526.77 162.49L529.75 163.5L531.93 164.79L540.42 171.05L545.17 177.45L548.59 181.03L547.59 182.57L549.17 181.55L552.85 184.93L553.52 189.8L552.32 201.65L553.09 208.1L553.39 208.61L560.17 208.6L561.52 211.9L560.9 214.92L555.72 222.48L556.53 225.31L558.96 228.82L560.79 230.64L566.45 232.98L569.58 239.15L571.39 240.75L575.3 242.95L574.62 253.18L575.14 256.88L574.04 259.21L568.29 263.21L558.89 268.87L555.52 270.3L549.32 271.21L542.95 271.68L530.49 271.66L524.59 272.26L521.02 271.55L521.6 271.39L521.73 270.44L520.04 268.32L517.46 263.04L516.85 256.85L515.62 253.06L506.47 245.97L503.97 244.56L499.68 240.18L499.35 238.56L500.66 236.65L502.65 235.73L506.55 235.1L507.38 233.34L506.98 230.48L507.46 221.85L505.38 216.91L498.18 214.29L497.3 213.14L496.43 205.99L495.29 204.28L487.91 201.29L488.11 199.91L491.72 194.84L494.33 187.41L495.3 182.47L496.68 180.44L498.12 179.08L502.03 178.2L503.52 177.44L505.53 175.69L508.1 171.99L514.14 168.71L516.85 164.95L517.65 164.71Z" fill="#CCCCCC" stroke="white" stroke-width="0.5"/>
    <path d="M284.63 498.76L286.64 500.45L291.98 502.23L293.02 503.68L293.49 505.03L293.87 513.5L292.64 514.27L294.15 516.71L293.87 518.76L294.23 522.21L293.8 524.22L292.91 525.12L291.73 528.16L289.91 529.84L287.81 533.71L284.72 543.96L282.15 544.91L277.63 543.78L275.5 543.82L271.35 544.88L266.66 543.77L259.94 543.91L257.8 543.5L255.64 541.85L253.92 538.45L252.08 537.15L251.82 535.78L252.91 533.02L253.43 528.39L252.98 526.73L250.86 525.96L247.4 526.63L245.89 526.19L248.64 513.1L250.73 512.27L253.73 508.44L255.35 507.64L259.86 509.56L262.54 509.29L264.91 504.68L265.84 501.13L267.62 500.09L273.93 498.93L279.31 500.18L284.63 498.76Z" fill="#CCCCCC" stroke="white" stroke-width="0.5"/>
    <path d="M434.75 68.57L436.54 69.75L442.54 70.48L445.68 68.68L447.78 64.69L453.1 62.1L456.26 61.47L459.08 60.1L465.41 58.14L467.62 59.39L469.75 64.17L470.44 68.52L471.9 71.05L473.02 70.33L478.88 68.47L483.87 70.69L485.9 70.08L487.75 70.96L489.96 74.36L491.72 85.89L492.59 88.79L481.53 95.72L481.41 94.33L480.58 92.69L479.59 91.87L476.11 92.42L471.57 94.37L464.86 114.96L465.43 116.84L465.46 119.09L464.27 120.03L458.04 122.54L447.1 126.27L441.63 129.31L435.47 129.77L432.25 134.31L431.76 138.57L433.11 139.2L435.72 139.16L437.84 138.13L440.59 137.86L442.4 138.36L443.86 142.78L444.38 147.1L441.87 152.1L442.42 153.84L443.6 154.95L447.44 154.01L447.91 156.58L448.96 159.08L454.26 166.5L457.25 168.35L463.64 169.12L469.36 170.39L478.23 170.95L479.27 172.41L478.17 175.13L476.32 176.52L474.88 177.3L470.84 178.29L468.31 179.65L466.78 181.56L466.74 183.36L467.85 186.79L465.99 187.36L463.53 186.74L461.67 185.38L460.11 185.21L454.51 186.6L448.81 185.41L447.46 184.05L446.65 182L447.48 174.15L446.94 172L444.27 167.1L443.13 166.8L439.56 167.71L431.86 168.19L428.73 167.98L426.95 164.31L424.65 163.58L421.3 165.04L413.87 162.63L407.87 161.53L406.87 161.72L406.79 159.48L407.87 155.76L414.99 148.88L414.1 147.73L412.01 147.2L409.18 144.56L407.7 141.81L407.2 139.81L406.11 138.82L401.05 138.97L400.85 137.01L401.35 134.92L404.71 130.23L404.9 128.18L405.96 126.34L405.77 123.88L403.49 116.7L402.24 117.23L400.77 118.98L398.45 120.4L396.63 120.58L395.26 120.33L395.25 117.76L394.68 116.32L391.54 116.57L389.64 117.76V116.73L387.99 116.01L388.52 114.29L389.7 112.9L389.78 107.29L388.98 104.35L388.06 103.54L386.21 102.98L380.77 102.42L379.94 102L378.92 100.61L379.49 98.6L378.39 95.52L374.58 93.4L373.45 92.02L373 86.1L365.22 84.08L361.45 84.43L357.46 86.36L355.73 87.71L355.11 90.31L353.24 93.92L352.17 92.8L352.07 90.84L348.56 84.56L347.32 81.94L346.49 81.24L341.55 81.12L338.69 80.19L338.1 79.47L338.03 75.62L338.78 72.22L338.76 69.53L339.22 69.23L349.61 67.85L354.98 68.84L364.2 68.06L365.37 69.29L366.78 73.97L367.46 74.91L370.12 76.58L372.11 77.1L374.73 75.59L375.37 77.15L376.86 77.85L380.54 77.3L384.72 75.56L387.91 72.98L388.94 70.35L389.52 69.6L391.52 68.72L391.53 67.86L392.8 67.47L402.86 67.91L411.88 69.33L417.12 68.58L423.18 69.36L433.21 69.81L434.75 68.57Z" fill="#CCCCCC" stroke="white" stroke-width="0.5"/>
    <path d="M317.2 160.67L320.29 160.69L322.73 160.02L326.91 156.19L331.71 153.35H333.36L337.44 152.11L338.66 152.3L339.79 153.12L340.11 154.37L338 158.39L338.53 160.96L339.57 162.14L343.1 163.97L346.85 165.2L350.36 169.33L351.89 169.88L354.67 169.85L357.12 170.44L362.5 174.87L366.09 181.29L366.47 185.17L365.46 187.61L364.45 192.52L365.65 198.57L365.45 200.3L364.73 201.4L361.18 202.36L360.63 203.15L361.23 205.23L362.29 206.3L369.31 207.27L371.29 210.02L372.89 211.07L375.89 211.71L376.94 211.42L376.41 215.38L374.06 219.58L374.33 220.31L377.12 222.06L379.65 224.77L379.28 225.06L379.07 227.96L378.52 229.39L377.2 230.95L375.01 231.68L373.11 233.08L370.98 238.05L370.76 240.76L372.12 243.58L372.87 247.1L370.48 249.07L370.14 250.17L370.32 252.14L369.62 259.95L370.15 262.05L369.73 263.12L367.82 264.67L367.42 267.75L365.66 269.03L365.87 273.77L364.82 275.17L364.92 276.33L368.18 281.61L370.75 284.69L372.46 285.9L373.46 287.99L373.58 291.4L371.91 295.34L370.82 295.91L368.17 301.52L364.86 306.92L364.04 307.64L362.43 308.06L359.96 307.93L359.36 306.03L354.02 300.12L350.21 299.88L348.71 298.63L347.38 298.41L346.09 299.39L345.2 301.29L341.04 306.04L338.69 307.64L337.54 307.85L336.2 306.89L335.8 305.58L335.85 295.88L334.82 294.27L330.6 291.83L330.28 288.58L327.35 285.91L326.25 285.52L325.24 285.87L323.59 287.99L322.65 290.53L320.34 292.63H319.24L317.49 291.57L316.15 291.82L313.71 290.03L312.78 289.89L311.28 290.5L310.58 289.71L309.98 287.83L309.23 287.72L307.89 288.74L306.71 289.53L305.77 289.22L304.3 286.11L303.23 285.68L302.17 286.22L300.36 289.26L299.23 290.11L297.71 289.26L294.51 288.94L288.39 289.57L287.16 289.15L284.7 289.75L286.08 285.62L282.69 282.84L282.78 280.52L283.34 279.59L285.79 278.3L286.58 277.43L287.18 274.64L290.27 271.47L289.69 269.59L286.69 267.97L287.52 264.95L283.9 263.59L282.77 262.82L282.6 261.91L282.89 261.27L283.77 260.85L287 260.44L287.63 258.93L287.53 255.84L286.61 251.96L286.45 246.9L286.12 245.89L284.75 245.22L271.88 245.3L265.21 242.81L263.5 241.15L262.47 239.17L263.38 237.93L265.55 236.57L267.17 234.89L268.02 233.41L272.26 230.81L273.28 229.02L273.59 227.04L270.36 225.29L265.53 223.63L266.88 219.49L266.93 216.92L264.95 213.12L263.34 212.68L261.09 213.35L259.7 213.21L259.42 208.71L258.94 206.79L258.33 206.28L253.6 205.78L252.42 206.98L253.09 209.37L252.45 210.35L248.48 209.79L240.85 212.65L239.81 209.99L238.79 208.99L235.88 209.12L233.78 209.73L231.32 211.23L225.73 215.73L220.35 222.74L218.94 223.63L217.51 223.03L216.29 219.51L213.24 217.51L213.02 216.14L213.35 213.83L215.19 212.03L214.95 208.22L215.69 206.22L215.55 204.74L214.11 202.36L214.51 197.57L217.55 192.19L219.23 192.07L220.51 191.31L223.37 187.15L228.64 182.44L234.28 181.49L242.22 182.06L246.93 181.44L249.26 179.93L252.3 176.83L253.81 173.6L254.45 170.05L256.16 166.64L257.01 165.5L259.76 163.73L262.1 161.35L263.11 161.38L267.52 162.26L269.46 162.08L270.82 162.98L271.61 164.72L271.38 165.79L268.49 168.48L268.1 169.8L274.45 171.73L278.7 176.02L280.45 176.25L283.14 174.73L284.52 172.82L282.71 169.46L282.59 167.42L286.04 166.33L287.99 166.44L290.76 167.54L292.16 167.45L292.74 166.91L292.73 165.52L293.93 162.55L296.99 159.96L298.38 159.68L305.16 161.97L307.21 163.7L308.18 165.28L309.75 166.06L315.37 163.82L316.21 161.77L317.2 160.67Z" fill="#CCCCCC" stroke="white" stroke-width="0.5"/>
    <path d="M91.4205 43.99L98.0405 43.85L99.9005 44.59L104.53 43.01L105.29 43.32L106.94 45.44L110.13 47.26L111.19 48.36L120.75 51.48L123.7 53.55L126.76 54.23L128.58 53.8L129.21 53.24L131.7 49.55L132.86 49.24L133.94 50.12L134.34 51.37L132.72 55.3L132.81 57.7L131.39 60.68L130.97 64.38L132.83 66.53L134.63 70.81L134.45 74.13L133.15 80.19L133.19 82.23L134.87 87.75L134.63 95.77L133.99 97.33L132.97 97.37L129.8 95.33L127.12 95.35L123.17 96.53L121.89 98.01L120.88 101.79L120.74 111.73L121.53 124.78L119.41 134.57L116.8 140.2L115.64 144.97L118.19 148.62L118.95 149.13L121.73 149.42L123.44 148.07L125.84 145.07L137.84 139.62L139.53 139.5L141.42 140.36L143.46 139.64L144.23 141.39L145.17 141.46L146.79 140.49L147.65 140.01H149.47L153.58 142.26L159.92 140.8L160.74 138.48L161.8 137.86L162.59 137.71L163.5 138.35L165.59 138.66L169.2 138.01L170.28 138.58L171.97 141.88L174.84 141.99L178.49 144.4L183.96 143.64L187.75 144.14L190.24 143.55L191.46 142.74L196.31 143.36L200.66 145.13L202.07 147.28L202.06 149.75L200.01 156.24V157.44L205.39 160.15L207.32 163.16L208.7 170.74L208.91 176.22L207.55 175.12L205.7 174.76L202.28 177.52L201 179.72L197.07 180.13L184.97 185.21L174.3 185.9L172.66 184.65L172.3 180.63L172.67 175.82L172.19 174.04L168.44 171.57L167.63 170.31L166.65 163.8L164.96 162.2L162.12 161.49L158.48 161.45L148.62 163.04L140.75 164.87L136.32 166.49L131.47 169.08L130.1 171.15L130.26 172.69L131.13 173.95L134.76 175.96L140.16 178.15L145.52 178.68L146.57 180.69L148.28 180.66L149.06 181.4L150.18 187.96L149.93 189.03L147.75 190.48L147.12 191.95L147.61 193.4L150.35 195.03L151.52 196.39L151.45 198.46L150.44 199.95L146.64 200.92L141.42 203.56L136.42 203.04L134.87 203.46L133.97 204.21L133.93 213.8L133.48 215.17L134.73 218L136.54 219.97L138.4 223L139.15 225.44L138.87 226.97L137.1 229.1L134.46 230.67L131.08 230.93L123.66 233.43L123.16 239.28L122.6 239.76L118.28 239.3L116.86 238.31L116.84 236.03L117.87 232.75L118.16 228.81L115.23 226.15L114.11 223.74L114.29 217.42L115.75 214.16L117.59 212.16L119.07 211.15L122.99 209.71L127.61 205.28L130.04 194.57L130.24 190.52L129.73 189.78L126.84 188.72L125.26 188.82L116.86 183.12L111.62 181.43L108.68 181.5L104.18 182.35L97.9905 181.99L85.8205 182.8L83.9605 182.51L80.4705 181.09L69.4305 175.01L66.5405 174.65L65.6505 175.17L64.3605 175.16L52.2305 164.88L56.5605 144.49L58.6805 139.78L63.5705 135.6L62.7505 132.34L60.3305 130.52L59.7605 125.65L62.9305 121.81L60.5705 113.05L60.9605 107.83L62.2305 103.53L61.3005 87.68L72.1205 78.35L79.8505 72.3L89.3805 57.68L91.4605 48.05L91.4205 43.99Z" fill="#CCCCCC" stroke="white" stroke-width="0.5"/>
    <path d="M348.56 84.56L352.07 90.84L352.17 92.8L353.24 93.92L355.11 90.31L355.73 87.71L357.46 86.36L361.45 84.43L365.22 84.08L373 86.1L373.45 92.02L374.58 93.4L378.39 95.52L379.49 98.6L378.92 100.61L379.94 102L380.77 102.42L386.21 102.98L388.06 103.54L388.98 104.35L389.78 107.29L389.7 112.9L388.52 114.29L387.99 116.01L389.64 116.73V117.76L391.54 116.57L394.68 116.32L395.25 117.76L395.26 120.33L396.63 120.58L398.45 120.4L400.77 118.98L402.24 117.23L403.49 116.7L405.77 123.88L405.96 126.34L404.9 128.18L404.71 130.23L401.35 134.92L400.85 137.01L401.05 138.97L406.11 138.82L407.2 139.81L407.7 141.81L409.18 144.56L412.01 147.2L414.1 147.73L414.99 148.88L407.87 155.76L406.79 159.48L406.87 161.72L401.35 163.89L400.21 163.8L399.07 162.73L397.38 163.03L394.9 164.6L394.23 165.7L389.49 169.87L386.84 173.98L384.1 177.19L382.06 177.7L379.36 177.54L378.34 177.97L376.74 182.54L376.29 186.04L376.69 192.93L377.14 194.92L381 199.25L381.77 200.92L381.85 202.92L380.52 206.77L377.93 210.86L376.94 211.42L375.89 211.71L372.89 211.07L371.29 210.02L369.31 207.27L362.29 206.3L361.23 205.23L360.63 203.15L361.18 202.36L364.73 201.4L365.45 200.3L365.65 198.57L364.45 192.52L365.46 187.61L366.47 185.17L366.09 181.29L362.5 174.87L357.12 170.44L354.67 169.85L351.89 169.88L350.36 169.33L346.85 165.2L343.1 163.97L339.57 162.14L338.53 160.96L338 158.39L340.11 154.37L339.79 153.12L338.66 152.3L337.44 152.11L333.36 153.35H331.71L326.91 156.19L322.73 160.02L320.29 160.69L317.2 160.67L313.6 157.99L312.49 155.73L311.71 152.12L313.23 149.45L313.3 147.24L315.12 145.61L318.87 144.58L321.32 142.88L324.03 142.81L324.98 142.23L321.84 134.43L322.51 130.37L320.42 125.79L321.28 119.46L320.58 107.14L320.85 104.25L323.03 101.97L327.28 99.6L334.92 97.22L338.6 95.29L339.38 94.44L340.51 90.05L342.65 85.44L343.93 84.92L348.56 84.56Z" fill="#CCCCCC" stroke="white" stroke-width="0.5"/>
    <path d="M220.3 325.19L222.5 325.76L225.27 327.34L228.79 330.59L231.56 334.91L234.11 343.16L237.82 345.46L240.53 348.15L246 355.42L248.72 357.96L250.35 358.21L250.68 357.86L251.3 354.97L252.54 352.44L252.73 352.18L253.72 353.06L254.18 352.97L254.24 350L257.81 348.26L258.93 345.01L266.39 345.16L267.79 344.7L267.19 347.34L265.64 350V350.86L266.46 352.55L268.65 355.21L269.19 361.38L268.02 366.09L267.98 370.78L266.37 372.45L265.52 374.57L265.35 378.31L266.04 378.87L270.3 375.92L279.56 371.85L291.96 368.48L299.03 367.78L302.61 368.46L310.31 369.03L309.99 371.87L310.53 377.74L312.41 380.96L315.11 383.57L315.84 385.42L315.85 392.32L316.42 399.13L317.66 404.66L318.93 405.71L322.24 405.39L323.72 405.86L323.36 407.67L322.13 408.88L321.66 410.17L321.24 414.1L319.3 419.93L316 423.04L309.56 426.16L308.6 427.6L308.26 432.02H306.5L305.15 430.97L304.33 431.07L300.96 427.78L300.12 427.2L299.71 427.7L298.6 426.08L296.16 425.33L292.85 426.09L290.71 428.19L288.27 429.1L282.09 436.52L276.11 440.38L271.14 445.77L269.9 446.1L269.21 445.76L267.88 443.75L267.14 443.7L266.96 441.42L266.05 441.17L263.32 446.18L261.98 448.05L260.44 448.91L258.2 451.22L256.96 455.34L256.9 458.07L255.06 460.58L253.63 461.47L250.04 460.81L248.37 461.58L247.34 455.55L245.93 453.54L245.04 450.94L245.97 445.42L244.69 443.27L246.85 439.72L248.76 434.9L248.7 430.74L250.32 426.8L250.63 424.88L250.48 421.47L249.69 419.46L248.24 418.38L247.69 416.26L245.94 414.85L244.07 415.26L242.61 416.25L242.18 415.87L238.43 416.71L237.77 415.08L238.01 414.57L237.27 414.01L236.79 412.27L235.94 411.66L235.87 410.44L234.81 408.43L232.25 408.28L231.51 408.79L229.25 408.98L227.29 406.75L226.74 406.81L225.48 405.4L224.83 405.47L223.27 403.37L217.33 406.3L215.2 405.77L214.12 404.99L213.84 403.94L214.07 402.01L215.03 400.16L214.76 399.36L212.58 399.61L212.12 398.96L212.5 398.07L212.22 397.39L211.52 397.03L209.77 397.4L209 396.76L208.77 395.98L204.03 391.81L201.99 389.11L202.7 384.97L200.19 384.54L195.57 385.42L188.75 383.03L186.9 381.34L185.62 381.31L184.3 380.35L182.98 376.6L183.06 375.04L185.35 372.03L186.69 371.39L186.97 370.02L186.41 369.32L184.1 369.05L180.43 369.69L177.95 371.11L177.4 370.66L177.43 366.38L178.52 365.96L179.27 364.52L178.45 362.11L173.69 359.53L173.56 358.94L171.14 357.13L171.07 356.46L168.66 354.01L166.74 350.31L166.91 349.32L169.05 346.89L171.34 342.98L175.05 338.94L178.65 336.65L180.42 339.27L182.59 341.03L189.63 344.04L191.47 344.12L194.23 345.2L197.94 344.99L200.07 345.68L203.99 345.56L210.29 347.08L213.32 346.58L214.89 342.82L215.53 336.33L217.84 328.54L220.3 325.19Z" fill="#CCCCCC" stroke="white" stroke-width="0.5"/>
    <path d="M323.31 36.41L332.47 37.76L337.66 39.14L341.24 41.08L344.16 43.58L346.89 44.31L356.78 53.95L360.07 53.07L362.99 53.45L366.02 55L368.31 56.75L370.16 58.86L371.2 61.3L374.16 62.67L379.42 63.94L391.53 67.86L391.52 68.72L389.52 69.6L388.94 70.35L387.91 72.98L384.72 75.56L380.54 77.3L376.86 77.85L375.37 77.15L374.73 75.59L372.11 77.1L370.12 76.58L367.46 74.91L366.78 73.97L365.37 69.29L364.2 68.06L354.98 68.84L349.61 67.85L339.22 69.23L338.76 69.53L338.78 72.22L338.03 75.62L338.1 79.47L338.69 80.19L341.55 81.12L346.49 81.24L347.32 81.94L348.56 84.56L343.93 84.92L342.65 85.44L340.51 90.05L339.38 94.44L338.6 95.29L334.92 97.22L327.28 99.6L323.03 101.97L320.85 104.25L320.58 107.14L321.28 119.46L320.42 125.79L322.51 130.37L321.84 134.43L324.98 142.23L324.03 142.81L321.32 142.88L318.87 144.58L315.12 145.61L313.3 147.24L313.23 149.45L311.71 152.12L312.49 155.73L313.6 157.99L317.2 160.67L316.21 161.77L315.37 163.82L309.75 166.06L308.18 165.28L307.21 163.7L305.16 161.97L298.38 159.68L296.99 159.96L293.93 162.55L292.73 165.52L292.74 166.91L292.16 167.45L290.76 167.54L287.99 166.44L286.04 166.33L282.59 167.42L282.71 169.46L284.52 172.82L283.14 174.73L280.45 176.25L278.7 176.02L274.45 171.73L268.1 169.8L268.49 168.48L271.38 165.79L271.61 164.72L270.82 162.98L269.46 162.08L267.52 162.26L263.11 161.38L263.13 159.05L264.38 152.95L263.48 149.26L261.57 147.36L261.41 146.29L261.86 142.53L263.42 138.39L264.07 134.39L265.57 133.55L272.18 133.42L273.46 134.29L278.34 130.32L278.89 127.12L282.23 127.93L284.12 126.31L283.62 124.36L282.46 122.93L279.78 120.64L277.25 119.48L275.99 118.27L277.81 114.64L278.9 109.48L277.95 107.01L278.08 105.33L277.39 102.28L274.89 97.08L275.29 93.51L273.98 90.3L273.59 85.55L272.59 80.38L272.66 74.33L271.67 68.16L273.11 57.34L277.97 55.77L283.25 50.41L291.95 51.19L295.53 50.45L318.93 36.3L320.21 35.97L323.31 36.41Z" fill="#CCCCCC" stroke="white" stroke-width="0.5"/>
    <path d="M63.01 237.63L68.39 236.71L79.71 236.36L83.33 237.29L97.31 253.15L99.3 256.25L104.91 262.73L107.2 264.31L108.9 264.13L109.94 264.61L110.21 267.55L109.48 272.2L109.54 277.58L110.42 281.26L111.72 281.65L119.29 280.86L120.13 281.6L120.56 283.22L120.37 286.65L120.72 288.05L121.38 289.07L124.59 291.48L127.63 291.87L128.7 292.42L129.6 294.53L130.34 299.98L132.23 301.3L134.23 301.29L143.39 297.73L145.8 297.57L152.15 300.58L153.57 301.68L159.92 308.91L162.17 309.6L166.13 308.44L170.65 309.25L174.38 310.86L175.02 310.59L186.79 317.91L191.98 321.58L192.91 323.07L194.37 323.78L196.21 324.38L201.13 324.7L204.52 323.79L212.04 323.48L220.3 325.19L217.84 328.54L215.53 336.33L214.89 342.82L213.32 346.58L210.29 347.08L203.99 345.56L200.07 345.68L197.94 344.99L194.23 345.2L191.47 344.12L189.63 344.04L182.59 341.03L180.42 339.27L178.65 336.65L175.05 338.94L171.34 342.98L169.05 346.89L166.91 349.32L166.74 350.31L168.66 354.01L171.07 356.46L171.14 357.13L173.56 358.94L173.69 359.53L178.45 362.11L179.27 364.52L178.52 365.96L172.76 366.05L168.65 367.39L167.83 369.61L168.12 370.24L167.08 372.4L165.79 371.85L163.84 372.43L161.54 371.81L159.21 372.04L158.26 371.55L156.79 369.49L155.84 369.12L151.36 370.37L150.33 369.88L149.72 368.21L149.31 368.38L148.92 367.84L147.25 368.64L143.76 368.77L142.28 365.6L140.1 365.02L135.36 366.72L132.71 366.34L132.79 367.22L132.61 366.37L132.25 366.46L128.7 368.07L126.1 368.38L117.83 368.16L117.34 367.5L115.89 367.43L115.18 366.49L113.28 361.68L112.89 358.91L112.11 358.25L112.08 357.45L108.62 355.2L105.67 350.96L104.45 347.52L104.36 345.42L103.57 342.65L101.6 340.02L98.6 332.91L96.94 331L95.62 325.71L94.81 324.13L95.84 319.63L97.92 318.08L98.27 316.48L98.84 315.89L102 313.8L104.34 310.64L104.18 309.34L102.87 308.56L100.04 310.36L97.83 310.44L94 309.36L92.9 309.49L90.5 307.95L84.8 306.21L81.55 303.79L79.86 301.75L79.32 299.27L75.24 296.81L73.2 296.9L69.38 298.98L67.69 302.69L67.67 305.34L67.22 306.45L62.8 309.88L56.16 312.8L50.37 316.1L47.88 318.04L46.75 318.3L43.74 320.51L36.74 323.77L35.81 323.92L35.28 323.17L34.83 323.28L33.92 322.15L33.23 321.96L30.66 322.23L23.73 327.76L22.07 328.42L18.16 331.86L17.97 332.85L16.47 333.64L12.39 334.36L9.21996 334.38L6.02996 337.16L6.58996 335.38L5.99996 334.02L5.98996 330.48L5.27996 329.58L5.51996 328.14L6.06996 326.75L5.67996 324.04L4.70996 322.25L5.44996 320.85L6.87996 319.94L6.47996 316.6L7.16996 316.37L7.50996 314.65L7.30996 314.03L7.32996 313.15L8.01996 311.51L8.44996 309.95L8.03996 309.19L7.76996 308.42L7.41996 307.64L7.54996 306.47L7.79996 304.74L7.95996 304.05L13.33 304.23L14.04 304.07L15.09 302.89L18.64 302.33L19.3 303.15L20.54 303.6L22.03 303.5L26.98 301.77L27.23 300.01L29.18 296.13L29.35 292.39L31.26 290.51L30.92 284.69L29.64 280.68L29.95 279.26L31.11 277.38L33.58 276L34.4 274.17L36.99 270.55L37.84 267.45L38.88 266.86L41.02 267.11L43.11 265.38L43.21 264.16L41.87 261.6L41.55 259.67L41.92 258.33L43.03 257.11L49.78 254.41L53.17 254.65L54.31 254.35L56.33 252.29L56.45 250.99L58.81 248.4L59.38 245.99L59.63 241.02L60.48 239.92L62.56 239.06L63.01 237.63Z" fill="#CCCCCC" stroke="white" stroke-width="0.5"/>
    <path d="M4.05984 464.92L5.30984 465.32L8.71984 464.89L10.6598 465.78L14.1198 463.34V461.73L14.5298 461.62L18.0798 462.15L31.7898 461.96L32.8498 460.95L33.6198 457L35.6998 455.35L35.7898 453L37.1498 450.49L38.9998 450.74L42.4098 452.17L43.6098 452.97L44.4198 454.4L48.9898 453.92L48.4798 452.47L50.0698 451.41L87.6498 451.8L88.7198 452.01L89.2598 452.91L86.5298 455.79L86.2999 456.73L87.0298 457.97L87.0698 459.43L89.2598 460.52L92.4799 458.36L95.9298 457.95L96.9898 459.43L97.1098 460.38L95.9898 461.44L93.1898 462.75L92.6298 463.78L92.8498 464.48L93.7698 465.22L96.5398 465.99L97.6698 467.3L98.2498 467.44L99.3699 466.86L104.64 467.51L104.99 468.76L104.63 471.12L95.0998 469.97L92.9099 469.3L80.8898 467.46L72.2999 467L62.3898 467.94L47.2798 468.1L46.7098 468.41L46.5198 469.73L45.9898 469.63L46.2298 469.97L40.8098 469.15L34.7898 469.16L13.1898 469.89L3.69984 470.99L3.33984 467.88L4.05984 464.92Z" fill="#CCCCCC" stroke="white" stroke-width="0.5"/>
    <path d="M307.89 288.74L309.23 287.72L309.98 287.83L310.58 289.71L311.28 290.5L312.78 289.89L313.71 290.03L316.15 291.82L317.49 291.57L319.24 292.63H320.34L322.65 290.53L323.59 287.99L325.24 285.87L326.25 285.52L327.35 285.91L330.28 288.58L330.6 291.83L334.82 294.27L335.85 295.88L335.8 305.58L336.2 306.89L337.54 307.85L338.69 307.64L341.04 306.04L345.2 301.29L346.09 299.39L347.38 298.41L348.71 298.63L350.21 299.88L354.02 300.12L359.36 306.03L359.96 307.93L362.43 308.06L364.04 307.64L364.86 306.92L368.17 301.52L370.82 295.91L371.91 295.34L373.6 296.99L376.02 297.1L378.1 297.95L378.73 302.43L380.66 305.84L382.82 306.82L388.14 307.38H391.84L394.61 306.03L395.65 306.59L397.66 308.8L396.87 311.73L394.17 315.74L392.06 317.72L390.65 317.92L389.19 318.97L387.64 321.83L386.09 323.19L385.77 325.44L386.41 327.16L388.5 329.59L388.82 330.83L388.52 336.24L389.96 338.31L395.11 341.02L398.77 342.32L406.96 342.17L416.72 339.38L427.08 343.71L429.6 345.78L431.06 348.46L428.48 352.14L425.74 352.96L421.23 352.01L420.9 351.6L419.38 351.83L418.38 350.76L416.65 349.86H414.79L413.51 350.72L412.18 352.86L411.45 355.72L413.16 357.08L415.19 359.59L415.54 362.47L415 363.12L416 365.8L415.89 366.99L404.66 374.2L403.45 375.59L391.66 366.66L391.65 367.36L387.69 367.58L382.81 367.17L375.95 365.62L365.86 361.9L363.18 361.46L360.59 361.64L359.21 361.92L355.26 364.12L354.02 365.53L353 368.39L353.08 370.91L357.78 382.55L357.69 383.91L356.55 385.01L351.22 382.78L347.9 379.98L346.83 380.12L341.58 379.13L336.66 376.31L327.95 372.76L319.44 371.51L310.31 369.03L302.61 368.46L299.03 367.78L291.96 368.48L279.56 371.85L270.3 375.92L266.04 378.87L265.35 378.31L265.52 374.57L266.37 372.45L267.98 370.78L268.02 366.09L269.19 361.38L268.65 355.21L266.46 352.55L265.64 350.86V350L267.19 347.34L267.79 344.7L278.92 342.95L281.83 341.75L286.46 340.69L293.42 337.05L297.2 332.43L298.24 330.79L299.32 327.39L300.11 327.03L301.63 319.08L303.61 313.81L304.16 306.81L303.65 304.62L303.73 299L305.84 292.48L306.37 291.87L307.4 291.8L307.82 291.18L307.89 288.74Z" fill="#CCCCCC" stroke="white" stroke-width="0.5"/>
    <path d="M65.6504 175.17L66.5404 174.65L69.4304 175.01L80.4704 181.09L83.9604 182.51L85.8204 182.8L97.9904 181.99L104.18 182.35L108.68 181.5L111.62 181.43L116.86 183.12L125.26 188.82L126.84 188.72L129.73 189.78L130.24 190.52L130.04 194.57L127.61 205.28L122.99 209.71L119.07 211.15L117.59 212.16L115.75 214.16L114.29 217.42L114.11 223.74L115.23 226.15L118.16 228.81L117.87 232.75L116.84 236.03L116.86 238.31L118.28 239.3L122.6 239.76L123.16 239.28L123.66 233.43L131.08 230.93L134.46 230.67L137.1 229.1L138.87 226.97L139.15 225.44L138.4 223L136.54 219.97L134.73 218L133.48 215.17L133.93 213.8L133.97 204.21L134.87 203.46L136.42 203.04L141.42 203.56L146.64 200.92L150.44 199.95L151.45 198.46L151.52 196.39L150.35 195.03L147.61 193.4L147.12 191.95L147.75 190.48L149.93 189.03L150.18 187.96L149.06 181.4L148.28 180.66L146.57 180.69L145.52 178.68L140.16 178.15L134.76 175.96L131.13 173.95L130.26 172.69L130.1 171.15L131.47 169.08L136.32 166.49L140.75 164.87L148.62 163.04L158.48 161.45L162.12 161.49L164.96 162.2L166.65 163.8L167.63 170.31L168.44 171.57L172.19 174.04L172.67 175.82L172.3 180.63L172.66 184.65L174.3 185.9L184.97 185.21L197.07 180.13L201 179.72L202.28 177.52L205.7 174.76L207.55 175.12L208.91 176.22L212.23 180.62L216.03 187.26L217.62 191.35L217.55 192.19L214.51 197.57L214.11 202.36L215.55 204.74L215.69 206.22L214.95 208.22L215.19 212.03L213.35 213.83L213.02 216.14L213.24 217.51L216.29 219.51L217.51 223.03L218.94 223.63L220.35 222.74L225.73 215.73L231.32 211.23L233.78 209.73L235.88 209.12L238.79 208.99L239.81 209.99L240.85 212.65L248.48 209.79L252.45 210.35L253.09 209.37L252.42 206.98L253.6 205.78L258.33 206.28L258.94 206.79L259.42 208.71L259.7 213.21L261.09 213.35L263.34 212.68L264.95 213.12L266.93 216.92L266.88 219.49L265.53 223.63L270.36 225.29L273.59 227.04L273.28 229.02L272.26 230.81L268.02 233.41L267.17 234.89L265.55 236.57L263.38 237.93L262.47 239.17L263.5 241.15L265.21 242.81L271.88 245.3L284.75 245.22L286.12 245.89L286.45 246.9L286.61 251.96L287.53 255.84L287.63 258.93L287 260.44L283.77 260.85L282.89 261.27L282.6 261.91L282.77 262.82L283.9 263.59L287.52 264.95L286.69 267.97L289.69 269.59L290.27 271.47L287.18 274.64L286.58 277.43L285.79 278.3L283.34 279.59L282.78 280.52L282.69 282.84L286.08 285.62L284.7 289.75L287.16 289.15L288.39 289.57L279.74 301.91L278.8 302.15L269.61 294.05L267.85 293.42L256.82 293.89L254.14 294.22L253.8 294.6L253.44 308.26L254.19 338.47L253.73 339.84L255.68 344.75L257.1 345.22L258.93 345.01L257.81 348.26L254.24 350L254.18 352.97L253.72 353.06L252.73 352.18L252.54 352.44L251.3 354.97L250.68 357.86L250.35 358.21L248.72 357.96L246 355.42L240.53 348.15L237.82 345.46L234.11 343.16L231.56 334.91L228.79 330.59L225.27 327.34L222.5 325.76L220.3 325.19L212.04 323.48L204.52 323.79L201.13 324.7L196.21 324.38L194.37 323.78L192.91 323.07L191.98 321.58L186.79 317.91L175.02 310.59L174.38 310.86L170.65 309.25L166.13 308.44L162.17 309.6L159.92 308.91L153.57 301.68L152.15 300.58L145.8 297.57L143.39 297.73L134.23 301.29L132.23 301.3L130.34 299.98L129.6 294.53L128.7 292.42L127.63 291.87L124.59 291.48L121.38 289.07L120.72 288.05L120.37 286.65L120.56 283.22L120.13 281.6L119.29 280.86L111.72 281.65L110.42 281.26L109.54 277.58L109.48 272.2L110.21 267.55L109.94 264.61L108.9 264.13L107.2 264.31L104.91 262.73L99.3004 256.25L97.3104 253.15L83.3304 237.29L79.7104 236.36L68.3904 236.71L63.0104 237.63L63.5004 234.61L61.5404 233.91L59.4404 231.89L57.6904 228.35L60.7704 221.38L60.6304 219.69L61.5204 218.55L64.1004 217.22L70.1804 220.41L71.1804 217.29L71.4304 214.3L74.2504 207.87L73.5904 201.67L70.9004 199.77L67.9304 194.17L69.1404 189.57L69.2704 187.53L68.0404 182.48L65.9104 181.66L66.3304 179.71L66.0504 177.76L66.5604 175.81L65.6504 175.17Z" fill="#CCCCCC" stroke="white" stroke-width="0.5"/>
    <path d="M1.61 376.66L7.58 372.37L11.07 372.16L12.97 373.09L14.21 374.88L14.62 376.31L14.77 382.79L15.33 385.15L16.64 387.32L17.48 387.45L18.42 381.89L18.99 380.64L19.46 380.19H20.83L21.71 380.8L22.25 382.55L22.09 385.64L20.35 391.62L19.94 391.38L19.43 391.95L19.95 395.61L22.07 398.12L25.12 400.59L26.14 403.63L29.34 408.14L32.35 410.5L34.69 411.63L38.74 411.91L40.48 411.42L43.26 407.45L44.4 403.21L46.02 401.73L48.62 402.02L50.37 406.36L51.96 407.49L52.98 407.23L54.11 406.12L56.58 405.52L62.78 405.74L63.95 407.63L64.28 413.29L64.69 414L67.67 415.22L68.31 416.32L68.21 418.54L69.31 421.24L69.72 424.11L65.75 428.12L65.42 429.25L65.79 429.53L71.88 429.28L74.58 428.7L77.62 428.83L80.8 427.59L82.31 426.22L88.2 425.34L90.94 424.26L92.34 423.15L93.28 423.54L93.8 424.38L94.39 428.66L96.36 428.65L100.21 426.67L103.6 427.26L106.57 434.37L109.63 432.41L110.73 432.39L111.88 433.08L114 432.16L118.16 431.9L118.47 432.03L118.17 433.04L117.42 438.54L116.36 441.8L114.01 443.9L111.95 444.87L108.32 448.15L105.34 453.07L105.37 456.48L107.38 458.45L112.19 459.26L114.02 459.13L115.44 458.07L117.09 455.8L118.85 455.29L119.5 456.07L119.48 460.54L120.33 464.11L119.61 465.92L117.17 466.58L116.4 467.72L115.28 468.4L112.88 468.51L111.56 469.85L112.54 470.28L115.33 470.03L118.63 471.77L118.84 472.85L118.02 474.57L114.01 474.29L109.01 472.05L104.63 471.12L104.99 468.76L104.64 467.51L99.37 466.86L98.25 467.44L97.67 467.3L96.54 465.99L93.77 465.22L92.85 464.48L92.63 463.78L93.19 462.75L95.99 461.44L97.11 460.38L96.99 459.43L95.93 457.95L92.48 458.36L89.26 460.52L87.07 459.43L87.03 457.97L86.3 456.73L86.53 455.79L89.26 452.91L88.72 452.01L87.65 451.8L50.07 451.41L48.48 452.47L48.99 453.92L44.42 454.4L43.61 452.97L42.41 452.17L39 450.74L37.15 450.49L35.79 453L35.7 455.35L33.62 457L32.85 460.95L31.79 461.96L18.08 462.15L14.53 461.62L14.12 461.73V463.34L10.66 465.78L8.72 464.89L5.31 465.32L4.06 464.92L4.48 461.64L5.61 460.46L6.24 458.92L4.9 455.18L6.2 453.02L8.31 451.22L8.51 448.48L8.3 447.52L6.16 447.24L5.38 446.85L4.97 445.99L4.8 444.17L6 442.27L5.66 441.2L6.14 437.74L5.92 436.76L4.62 436.62L4.08 436.01L4.23 433.15L5.63 431.54L8.69 429.76L6.23 427.53L5.75 426.57L7.62 424.37L8.21 422.45L7.55 417.79L6.02 416.13L5.9 406.44L8.27 406.36L9.09 405.88L9.13 405.16L8.71 401.66L6.03 399.62L5.81 397.86L4.83 396.34L4.53 392.14L4.78 383.18L4.48 382.23L3.66 381.88L2.69 379.3L1 377.13L1.61 376.66Z" fill="#CCCCCC" stroke="white" stroke-width="0.5"/>
    <path d="M195.57 385.42L200.19 384.54L202.7 384.97L201.99 389.11L204.03 391.81L208.77 395.98L209 396.76L206.55 400.25L205.65 400.85L204.09 400.71L202.68 402.43L202.5 403.81L202.9 404.65L204.92 405.47L204.04 408.36L204.81 410.85L205.23 411.13L203.8 414.67L201.65 415.72L199.89 417.55L199.42 418.59L199.57 419.98L196.34 426.87L196.66 427.7L196.29 428.55L194.78 429.28L193.54 430.95L192.92 435.58L194.1 436.86L194.26 437.68L193.38 438.19L193.37 439.82L192.18 439.31L191.93 439.56L190.98 444.52L189.47 447.91L186.79 448.94L185.98 448.58L184.79 447.1L183.45 446.98L179.68 450.14L178.94 450.17L176.84 444.71L178.85 442.46L177.11 440.37L175.47 440.03L172.18 440.42L165.54 440.31L163.86 439.95L161.58 440.33L159.46 439.94L157.26 440.95L156.8 441.73L156.71 443.69L155.76 444.37L154.97 446.64L153.24 447.44L152.79 448.48L151.03 450.09L150.54 451.05L150.63 453.27L149.83 454.26V457.1L151.06 457.74L152.45 460.02L153.03 461.47L152.67 463.19L151.84 465.15L150.1 466.86L149.25 470.6L146.31 471.46L145.73 472.08L144.77 475.7L143.97 476.4L144.25 475.96L144 476.56L144.44 477.47L145.14 477.52L147.08 478.88L148.73 481.82L150.29 481.92L151.62 482.96L152.86 485.22L152.47 486.38L145.57 503.12L140.71 497.18L131.54 487.94L116.72 475.98L114.02 474.32L118.02 474.6L118.85 472.87L118.64 471.8L115.34 470.06L112.55 470.31L111.57 469.88L112.89 468.53L115.29 468.43L116.4 467.75L117.18 466.61L119.62 465.95L120.34 464.13L119.5 460.56L119.51 456.09L118.87 455.31L117.1 455.82L115.45 458.09L114.03 459.15L112.2 459.28L107.4 458.47L105.39 456.51L105.36 453.1L108.34 448.18L111.97 444.9L114.03 443.94L116.38 441.84L117.45 438.59L118.19 433.08L120.86 431.66L123.01 426.69L127.3 423.25L129.62 423.23L132.13 424.47L135.04 426.69L136.85 426.72L137.49 425.46L137.26 423.83L137.67 421.72L137.21 417.74L138.77 411.2L139.61 410.63L145.47 409.04L144.85 406.64L149.4 405.19L157.18 405.62L164.15 405.31L165.7 405.84L167.12 408.05L168.15 411.24L167.99 412.1L169.08 414.79L171.36 415.38L176.89 411.88L179.93 407.45L181.64 403.53L183.34 395.43L184.47 393.29L186.87 390.81L189.05 389.36L189.9 387.3L191.76 386.92L193.26 388.16L194.08 387.86L195.57 385.42Z" fill="#CCCCCC" stroke="white" stroke-width="0.5"/>
    <path d="M117.83 368.16L126.1 368.38L128.7 368.07L132.25 366.46L132.61 366.37L132.79 367.22L132.71 366.34L135.36 366.72L140.1 365.02L142.28 365.6L143.76 368.77L147.25 368.64L148.92 367.84L149.31 368.38L147.79 373.68L145.8 375.32L143.62 376.26L142 377.76L140.1 382.01L139.98 383.41L140.79 386.22L139.6 390.21L140.29 394.99L143.14 401.1L143.98 404.89L144.81 406.59L145.43 409L139.57 410.58L138.73 411.16L137.17 417.7L137.63 421.68L137.23 423.79L137.46 425.42L136.82 426.68L135.01 426.65L132.1 424.43L129.59 423.19L127.27 423.2L122.99 426.65L120.84 431.61L118.17 433.04L118.47 432.03L118.16 431.9L114 432.16L111.88 433.08L110.73 432.39L109.63 432.41L106.57 434.37L103.6 427.26L100.21 426.67L96.3602 428.65L94.3902 428.66L93.8002 424.38L93.2802 423.54L92.3402 423.15L90.9402 424.26L88.2002 425.34L90.5402 415.5L90.9702 410.21L92.6402 401.49L91.7702 401L88.7202 396.12L85.6102 393.79L85.3402 392.86L85.2002 391.98L86.3502 390.89L87.1302 389.13L88.0002 379.86L88.6002 379.58L92.9002 380.92L95.2202 380.17L96.0002 379.18L96.1302 376.88L97.1902 376.31L100 372.99L103.01 374.83L106.6 380.39L108.73 379.46L109.38 378.03L111.43 376.87L112.41 375.48L112.69 375.87L114.52 374.36L116.81 373.6L117.06 373.98L118.05 372.64L118.36 371.36L117.83 368.16Z" fill="#CCCCCC" stroke="white" stroke-width="0.5"/>
    <path d="M6.03035 337.16L9.22035 334.38L12.3904 334.36L16.4704 333.64L17.9704 332.85L18.1604 331.86L22.0704 328.42L23.7304 327.76L30.6604 322.23L33.2304 321.96L33.9203 322.15L34.8304 323.28L35.2803 323.17L35.8104 323.92L36.7404 323.77L43.7404 320.51L46.7504 318.3L47.8804 318.04L50.3703 316.1L56.1604 312.8L62.8004 309.88L67.2204 306.45L67.6703 305.34L67.6904 302.69L69.3803 298.98L73.2003 296.9L75.2403 296.81L79.3204 299.27L79.8604 301.75L81.5504 303.79L84.8004 306.21L90.5004 307.95L92.9004 309.49L94.0004 309.36L97.8304 310.44L100.04 310.36L102.87 308.56L104.18 309.34L104.34 310.64L102 313.8L98.8403 315.89L98.2703 316.48L97.9203 318.08L95.8403 319.63L94.8103 324.13L95.6204 325.71L96.9404 331L98.6003 332.91L101.6 340.02L103.57 342.65L104.36 345.42L104.45 347.52L105.67 350.96L108.62 355.2L112.08 357.45L112.11 358.25L112.89 358.91L113.28 361.68L115.18 366.49L115.89 367.43L117.34 367.5L117.83 368.16L118.36 371.36L118.05 372.64L117.06 373.98L116.81 373.6L114.52 374.36L112.69 375.87L112.41 375.48L111.43 376.87L109.38 378.03L108.73 379.46L106.6 380.39L103.01 374.83L100 372.99L97.1904 376.31L96.1303 376.88L96.0004 379.18L95.2204 380.17L92.9004 380.92L88.6003 379.58L88.0004 379.86L87.1303 389.13L86.3503 390.89L85.2003 391.98L85.3403 392.86L85.6104 393.79L88.7204 396.12L91.7703 401L92.6404 401.49L90.9704 410.21L90.5404 415.5L88.2003 425.34L82.3103 426.22L80.8004 427.59L77.6204 428.83L74.5804 428.7L71.8803 429.28L65.7904 429.53L65.4203 429.25L65.7504 428.12L69.7204 424.11L69.3103 421.24L68.2104 418.54L68.3103 416.32L67.6703 415.22L64.6903 414L64.2803 413.29L63.9504 407.63L62.7803 405.74L56.5804 405.52L54.1104 406.12L52.9804 407.23L51.9604 407.49L50.3703 406.36L48.6203 402.02L46.0204 401.73L44.4004 403.21L43.2603 407.45L40.4804 411.42L38.7404 411.91L34.6903 411.63L32.3504 410.5L29.3404 408.14L26.1404 403.63L25.1204 400.59L22.0704 398.12L19.9504 395.61L19.4304 391.95L19.9404 391.38L20.3504 391.62L22.0904 385.64L22.2504 382.55L21.7104 380.8L20.8304 380.19H19.4604L18.9904 380.64L18.4204 381.89L17.4804 387.45L16.6404 387.32L15.3304 385.15L14.7704 382.79L14.6204 376.31L14.2104 374.88L12.9704 373.09L11.0704 372.16L7.58035 372.37L1.61035 376.66L2.68035 374.58L3.41035 370.28L4.74035 366.13L4.44035 365.01L4.81035 362.31L5.94035 360.05L6.30035 357.16L3.86035 354.1L2.69035 350.11L2.77035 348.09L3.82035 346.22L3.38035 344.17L3.86035 343.47L5.11035 343.17L6.48035 340.29L6.05035 339.85L6.78035 338.88L6.79035 337.81L6.03035 337.16Z" fill="#CCCCCC" stroke="white" stroke-width="0.5"/>
    <path d="M379.65 224.77L381.18 224.28L384.36 224.36L387.14 225.24L389.75 229.4L390.53 234.2L390.49 246.58L401.46 244.39L402.52 244.6L404.32 246.52L405.29 249.65L405.55 255.59L405.32 256.76L402.94 261.23L402.85 262.92L403.45 263.77L407.37 265.19L408.16 265.9L409.06 267.06L410.71 271.13L412.27 272.47L413.78 273L418.58 273.27L424.05 274.75L434.09 274.16L438.48 272.75L441.37 267.54L446.13 266.24L446.63 264.57L446.36 262.83L443.19 258.77L443.49 257.33L446.52 255.55L454.12 259.5L456.69 260.01L465.95 264.94L477.02 269.68L483.2 273.72L489.56 277.15L491.12 281.09L491.33 283.24L490.82 287.32L491.58 293.28L493.88 297.14L494.93 303.16L494.38 304.49L494.68 306.74H495.11L495.32 312.28L493.54 315.36L481.36 321.22L479.46 321.11L469.94 323.21L467.45 324.65L465.39 328.84L460.65 334.56L453.54 338.32L445.86 345.97L443.43 347.16L439.02 348.17L434.91 348.71L431.06 348.46L429.6 345.78L427.08 343.71L416.72 339.38L406.96 342.17L398.77 342.32L395.11 341.02L389.96 338.31L388.52 336.24L388.82 330.83L388.5 329.59L386.41 327.16L385.77 325.44L386.09 323.19L387.64 321.83L389.19 318.97L390.65 317.92L392.06 317.72L394.17 315.74L396.87 311.73L397.66 308.8L395.65 306.59L394.61 306.03L391.84 307.38H388.14L382.82 306.82L380.66 305.84L378.73 302.43L378.1 297.95L376.02 297.1L373.6 296.99L371.91 295.34L373.58 291.4L373.46 287.99L372.46 285.9L370.75 284.69L368.18 281.61L364.92 276.33L364.82 275.17L365.87 273.77L365.66 269.03L367.42 267.75L367.82 264.67L369.73 263.12L370.15 262.05L369.62 259.95L370.32 252.14L370.14 250.17L370.48 249.07L372.87 247.1L372.12 243.58L370.76 240.76L370.98 238.05L373.11 233.08L375.01 231.68L377.2 230.95L378.52 229.39L379.07 227.96L379.28 225.06L379.65 224.77Z" fill="#CCCCCC" stroke="white" stroke-width="0.5"/>
    <path d="M278.37 585.84L276.91 587.23L276.93 588L276.31 587.76L276.53 586.34L277.97 585.52L278.37 585.84ZM275.23 584L273.51 583.02L272.96 583.17L272.41 583.32L272.2 582.63L273.06 581.84L272.75 581.17L273.06 580.52L272.99 579.47L272.42 578.66L271.51 578.49L271.29 578.65L270.58 576.95L270.31 576.78L270.45 576.32L269.59 575.46L269.32 575.82L268.36 575.97L268.17 576.79L268.74 577.82L269.24 578.87L269.65 580.91L269.17 580.68L268.72 581.31L269.79 584.79L269.65 586.06L270.82 590.1L270.58 590.32L271.35 590.78L273.41 590.35L273.81 589.9L273.94 589.32L275.69 589.81L275.72 587.58L276.39 586.02L275.23 584ZM271.43 573.74L271.84 574.2L274.02 574.29L274.21 573.38L273.8 573.07L272.11 573.37L271.43 573.74ZM272.7 571.28L273.06 572.41L273.58 572.6L273.29 570.7L272.7 571.28ZM279.9 581.02L278.46 578.16L277.46 577.46L275.83 576.65L275.56 576.53L274.72 577.18L275.37 577.27L276.68 578.4L276.82 578.61L276.59 579.07L277.11 580L277.23 581.92L278.52 583.12L279.43 583.29L280.1 581.88L279.9 581.02ZM285.82 587.14L283.74 584.52L282.43 586.15L283.22 586.94L284.03 586.7L284.41 587.61H285.17L285.39 588.23L286.56 587.73L287.64 588.81L289.5 587.32L288.88 586.77L285.82 587.14ZM265.91 580.53L264.79 581.06L264.51 582.38L265.65 582.78L267.09 583.86L268.12 586.14L267.83 582.78L267.47 582.63L267.73 581.14L265.91 580.53ZM284.04 583.09L281.67 581.47L280.12 579.12L280.09 578.85L279.61 577.15L279.13 577.58L278.73 577.22L279.16 576.55L279.13 575.06L279.01 574.99L278.44 576.84L276.19 576.14L275.66 576.04L274.78 574.96L274.71 573.44L274.35 573.15L274.28 572.69L274.02 572.52L273.87 571.87L274.37 571.08L273.39 569.86L272.58 570.39L272.24 571.28L272.89 572.82L270.83 573.59L270.42 573.95L269.49 574.33L268.97 574.38L267.97 575.15L267.51 575.77L267.42 574.26L266.84 575L266.62 575.51L267.62 577.16L268.17 579.61L266.86 580.06L266.33 580.27L264.95 578.66L264.24 576.76L262.79 574.35L261.29 573.84L261.85 572.29L261.17 570.07L262.15 569.26L262.5 568.78L261.97 568.11L260.16 567.87L258.35 566.76L258.07 568.35L257.18 568.92L256.85 568.15L255.58 568.01L255.24 567.67L254.6 567.86L253.83 567.89L253.21 567.02L253.02 566.88L252.47 567.29L252.66 568.28L252.52 568.61L252.98 568.92L254.25 570.19L254.13 571.72L255.11 576.36L258.33 579.67L258.35 580.85L256.54 582.31L256.44 582.89L258.26 589.45L258.81 592.77L261.22 595.25L260.93 595.58L253.69 596.27L251.45 595.52L251.36 592.81L251.12 590.27L251.26 589.81L251.23 589.64L250.77 586.93L250.58 586.18L252.52 582.51L252.33 579.84L251.66 579.99L250.98 580.09L247.02 577.49L245.82 573.11L244.44 571.24L242.45 571.22L235.91 573.76L234.87 573.5L234.52 571.56L234.94 570.1L231.63 568.66L231.13 567.83L231.2 563.49L233.1 560.82L233.86 558.77L233.89 557.5L232.6 557.66L231.76 556.88L233.09 552.44L237.58 544.6L240.35 544.77L240.9 544.27L241.65 541.78L243.19 540.99L242.96 539.18L244.54 538.11L245.49 536.63L245.46 534.69L244.83 533.15L244.07 532.57L242.15 531.74L239.21 532.23L238.17 531.95L237.6 530.91L237.81 530.47L241.33 528.66L241.52 523.36L242.22 521.88L244.27 520.46L245.16 518.71L245.98 515.53L244.89 511.99L245.12 511.64L246.23 512.92L248.63 513.13L245.88 526.21L247.39 526.65L250.86 525.98L252.98 526.76L253.42 528.42L252.9 533.04L251.81 535.8L252.07 537.17L253.91 538.47L255.63 541.88L257.79 543.53L259.93 543.94L266.65 543.8L271.35 544.92L275.5 543.85L277.63 543.82L282.14 544.95L284.71 544L285.26 544.05L285.92 545.77L285.98 548.55L283.58 552.74L280.17 557.07L278.8 560.78L278.64 561.87L279.24 562.98L280.69 564.39L282.49 564.66L285.62 564.07L286.73 563.43L289.52 563.31L292.8 564.53L294.61 564.11L297.55 565.51L299.9 567.3L301.85 570.79L302.48 573.09L301.52 577.36L302.1 581.91L301.59 582.23L301.55 582.87L302.16 584.04L300.94 584.81L300.1 584.09L299.93 583.11L298.71 582.84L298.16 582.58L297.9 583.04L296.51 584.22L295.93 583.98L295.67 583.62L295.29 583.6L294.58 583.99L293.08 581.63L291.81 582.59L290.88 582.23L289.28 581.73L288.63 580.7L287.96 580.89L287.22 580.03L286.6 580.54L286.41 581.33L285.52 581.66L285.86 582.74L286.13 583.77L286.37 584.37L287.15 584.97L287.92 584.73L288.49 584.81L289.35 584.5L289.18 586.25L287.41 586.42L285.97 586.95L285.23 585.75L285.13 585.42L284.08 584.25L283.93 583.31L284.04 583.09ZM305.56 587.4L304.87 587.01L304.44 586.98L303.56 586.62L303.54 586.6L303.14 586.24L302.72 586.7L302.4 586.57L302.75 586.03L301.87 584.54L300.97 585.07L299.93 584.17L299.57 583.83L299.4 583.32L298.01 583.33L297.75 583.61L296.52 584.48L295.19 584.43L294.73 584.47L294.3 584.24L293.67 583.61L293.14 583.3L293.05 582.49L291.81 582.83L290.78 582.85L290.8 582.43L289.55 582.09L288.64 581.63L287.3 581.54L286.82 581.78L286.59 582.36L286.57 583.15H288.29L288.38 583.23L289.55 584.3L289.78 584.97L290.14 586.34L290.98 586.65L291.14 586.25L291.48 586.53L292.55 586.56L292.61 586.78L290.77 587.52L290.34 587.67L289.65 590.07L295.12 590.84L299.3 589.92L305.23 589.78L305.04 588.56L305.56 587.4ZM256.88 569.33L257.67 569.16L258.59 568.37L258.67 567.25L259.96 568.15L261.56 568.78L260.6 569.95L261.03 571.8L261.3 572.12L261.27 572.7L260.67 573.64L260.89 574.28L261.9 574.59L263.16 575.94L265.23 580.3L264.3 580.91L263.88 581.75L264.03 582.66L267.18 584.51L267.78 587.41L268.66 588.73L268.54 590.12L269.02 591.73L270.5 592.86L269.38 594.25L268.42 594.61L267.56 594.11L266.96 594.52L260.58 593.13L259.77 590.59L260.3 589.97L259.7 589.99L258.34 586.1L257.53 584.2L257.63 582.14L259.26 580.58L259.09 579.23L257.28 577.57L255.59 576.42L254.83 572.36L254.54 571.78L254.56 569.96L253.79 568.88L255.03 568.14L255.91 568.77H256.58L256.88 569.33Z" fill="#CCCCCC" stroke="white" stroke-width="0.5"/>
    <path d="M179.08 1.5L191.96 7.18L212.49 14.43L216.49 16.78L221.13 15.29L224.78 15.27L233.32 19.39L249.2 34.95L255.18 45.37L252.15 47.97L245.05 51.97L235.54 50.69L233.64 50.03L231.94 47.98L229.67 47.3L224.7 47.11L224.11 52.59L223.38 54.48L222.88 54.7L220.18 53.26H217.39L212.54 54.82L210.43 56.64L210.32 57.34L211.1 62.48L211.17 70.92L209.82 71.92L205.78 73.56L195.76 74.35L189.67 75.3L183.84 83.88L181.96 85.75L178.89 87.66L178.95 90.54L180.38 95.18L181.03 99.43L180.29 102.46L177.83 104.16L171.72 104.69L170.44 104.4L165.64 105.04L163 104.73L158.53 105.06L149.2 103.39L148.28 103.99L147.35 108.5L147.45 126.71L146.79 140.49L145.17 141.46L144.23 141.39L143.46 139.64L141.42 140.36L139.53 139.5L137.84 139.62L125.84 145.07L123.44 148.07L121.73 149.42L118.95 149.13L118.19 148.62L115.64 144.97L116.8 140.2L119.41 134.57L121.53 124.78L120.74 111.73L120.88 101.79L121.89 98.01L123.17 96.53L127.12 95.35L129.8 95.33L132.97 97.37L133.99 97.33L134.63 95.77L134.87 87.75L133.19 82.23L133.15 80.19L134.45 74.13L134.63 70.81L132.83 66.53L130.97 64.38L131.39 60.68L132.81 57.7L132.72 55.3L134.34 51.37L133.94 50.12L132.86 49.24L131.7 49.55L129.21 53.24L128.58 53.8L126.76 54.23L123.7 53.55L120.75 51.48L111.19 48.36L110.13 47.26L106.94 45.44L105.29 43.32L104.53 43.01L99.8999 44.59L98.0399 43.85L91.4199 43.99L91.5099 27.55L95.6499 27.53L112.21 12.95L137.33 7.94L139.74 10.08L145.45 10.56L151.9 9.84L156.75 10.4L162.08 10.24L167.33 3.98L177.93 1" fill="#CCCCCC"/>
    <path d="M179.08 1.5L191.96 7.18L212.49 14.43L216.49 16.78L221.13 15.29L224.78 15.27L233.32 19.39L249.2 34.95L255.18 45.37L252.15 47.97L245.05 51.97L235.54 50.69L233.64 50.03L231.94 47.98L229.67 47.3L224.7 47.11L224.11 52.59L223.38 54.48L222.88 54.7L220.18 53.26H217.39L212.54 54.82L210.43 56.64L210.32 57.34L211.1 62.48L211.17 70.92L209.82 71.92L205.78 73.56L195.76 74.35L189.67 75.3L183.84 83.88L181.96 85.75L178.89 87.66L178.95 90.54L180.38 95.18L181.03 99.43L180.29 102.46L177.83 104.16L171.72 104.69L170.44 104.4L165.64 105.04L163 104.73L158.53 105.06L149.2 103.39L148.28 103.99L147.35 108.5L147.45 126.71L146.79 140.49L145.17 141.46L144.23 141.39L143.46 139.64L141.42 140.36L139.53 139.5L137.84 139.62L125.84 145.07L123.44 148.07L121.73 149.42L118.95 149.13L118.19 148.62L115.64 144.97L116.8 140.2L119.41 134.57L121.53 124.78L120.74 111.73L120.88 101.79L121.89 98.01L123.17 96.53L127.12 95.35L129.8 95.33L132.97 97.37L133.99 97.33L134.63 95.77L134.87 87.75L133.19 82.23L133.15 80.19L134.45 74.13L134.63 70.81L132.83 66.53L130.97 64.38L131.39 60.68L132.81 57.7L132.72 55.3L134.34 51.37L133.94 50.12L132.86 49.24L131.7 49.55L129.21 53.24L128.58 53.8L126.76 54.23L123.7 53.55L120.75 51.48L111.19 48.36L110.13 47.26L106.94 45.44L105.29 43.32L104.53 43.01L99.8999 44.59L98.0399 43.85L91.4199 43.99L91.5099 27.55L95.6499 27.53L112.21 12.95L137.33 7.94L139.74 10.08L145.45 10.56L151.9 9.84L156.75 10.4L162.08 10.24L167.33 3.98L177.93 1" stroke="white" stroke-width="0.5"/>
    <path d="M489.56 277.15L494.15 274.5L500 275.28L510.59 270.43L517.03 271.52L521.02 271.55L524.59 272.26L530.49 271.66L542.95 271.68L549.32 271.21L554.77 281.39L556.23 283.31L560.88 284.39L562.96 285.68L568.22 295.5L567.76 297.67L568.1 301.51L570.76 304.45L574.9 305.92L576.92 309.76L577.18 311.57L576.18 315.19L570.19 326.63L570.57 332.41L570.13 334.49L564.01 339.71L555.38 351.23L550.3 356.71L546.5 359.93L542.36 364.71L541.54 366.29L544.06 373.02L546.97 377.72L549.68 380.17L552.4 378.18L555.23 374.17L556.87 373.79L558.29 374.22L559.81 375.34L562.31 378.49L566.63 382.33L568.78 384.93L569.82 386.95L569.24 392.44L569.98 394.17L570.36 397.71L572.3 402.33L572.25 403.89L573.47 404.77L568.53 410.25L567.44 412.19L566.55 415.11L566.93 421.03L567.85 424.35L569.18 426.47L569 427.76L568.02 428.49L563.98 428.14L563.3 428.6L561.24 428.66L561.06 430.3L559.34 431.05L557.8 432.98L555.89 433.41L554.8 437.62L552.68 438.27L551.31 440.99L551.37 441.49L552.31 441.44L552.77 441.88L552.86 443.65L553.74 443.76L553.93 444.65L552.94 445.08L552.32 446.23L553.26 447.75L553.18 448.79L551.26 449.9L551.04 453.12L549.58 454.56L549.01 456.47L547.2 457.25L545.43 456.42L544.83 456.96L543.59 457.11L543.13 457.75L543.59 458.63L543.41 460.36L542.97 460.86L539.22 461.54L538.8 461.76L538.6 463.13L537.23 462.95L534.2 460.92L531.95 461.93L531.28 461.23L528.27 460.57L526.85 459.35L526.27 459.4L525.05 460.81L523.02 460.73L523.26 452L521.23 449.84L518.99 449.73L516.63 451.87L513.79 451.39L511.93 450.54L510.5 447.16L509.32 444.97L508.1 444.16L506.93 444.09L505.62 441.98L505.5 441.25L507.16 436.46L504.5 434.62L503.01 434.42L502.41 435.16L500.72 433.01L499.69 432.93L498.19 431.32L497.42 431.25L497.06 429.73L495.81 429.1L495.41 429.56L493.94 429.2L492.09 427.62L492.61 425.69L492.21 423.6L490.56 422.29L489.8 427.05L489.88 429.94L488.49 435.96L487.61 436.96L485.94 437.53L485.6 438.4L484.96 438.51L484.02 437.54L468.33 439.06L465.69 435.98L466.31 434.23L465.46 432.17L465.27 430.99L465.34 430.18L464.45 429.86L456.25 437.26L455.61 438.38L453.17 440.1L452.05 441.94L447.43 446.57L446.09 445.85L443.89 445.75L442.29 445.53L441.49 444.92L440.59 447.05L440.89 447.84L440.13 448.81L439.75 450.61L440.11 452.64L439.83 453.71L439.23 454.08L438.21 456.9L436.86 462.27L436.36 462.66L435.68 462.32L434.36 462.69L433.33 461.37L432.89 461.83L434.79 453.64L434.82 444.88L435.15 443.8L434.54 443.07L436.65 431.57L439.96 425.41L443.4 422.16L446.49 420.22L447.41 418.79L447.12 412.87L449.5 406.98L450.09 403.75L449.53 401.97L449.79 400.93L448.62 399.57L448.76 398.92L440.39 391.35L435.95 385.7L430.81 380.8L423.33 379.03L415.15 378.55L407.68 379.5L401.56 382.13L399.66 381.56L403.45 375.59L404.66 374.2L415.89 366.99L416 365.8L415 363.12L415.54 362.47L415.19 359.59L413.16 357.08L411.45 355.72L412.18 352.86L413.51 350.72L414.79 349.86H416.65L418.38 350.76L419.38 351.83L420.9 351.6L421.23 352.01L425.74 352.96L428.48 352.14L431.06 348.46L434.91 348.71L439.02 348.17L443.43 347.16L445.86 345.97L453.54 338.32L460.65 334.56L465.39 328.84L467.45 324.65L469.94 323.21L479.46 321.11L481.36 321.22L493.54 315.36L495.32 312.28L495.11 306.74H494.68L494.38 304.49L494.93 303.16L493.88 297.14L491.58 293.28L490.82 287.32L491.33 283.24L491.12 281.09L489.56 277.15Z" fill="#CCCCCC" stroke="white" stroke-width="0.5"/>
    <path d="M527.07 33.72L539.52 33.91L549.08 35.11L559.84 39.29L571.53 41.84L574.26 43.35L580.35 48.52L585.13 51.52L586.71 51.66L587.01 50.84L588.01 50.56L589.66 51.21L590.28 50.69L589.73 49.51L591.22 49.67L592.92 50.61L594.58 50.19L595.41 50.9L596.04 51.97L597.08 51.35L599.93 51.96L600.67 52.46L601.6 52.58L602.59 52.57L602.51 56.78L601.02 64.8L602.25 68.65L603.7 70.47L608.5 74.31L608.98 78.05L607.14 82.26L604.77 85.34L597.71 91.65L597.16 93.85L598.88 97.68L598.83 103.47L596.29 119.76L596.16 123.26L597.85 130.7L593.13 139.84L593.28 141.78L593.92 142.14L598.83 141.93L601.96 145.68L602.8 149.01L601.81 151.12L597.27 155.55L593.97 161.45L591.08 164.8L590.18 167.66L590.22 170.63L590.98 174.78L590.74 177.72L588.65 180.8L582.54 184.45L571.33 187.47L568.67 189.39L566.95 192.22L566.34 194.99L566.62 203.38L563.21 207.91L560.17 208.6L553.39 208.61L553.09 208.1L552.32 201.65L553.52 189.8L552.85 184.93L549.17 181.55L547.59 182.57L548.59 181.03L545.17 177.45L540.42 171.05L531.93 164.79L529.75 163.5L526.77 162.49L522.73 162.32L518.56 163.83L517.65 164.71L514.61 164.34L512.98 162.81L513.97 156.03L515.02 153.31L515.25 148.39L506.9 127.48L506.7 123.61L505.75 120.9L505.42 118.2L505.21 111.46L502.05 106.8L502.24 104.99L501.47 97.91L500.33 94.98L492.59 88.79L491.72 85.89L489.96 74.36L487.75 70.96L485.9 70.08L483.87 70.69L478.88 68.47L473.02 70.33L471.9 71.05L470.44 68.52L469.75 64.17L467.62 59.39L465.41 58.14L459.08 60.1L456.26 61.47L453.1 62.1L447.78 64.69L445.68 68.68L442.54 70.48L436.54 69.75L434.75 68.57L442.13 61.07L445.38 56.47L449.46 52.96L454.65 47.11L458.63 44.57L467.68 40.51L483.74 39.57L496.29 34.87L515.87 33.8L527.07 33.72Z" fill="#CCCCCC" stroke="white" stroke-width="0.5"/>
    <path d="M259.24 51.54L264.69 58.06L269.77 57.95L273.11 57.34L271.67 68.16L272.66 74.33L272.59 80.38L273.59 85.55L273.98 90.3L275.29 93.51L274.89 97.08L277.39 102.28L278.08 105.33L277.95 107.01L278.9 109.48L277.81 114.64L275.99 118.27L277.25 119.48L279.78 120.64L282.46 122.93L283.62 124.36L284.12 126.31L282.23 127.93L278.89 127.12L278.34 130.32L273.46 134.29L272.18 133.42L265.57 133.55L264.07 134.39L263.42 138.39L261.86 142.53L261.41 146.29L261.57 147.36L263.48 149.26L264.38 152.95L263.13 159.05L263.11 161.38L262.1 161.35L259.76 163.73L257.01 165.5L256.16 166.64L254.45 170.05L253.81 173.6L252.3 176.83L249.26 179.93L246.93 181.44L242.22 182.06L234.28 181.49L228.64 182.44L223.37 187.15L220.51 191.31L219.23 192.07L217.55 192.19L217.62 191.35L216.03 187.26L212.23 180.62L208.91 176.22L208.7 170.74L207.32 163.16L205.39 160.15L200.01 157.44V156.24L202.06 149.75L202.07 147.28L200.66 145.13L196.31 143.36L191.46 142.74L190.24 143.55L187.75 144.14L183.96 143.64L178.49 144.4L174.84 141.99L171.97 141.88L170.28 138.58L169.2 138.01L165.59 138.66L163.5 138.35L162.59 137.71L161.8 137.86L160.74 138.48L159.92 140.8L153.58 142.26L149.47 140.01H147.65L146.79 140.49L147.45 126.71L147.35 108.5L148.28 103.99L149.2 103.39L158.53 105.06L163 104.73L165.64 105.04L170.44 104.4L171.72 104.69L177.83 104.16L180.29 102.46L181.03 99.43L180.38 95.18L178.95 90.54L178.89 87.66L181.96 85.75L183.84 83.88L189.67 75.3L195.76 74.35L205.78 73.56L209.82 71.92L211.17 70.92L211.1 62.48L210.32 57.34L210.43 56.64L212.54 54.82L217.39 53.26H220.18L222.88 54.7L223.38 54.48L224.11 52.59L224.7 47.11L229.67 47.3L231.94 47.98L233.64 50.03L235.54 50.69L245.05 51.97L252.15 47.97L255.18 45.37L259.24 51.54Z" fill="#CCCCCC" stroke="white" stroke-width="0.5"/>
</svg>
