<?xml version="1.0" encoding="UTF-8" standalone="no"?>
<svg xmlns:dc="http://purl.org/dc/elements/1.1/"
   xmlns:cc="http://creativecommons.org/ns#"
   xmlns:rdf="http://www.w3.org/1999/02/22-rdf-syntax-ns#"
   xmlns:svg="http://www.w3.org/2000/svg"
   xmlns="http://www.w3.org/2000/svg"
   xmlns:sodipodi="http://sodipodi.sourceforge.net/DTD/sodipodi-0.dtd"
   xmlns:inkscape="http://www.inkscape.org/namespaces/inkscape" version="1.0" width="1070" height="950" viewBox="0 0 802.50003 712.5" preserveAspectRatio="xMidYMid meet" id="svg4" sodipodi:docname="Nigeria States Map.svg" inkscape:version="1.0.2-2 (e86c870879, 2021-01-15)">
   <metadata id="metadata10">
      <rdf:RDF>
         <cc:Work rdf:about="">
            <dc:format>image/svg+xml</dc:format>
            <dc:type rdf:resource="http://purl.org/dc/dcmitype/StillImage" />
            <dc:title />
         </cc:Work>
      </rdf:RDF>
   </metadata>
   <defs id="defs8" />
   <sodipodi:namedview pagecolor="#ffffff" bordercolor="#666666" borderopacity="1" objecttolerance="10" gridtolerance="10" guidetolerance="10" inkscape:pageopacity="0" inkscape:pageshadow="2" inkscape:window-width="1360" inkscape:window-height="705" id="namedview6" showgrid="false" inkscape:zoom="0.39960446" inkscape:cx="18.523274" inkscape:cy="508.98356" inkscape:window-x="-8" inkscape:window-y="-8" inkscape:window-maximized="1" inkscape:current-layer="svg4" units="px" inkscape:document-rotation="0" />
   <g id="g153" transform="matrix(1.0174222,0,0,1.0195689,-1.6434541,-5.7070511)" style="stroke-width:1.84095166;stroke-miterlimit:4;stroke-dasharray:none">
      <g transform="matrix(0.1,0,0,-0.1,0,714)" fill="#000000" stroke="none" id="g2" style="stroke-width:18.40951663;stroke-miterlimit:4;stroke-dasharray:none" />
      <path style="fill:none;stroke:#000000;stroke-width:1.84095166;stroke-linecap:butt;stroke-linejoin:miter;stroke-opacity:1;stroke-miterlimit:4;stroke-dasharray:none" d="m 89.854479,38.24094 v 11.495743 l 1.642245,0.234606 0.234607,23.695306 -1.759552,10e-7 -0.1173,4.45753 -29.091268,28.856664 -0.469214,55.13264 -12.199563,23.69531 v 10.32271 l 16.657096,15.95328 h 1.876856 l -0.469214,11.26113 0.03182,0.94039 h 1.493029 l 0.165893,9.45585 2.156599,0.16589 v 9.78765 l 2.156598,0.33178 -0.165892,12.11013 -2.156599,0.16589 v 3.64963 H 57.564593 l 0.165892,39.81413 -15.427974,10.28532 -0.165893,9.78763 -11.612453,10.28532 -0.248839,11.86129 h -2.073652 v 14.26673 l -5.806227,5.47444 -3.981412,0.33178 -11.6954003,5.88918 -0.2488383,21.64894 -0.082946,8.37755 -0.082946,1.99071 -2.4883829,0.0829 0.1658922,19.99001 -1.9907064,-0.0829 v 43.87849 h 1.9077603 l 0.2488383,82.11664 0.082946,5.88917 97.9093181,0.7089 c 0,0 0.18267,-0.13134 3.08049,1.24299 1.84041,0.87284 1.09154,1.80616 3.0246,3.77144 4.97677,5.05971 8.62639,6.63569 8.62639,6.63569 l 3.069,-0.0829 0.1659,1.65891 4.31319,4.06437 3.15196,0.0829 5.2256,5.47444 h 2.98606 l 4.72793,5.97212 3.40079,0.33178 0.0829,2.23955 1.90776,-0.0829 0.0829,2.07365 1.82482,0.12442 0.0829,1.74186 h 1.70039 l 4.72794,4.35468 -0.12442,3.48373 1.70039,0.16589 0.20737,7.71399 1.65892,0.49767 v 5.64034 l 10.45121,10.11942 h 3.64963 l 4.64498,1.99071 -0.33179,2.1566 1.99071,0.33178 -0.1659,9.62175 -2.48838,0.16589 0.33179,4.14731 1.9907,-0.33179 0.33179,1.99071 h 3.98141 l 0.16589,16.25743 13.76906,24.38615 22.22955,21.4001 h 9.28996 l 0.33179,2.1566 h 8.12872 l -0.33179,-5.97212 2.48838,-0.33179 -0.33178,-2.15659 35.66682,0.49768 0.1659,-2.48839 h 2.82016 l -0.33178,-1.82481 h 5.80623 l 0.16589,-1.49303 5.80622,-0.33179 0.33179,-2.32249 2.98605,0.33179 0.49768,2.15659 3.98141,-0.16589 v 1.82482 l 2.3225,0.16589 -0.16589,2.32249 11.77834,-0.16589 -0.16589,-2.32249 14.7644,0.33178 -0.49768,-5.97212 h 2.3225 v -1.82482 l 23.88847,-0.16588 0.1659,-1.99071 21.40008,-0.16589 0.49768,-1.99071 h 21.4001 l 0.33178,4.31319 4.3132,-0.16588 -0.16589,-1.65893 2.32249,-0.49767 0.16589,-33.67612 13.60316,-13.10548 -0.16589,-27.04043 6.63568,-4.81088 V 601.691 l -3.81552,-2.48839 -0.82945,-3.15195 -3.64964,-2.82017 -0.33177,-8.62639 2.48838,-0.33179 -0.49768,-2.65427 3.48373,0.16589 0.66357,-1.65892 24.71794,-24.05437 2.48838,-0.33179 0.82946,-1.65891 1.99071,-0.33179 v -1.49303 l 1.99071,-0.33179 0.49767,-1.82481 h 1.16125 l 0.49768,-1.99071 1.16124,0.1659 0.99535,-0.33179 -0.16589,-5.14266 3.64963,-0.16589 0.16589,-2.98606 h 3.98141 l 6.13802,-6.13801 v -17.75046 l 7.79693,0.49767 0.33179,-2.32249 3.64962,0.33178 0.33179,-1.9907 3.48373,-0.33178 8.6264,-8.46051 -0.16589,-3.48373 1.82481,0.33178 0.23133,-2.14291 7.39011,-0.29326 0.46922,1.99416 3.87101,-0.0587 -0.17596,1.8182 13.66587,-0.0587 0.2346,-1.5836 1.93551,-0.1173 0.0587,-3.98832 2.34614,0.11714 0.16589,-4.64499 h 2.32249 l -0.33179,-1.65892 8.12872,0.33178 20.73653,21.56599 h 3.48373 l 5.30856,4.64498 8.12871,5.30856 8.12872,6.63568 0.49768,2.32249 1.49303,-0.33179 0.16589,-2.32248 3.48374,-3.48374 4.1473,0.16589 0.1659,-2.32249 1.9907,-0.33179 v -2.15659 l 2.32249,0.16589 -0.66357,-6.13801 1.99071,0.33178 0.66357,-8.12872 h 1.49303 l 0.33178,-7.79693 1.49303,-0.16589 0.33178,-7.63104 1.82482,-0.33179 0.16589,-2.15659 5.64033,0.33178 0.33179,-2.65428 h 3.31784 l 0.16589,-5.30854 -1.49302,-0.33179 0.16589,-7.96282 -1.99071,-0.16589 -0.16589,-5.97213 h 1.49303 v -1.65891 l 4.64498,0.16589 -0.16589,-4.14731 h 4.14731 l 0.16589,-1.99071 1.9907,-0.33178 v -1.49303 l 1.99071,-0.16589 v -2.1566 l 1.65892,-0.16589 v -10.28532 l 4.1473,-2.82017 v -2.48838 l 2.15661,-0.16589 v -3.48374 l 1.82481,-0.49767 -0.1659,-3.98142 2.98607,-0.66357 -0.33179,-3.31784 1.65892,-0.33178 v -3.48374 l 2.3225,-0.16589 -0.1659,-3.81552 2.32249,0.33178 -0.49768,-32.34897 1.49304,-0.33179 0.16589,-1.65892 36.1645,-27.04043 v -31.18773 l 4.31319,-5.97212 3.64963,-8.12872 2.1566,-3.64963 2.1566,-2.32249 5.80623,-1.99071 4.3132,-2.65427 4.97676,-1.32714 0.82946,-30.35827 h -1.9907 l -0.1659,-3.98141 5.80623,-3.81553 8.4605,-2.98605 1.49303,-11.11478 1.82481,-7.13336 2.48839,-10.45121 1.9907,-8.29461 1.82482,-7.96283 1.9907,-10.11942 5.64034,-6.13801 6.3039,-9.62175 7.79693,-8.12872 2.32249,-6.13801 2.15663,-1.9907 4.31317,-0.1659 1.32713,1.99071 5.80627,0.33178 0.1659,-2.15659 7.79693,-3.64963 5.8062,-4.64498 5.9721,-4.14731 2.15662,-0.99535 2.48835,0.16589 -0.1659,-3.31784 -1.82475,0.49767 -1.99072,-5.14266 -0.3318,-26.70864 3.81555,-2.65428 v -11.11477 h -3.31785 l -26.211,-6.13802 0.1659,-4.479086 -2.32245,0.497676 V 80.125929 l -1.82483,-0.497678 -0.1659,-16.921001 -2.15662,-0.331785 0.1659,-14.100836 -5.14267,-5.30855 v -3.151952 l -2.82017,-0.165892 -3.48373,-3.483736 0.16589,-3.981413 -6.46979,-6.303904 v -2.654274 l -2.15661,0.165891 -3.15195,-3.483735 -0.66357,-0.165893 0.33179,-3.649628 -8.4605,-7.1333644 -0.33179,-2.9860595 h -11.28067 l -0.33178,3.649628 -3.81552,4.1473049 -3.98141,-0.331784 -0.33179,2.32249 -3.98141,4.644982 -16.09154,0.165892 -15.09619,15.593867 h -2.82017 l -17.41868,17.41868 -9.12407,0.331784 -26.87453,-0.165891 -32.68077,-13.105484 -0.16589,-2.156599 -43.79554,-0.165891 0.16589,2.156598 -41.30715,9.621747 -8.12872,0.497676 -3.64963,6.138012 -4.1473,7.133365 -4.47909,4.147304 -2.65428,0.165892 0.33178,12.441914 h -53.91495 l -5.80623,-2.48838 -6.13801,-0.165892 -58.39405,-27.703999 -2.98606,-0.331784 -6.80159,4.313197 -9.62174,3.649628 -9.78764,4.313198 -6.80158,2.654274 -15.09619,-1.161245 -6.4698,4.479089 -6.138,3.981413 -10.11943,-4.147305 0.33178,-3.151952 -14.7644,-14.43262 -4.1473,-6.138012 -8.6264,-10.285316 -0.82946,-3.317844 -3.81552,-2.488382 V 24.88383 L 237.22576,22.561338 225.6133,22.229554 225.7792,20.238848 207.86284,20.072956 185.46739,8.1287176 H 180.9883 L 161.9107,18.579926 111.31359,18.082249 Z" id="path26" sodipodi:nodetypes="ccccccccccccccccccccccccccccccccccccccccccccssccccccccccccccccccccccccccccccccccccccccccccccccccccccccccccccccccccccccccccccccccccccccccccccccccccccccccccccccccccccccccccccccccccccccccccccccccccccccccccccccccccccccccccccccccccccccccccccccccccccccccccccccccccccccccccccccccccccccccccccccccccccccccccccccccccccccccccccccccccccccccccccccccccccc" />
      <g id="g34" style="stroke-width:1.84095166;stroke-miterlimit:4;stroke-dasharray:none">
         <path style="fill:none;stroke:#000000;stroke-width:1.84095166;stroke-linecap:butt;stroke-linejoin:miter;stroke-opacity:1;stroke-miterlimit:4;stroke-dasharray:none" d="m 4.2302519,551.8404 7.3822011,-4.89383 13.105484,-1.99071 6.469796,-4.47909 2.986059,-8.62639 50.763012,-0.49768 4.147305,3.81552 v 3.48374 l 8.95818,8.4605 3.463611,1.98985 0.63367,3.44699" id="path28" sodipodi:nodetypes="ccccccccccc" />
      </g>
      <path style="fill:none;stroke:#000000;stroke-width:1.84095166;stroke-linecap:butt;stroke-linejoin:miter;stroke-opacity:1;stroke-miterlimit:4;stroke-dasharray:none" d="m 1.9907064,440.94145 7.2992565,-0.49767 8.7922861,8.29461 0.663569,19.90707 6.138012,7.79693 v 1.9907 l 7.133364,6.4698 2.488383,-0.16589 8.460502,-9.12407 h 7.299256 l 16.091544,6.63568 0.331784,15.75976 2.654275,2.32249 10.617098,0.33179 2.322495,-2.1566 9.124065,-0.1659 6.138015,10.783 h 22.229559 l 0.33178,9.95353 -9.28996,9.45586 0.16589,9.12407 9.28996,5.64033 0.33178,3.31784 -7.96282,14.59852" id="path44" />
      <path style="fill:none;stroke:#000000;stroke-width:1.84095166;stroke-linecap:butt;stroke-linejoin:miter;stroke-opacity:1;stroke-miterlimit:4;stroke-dasharray:none" d="m 6.3039035,394.15986 14.9302975,-14.43263 20.072956,-0.33177 29.362918,-24.38616 1.990707,-1.99071 9.455857,8.4605 11.944237,-0.33178 1.990703,1.65892 h 6.635691 l 0.16589,4.64499 -7.631036,10.11942 -0.165893,13.27138 7.133359,8.29461 v 2.48838 l 9.45586,9.28996 7.46515,14.43262 2.65427,5.64034 v 6.63568 l -1.32714,3.31784 -11.11477,5.30856 -6.3039,0.16589 -4.479094,-4.97677 -12.276022,8.12872 v 15.26209 l 4.47909,7.63104 h 1.327132 l -0.66357,25.87917" id="path46" />
      <path style="fill:none;stroke:#000000;stroke-width:1.84095166;stroke-linecap:butt;stroke-linejoin:miter;stroke-opacity:1;stroke-miterlimit:4;stroke-dasharray:none" d="m 381.22027,679.66033 -2.65428,-12.7737 -19.90706,-34.0079 -9.12407,-0.1659 -6.4698,-13.43727 -5.80623,-2.48838 -7.13336,9.28997 -6.30391,19.24349 -1.9907,3.81552 4.64498,4.14731 -0.33191,31.02192" id="path48" />
      <path style="fill:none;stroke:#000000;stroke-width:1.84095166;stroke-linecap:butt;stroke-linejoin:miter;stroke-opacity:1;stroke-miterlimit:4;stroke-dasharray:none" d="m 346.38291,626.07715 3.64962,-6.30391 v -19.57528 l -3.15195,-4.31319 -15.09619,-15.09619 -12.60781,-6.63569 -10.6171,-0.66357 -0.16589,4.81088 7.13336,10.11942 0.99536,1.65892 v 21.73188 l -8.29461,11.44656 -0.16589,2.48838 2.48838,3.98142 v 5.80622 l -6.13801,6.96748 0.16589,4.97676 -1.16125,2.65428 -2.82016,2.98605 -0.33179,7.79694 2.32249,1.99071 23.72259,-0.49768" id="path50" />
      <path style="fill:none;stroke:#000000;stroke-width:1.84095166;stroke-linecap:butt;stroke-linejoin:miter;stroke-opacity:1;stroke-miterlimit:4;stroke-dasharray:none" d="m 306.90056,639.51441 -25.04972,-0.66356 -11.44656,-7.13337 -0.33179,-13.27137 -1.82481,-9.28997 0.16589,-12.6078 9.95353,-0.1659 4.64498,-2.32248 5.47445,-11.44656 22.39544,-0.49768" id="path52" />
      <path style="fill:none;stroke:#000000;stroke-width:1.84095166;stroke-linecap:butt;stroke-linejoin:miter;stroke-opacity:1;stroke-miterlimit:4;stroke-dasharray:none" d="m 345.05577,593.89406 11.61245,-19.57527 5.30855,2.82016 5.14266,-0.66357 6.63569,-6.13801 10.4512,-20.90242 0.1659,-4.64498 -7.13337,-15.42797 -7.96282,-4.47909 -14.10084,-0.16589 -0.49767,7.63104 -3.31785,5.47444 -4.64498,-0.82946 -3.98141,-3.98141 -6.96748,-0.33179 -0.33178,11.11478 1.65892,3.15195 -0.66357,26.70865 -1.32714,3.15195 -3.31784,3.98141" id="path54" />
      <path style="fill:none;stroke:#000000;stroke-width:1.84095166;stroke-linecap:butt;stroke-linejoin:miter;stroke-opacity:1;stroke-miterlimit:4;stroke-dasharray:none" d="m 342.73328,533.01163 v -12.9396 l -2.1566,-4.1473 -7.63104,3.31784 -3.48374,-0.16589 -9.28996,-14.7644 -9.12408,-0.66357 -13.76904,15.92565 -3.48374,1.65892 h -7.29926 l -5.14265,4.97676 14.59851,6.80159 v 3.48373 l -2.65428,3.98141 -0.16589,3.48374 -2.32249,2.32249 6.4698,11.28067 4.97676,9.95353 6.3039,5.97212" id="path56" />
      <path style="fill:none;stroke:#000000;stroke-width:1.84095166;stroke-linecap:butt;stroke-linejoin:miter;stroke-opacity:1;stroke-miterlimit:4;stroke-dasharray:none" d="m 254.78319,695.84434 0.23461,-11.96495 6.8036,-7.50743 -0.46921,-4.45753 -6.33439,-0.70383 -6.09978,-3.98831 -0.93843,-14.31103 v -2.34607 l 10.79192,-10.0881 1.64226,-3.98831 0.2346,-14.54564 -3.98832,-4.69214 -10.55731,11.49574 -11.49575,7.03821 -6.8036,6.09978 H 211.3809 l -9.14967,7.97664 -4.92675,0.23461 -15.01485,-5.63057" id="path58" />
      <path style="fill:none;stroke:#000000;stroke-width:1.84095166;stroke-linecap:butt;stroke-linejoin:miter;stroke-opacity:1;stroke-miterlimit:4;stroke-dasharray:none" d="m 256.66005,617.251 6.569,-21.11463 5.18452,0.41197" id="path60" />
      <path style="fill:none;stroke:#000000;stroke-width:1.84095166;stroke-linecap:butt;stroke-linejoin:miter;stroke-opacity:1;stroke-miterlimit:4;stroke-dasharray:none" d="m 263.22905,596.13637 7.50742,-24.86834 V 556.7224 l -1.87686,-3.51911 0.46922,-10.32271 -19.47238,5.86518 -11.02653,5.16135 -11.96496,1.17303 v 8.21125 l 9.61889,8.68046 2.11146,2.34607 v 3.98832 l -6.56899,13.6072 -3.2845,4.92675 -9.14968,6.8036 -3.75371,-0.2346 -0.93842,-16.42249 -0.93843,-2.58068 -14.78024,-7.97664 -9.14967,6.569 -8.44586,-4.45754 -9.85349,8.91507 -6.09978,-16.42249 -13.3726,18.76856" id="path62" />
      <path style="fill:none;stroke:#000000;stroke-width:1.84095166;stroke-linecap:butt;stroke-linejoin:miter;stroke-opacity:1;stroke-miterlimit:4;stroke-dasharray:none" d="m 457.86233,542.63337 -10.94875,-14.7644 -13.60317,2.65427 h -5.30854 l -9.62175,-16.25744 h -21.89777 v 6.96748 l -12.93959,6.96747 -4.64498,4.3132" id="path64" />
      <path style="fill:none;stroke:#000000;stroke-width:1.84095166;stroke-linecap:butt;stroke-linejoin:miter;stroke-opacity:1;stroke-miterlimit:4;stroke-dasharray:none" d="m 471.79741,516.25651 -0.66357,-10.94888 15.59386,-27.53811 -0.33178,-16.25743 -8.29461,-8.29461 -0.33179,-2.65428 -11.28067,-11.61245 -17.58457,0.66357 -13.93494,4.97676 -1.65893,-2.32249 -0.99535,-9.62175 -20.90241,-12.6078 -21.89777,-0.33178 -11.61246,8.95817 5.64034,11.94424 -4.64498,4.64498 -39.81414,-13.93494 h -10.61709 v 10.28531 l 1.99071,3.31785 -0.33179,7.96282 2.32249,3.64964 -0.33179,7.63104 2.3225,1.65891 5.64033,11.94424 0.33178,10.28532 -3.64962,4.64498 -14.76441,14.10084 h -0.16589" id="path66" />
      <path style="fill:none;stroke:#000000;stroke-width:1.84095166;stroke-linecap:butt;stroke-linejoin:miter;stroke-opacity:1;stroke-miterlimit:4;stroke-dasharray:none" d="m 269.32883,542.88058 6.71578,-5.72165 0.66357,-8.62639 4.64499,-2.32251" id="path68" />
      <path style="fill:none;stroke:#000000;stroke-width:1.84095166;stroke-linecap:butt;stroke-linejoin:miter;stroke-opacity:1;stroke-miterlimit:4;stroke-dasharray:none" d="m 265.7593,543.13105 -5.64034,-19.57528 7.63104,-13.27138 -0.66357,-17.58457 -3.64962,-3.64962 -9.62175,-0.33179 -10.94889,-9.62175 h -12.27602 l -11.28067,-11.61245 -1.32714,27.5381 -2.65427,4.97677 -9.28996,5.64033 2.65428,6.30391 0.33178,6.3039 -6.63569,10.6171 -11.94424,0.66357 -7.63104,-11.94424 -8.6264,0.33178 -9.28996,14.59852 -0.33179,14.26672 -10.94888,11.61246 10.94888,8.95818 1.06749,3.68211" id="path70" />
      <path style="fill:none;stroke:#000000;stroke-width:1.84095166;stroke-linecap:butt;stroke-linejoin:miter;stroke-opacity:1;stroke-miterlimit:4;stroke-dasharray:none" d="m 119.77417,509.12314 7.85203,-12.22553 2.81529,-4.22293 11.26113,0.93843 2.34607,-2.34606 0.93843,-11.26114 9.38428,-0.46922 6.09978,8.44586 6.09979,-14.07642 3.75371,0.93842 3.2845,3.2845 5.63056,8.44585 5.16136,-0.93843 5.16135,-7.03821 5.16136,-18.29934 5.63056,-6.09978 9.38428,-1.40764 5.16136,3.75371 4.40947,10.939" id="path72" />
      <path style="fill:none;stroke:#000000;stroke-width:1.84095166;stroke-linecap:butt;stroke-linejoin:miter;stroke-opacity:1;stroke-miterlimit:4;stroke-dasharray:none" d="m 200.35437,454.19914 -1.40764,-6.09978 -6.09978,-3.75372 -2.34607,-7.97664 -5.63057,-4.22292 -1.87686,-6.09978 -2.81528,0.93843 -6.56899,6.09978 -15.48407,-0.46921 -11.26114,13.13799 -0.4692,16.8917 7.97663,16.8917" id="path74" />
      <path style="fill:none;stroke:#000000;stroke-width:1.84095166;stroke-linecap:butt;stroke-linejoin:miter;stroke-opacity:1;stroke-miterlimit:4;stroke-dasharray:none" d="m 121.76487,430.98793 20.87618,-1.18792 15.48406,2.81529" id="path76" />
      <path style="fill:none;stroke:#000000;stroke-width:1.84095166;stroke-linecap:butt;stroke-linejoin:miter;stroke-opacity:1;stroke-miterlimit:4;stroke-dasharray:none" d="m 182.99345,426.0463 -6.09978,-10.79192 -0.46921,-10.32271 7.97664,-7.03821 -1.40765,-5.16135 6.09979,-0.46922 16.42248,14.07642 13.138,-0.93843 6.569,-4.22292 4.69213,-22.52227 15.95328,11.26113 15.01484,23.92992 4.69215,1.40764 9.38427,-12.66878 8.44586,2.34607 1.87685,28.15284 10.32271,-3.75371 20.64541,-0.46921 12.21633,2.45812" id="path78" />
      <path style="fill:none;stroke:#000000;stroke-width:1.84095166;stroke-linecap:butt;stroke-linejoin:miter;stroke-opacity:1;stroke-miterlimit:4;stroke-dasharray:none" d="m 283.40525,404.93167 7.03821,-2.34607 3.75371,-5.63057 24.86834,-10.79192 3.75371,-4.69214 0.46921,-30.96813 7.50743,-14.54562 -2.34607,-4.22293 -5.63057,-2.81528 -17.83013,9.38427 v 8.44585 l -5.63057,3.28451 -11.73034,-5.16136 -8.44586,-2.34607 -9.38428,6.569 0.93843,49.26747 4.22292,4.22292" id="path80" />
      <path style="fill:none;stroke:#000000;stroke-width:1.84095166;stroke-linecap:butt;stroke-linejoin:miter;stroke-opacity:1;stroke-miterlimit:4;stroke-dasharray:none" d="m 229.91485,378.65569 -24.39913,-0.46922 -10.3227,-11.73035 -24.39913,-4.22292 -15.95328,-16.42249 -12.19956,-0.46922 -1.40764,7.03821 -6.09978,-0.93843 -2.81528,-12.19956 -10.32271,-10.3227 h -6.09979 L 114.019,308.7428 78.358734,283.40525 57.244106,282.46682" id="path82" />
      <path style="fill:none;stroke:#000000;stroke-width:1.84095166;stroke-linecap:butt;stroke-linejoin:miter;stroke-opacity:1;stroke-miterlimit:4;stroke-dasharray:none" d="m 432.31506,432.64684 11.56137,-1.43919 2.81528,-6.56899 1.40765,-13.60721 0.46921,-4.22292 2.34607,-2.34607 5.63057,1.87685 5.63057,-1.87685 -7.03821,-11.73035 -17.83014,5.63057 -5.16135,-2.81529 c 0,0 -9.85349,-4.69214 -11.26113,-11.26113 -1.40765,-6.569 0.46921,-17.83014 0.46921,-17.83014 l 5.63057,-7.97664 c 0,0 -2.58067,-2.58068 -11.49574,-2.58068 -8.91507,0 -11.02653,-13.37259 -11.02653,-13.37259 l -6.09978,2.81528 -1.87686,5.63057 -25.33756,-7.50743 -7.50742,9.38429 -12.66878,-18.76856 -21.84194,-0.63705 v -0.16589" id="path84" sodipodi:nodetypes="cccccccccccsccscccccccc" />
      <path style="fill:none;stroke:#000000;stroke-width:1.84095166;stroke-linecap:butt;stroke-linejoin:miter;stroke-opacity:1;stroke-miterlimit:4;stroke-dasharray:none" d="m 462.17578,404.46246 25.54728,-11.96153 28.53345,-30.19237 h 17.58457 v -8.95818 l -5.64033,-10.94889 -0.99535,-21.56598 -42.4684,-25.87919 h -6.96748 l -1.32713,12.27602 -10.28532,5.64034 c 0,0 -7.63104,1.9907 -9.95353,1.9907 -2.32249,0 -12.27602,-1.65891 -12.27602,-1.65891 l -9.62175,-7.63104 -0.99536,-10.94889 1.99071,-4.64498 -0.99535,-6.96748 h -14.9303 l 1.32714,-23.55669 -13.93494,0.33179 -9.28997,11.94424 v 2.98605 l 1.65893,1.65893 -0.33179,5.64034 -2.98606,7.29925 0.33178,10.28531 -5.64033,10.61711 -0.33178,13.60315 6.96747,6.30391 7.31654,12.40073" id="path86" />
      <path style="fill:none;stroke:#000000;stroke-width:1.84095166;stroke-linecap:butt;stroke-linejoin:miter;stroke-opacity:1;stroke-miterlimit:4;stroke-dasharray:none" d="m 406.76767,259.78718 -9.62175,-16.58922 -6.96747,-11.28067 -1.32714,-29.19703 -7.63104,-0.99535 -26.87454,-25.21561 -30.85595,20.23885 -3.31784,-12.9396 -6.96747,-2.65428 -6.6357,2.65428 -5.30854,6.96748 -7.63104,0.33178 -0.33179,8.6264 -5.30855,0.33178 -13.9752,-13.46574 -13.23112,18.11072 -4.97676,5.97212 -12.60781,0.99535 -21.89777,13.60317 -0.66357,24.88382 8.6264,9.62175 9.28996,-15.92565 9.62175,-0.33179 8.95818,5.64034 4.97676,-7.29926 5.97212,-0.99535 6.63568,2.32249 4.3132,7.63104 1.65893,7.29925 7.63104,3.98142 -10.28532,12.93959 0.66357,3.64963 11.94423,6.63569 10.94889,-0.66357 0.33179,7.63104 -2.65428,9.62175 4.64498,8.62639 0.99536,3.64963 -5.30856,12.27602 9.62175,9.28996" id="path88" sodipodi:nodetypes="cccccccccccccccccccccccccccccccccccccccc" />
      <path style="fill:none;stroke:#000000;stroke-width:1.84095166;stroke-linecap:butt;stroke-linejoin:miter;stroke-opacity:1;stroke-miterlimit:4;stroke-dasharray:none" d="m 66.688663,216.8211 6.138011,2.32249 26.874532,0.16589 10.285324,6.63569 17.75046,-0.33179 0.49767,6.30391 -15.42797,23.72258 0.66357,11.44656 11.44656,16.25744 4.81088,-0.33179 0.99535,-11.61245 10.94888,-5.64033 -0.49767,-7.63105 -2.65428,-4.47908 v -15.26209 l 2.98606,-3.15195 7.79693,-0.33178 3.15195,-2.1566 0.33179,-16.42332 -20.23885,-14.43263 v -7.29925 l 24.05437,-5.14266 11.11478,-0.33179 4.97676,4.81088 0.33179,12.7737 4.97676,4.1473 16.92101,0.16589 2.32249,1.32714 h 16.09154 l 6.80159,-2.98606 0.66357,-0.49767 0.49767,16.42333" id="path90" />
      <path style="fill:none;stroke:#000000;stroke-width:1.84095166;stroke-linecap:butt;stroke-linejoin:miter;stroke-opacity:1;stroke-miterlimit:4;stroke-dasharray:none" d="m 220.80252,208.85828 -0.1659,-8.4605 -15.92565,-16.75512 -0.16589,-13.93495 -24.05437,-1.32713 -7.29926,-7.46515 -6.80158,-0.66357 -6.13801,5.30855 -29.36292,-0.16589 -17.58457,10.11942 -0.16589,-17.41868 0.82946,-3.31784 9.28996,-9.62175 -9.2389,-15.1834 4.22293,-18.29934 8.44584,-0.46921 2.81529,-4.45754 -0.46921,-6.09978 5.39596,-13.372596 v -3.98832 l -7.27282,-8.211248 v -8.44585 L 124.57631,65.220744 114.019,64.986137 95.719651,56.071071 91.262124,55.367251" id="path92" />
      <path style="fill:none;stroke:#000000;stroke-width:1.84095166;stroke-linecap:butt;stroke-linejoin:miter;stroke-opacity:1;stroke-miterlimit:4;stroke-dasharray:none" d="m 123.2579,145.15567 4.1337,-3.92226 4.69214,-9.38428 23.4607,-8.68046 h 19.23777 l 2.81529,-2.81528 -0.70383,-16.89171 44.80994,-26.745191 1.64225,-1.642253 -0.23461,-9.149671 -10.55732,-14.076419 0.23461,-2.34607 7.97664,-0.234608 22.05306,5.865175 4.92674,-1.173034 7.50743,-6.099783" id="path94" />
      <path style="fill:none;stroke:#000000;stroke-width:1.84095166;stroke-linecap:butt;stroke-linejoin:miter;stroke-opacity:1;stroke-miterlimit:4;stroke-dasharray:none" d="m 284.57829,70.382098 0.2346,31.671942 1.64225,2.34607 0.46921,35.66026 6.33439,7.50743 -19.23777,14.78024 -0.007,24.25221" id="path96" sodipodi:nodetypes="ccccccc" />
      <path style="fill:none;stroke:#000000;stroke-width:1.84095166;stroke-linecap:butt;stroke-linejoin:miter;stroke-opacity:1;stroke-miterlimit:4;stroke-dasharray:none" d="m 336.42937,187.1264 -7.96282,-8.29461 -0.33179,-2.32249 11.94424,-12.60781 v -3.64963 l -3.64963,-7.29926 0.99536,-32.84665 0.99535,-2.65428 4.97676,-0.99535 2.98607,-5.30855 h 8.29461 l 6.63568,-5.64033 0.66357,-6.967474 h 4.97677 l 2.32249,2.986054 h 2.65427 l 6.63569,-5.640334 11.61246,1.32714 13.27137,21.897774 4.97676,-0.33179 2.65428,5.97212 4.3132,10.28532 14.9303,0.66357 -4.64499,18.24814 14.9303,11.61245 -4.64498,21.56599 -12.6078,1.9907 -21.56599,19.2435 7.63104,22.56134 -11.61245,13.27137" id="path98" />
      <path style="fill:none;stroke:#000000;stroke-width:1.84095166;stroke-linecap:butt;stroke-linejoin:miter;stroke-opacity:1;stroke-miterlimit:4;stroke-dasharray:none" d="m 413.02561,79.297164 -5.04405,8.09394 -10.55731,0.586522 -10.90923,-10.791922 h -13.60721 l -2.58067,1.876852 -12.08226,0.469215 -1.05573,0.234608 -0.1173,12.08226 7.27281,6.568995" id="path100" />
      <path style="fill:none;stroke:#000000;stroke-width:1.84095166;stroke-linecap:butt;stroke-linejoin:miter;stroke-opacity:1;stroke-miterlimit:4;stroke-dasharray:none" d="m 618.11423,460.18485 -7.46505,-5.97202 v -15.17914 l -13.43727,-7.2163 -4.97677,4.47909 -12.7737,-15.59387 17.25279,-18.57993 20.07295,-38.65288 -0.33178,-2.82017 -14.43262,-20.40474 -0.84236,-1.12048 -0.0587,-8.97372 -18.1766,-16.61444 -21.23419,-0.82946 -11.77835,-7.79693 -17.91636,11.77834 -4.81087,4.14731" id="path102" />
      <path style="fill:none;stroke:#000000;stroke-width:1.84095166;stroke-linecap:butt;stroke-linejoin:miter;stroke-opacity:1;stroke-miterlimit:4;stroke-dasharray:none" d="m 549.93258,304.90986 2.82022,-4.64499 0.33178,-7.63104 -16.921,-16.58922 6.96747,-7.96282 0.66357,-16.58922 -23.88848,-14.9303 -2.98606,-4.64498 v -4.3132 l 8.6264,-9.62175 0.99535,-2.98605 -0.33179,-13.93495 12.27602,0.33178 4.3132,2.65428 5.64034,-3.64962 4.3132,-10.28532 8.62639,-2.65428 17.58457,11.61246 8.29461,19.24349 1.65893,4.3132 -0.66357,12.93959 7.63104,9.95353 -8.6264,9.28996 21.89777,20.23885 -0.33178,22.22956 -10.28531,11.61245 -12.27603,0.66357 -3.3179,3.98141" id="path104" />
      <path style="fill:none;stroke:#000000;stroke-width:1.84095166;stroke-linecap:butt;stroke-linejoin:miter;stroke-opacity:1;stroke-miterlimit:4;stroke-dasharray:none" d="m 552.7528,190.11246 -8.6264,-7.96283 0.66357,-22.56134 2.32249,-2.65428 -21.56598,-57.398696 -2.3225,-0.995348 L 522.8922,85.932159 503.98049,75.315054 493.69517,59.057622 469.8067,75.646839" id="path106" />
      <path style="fill:none;stroke:#000000;stroke-width:1.84095166;stroke-linecap:butt;stroke-linejoin:miter;stroke-opacity:1;stroke-miterlimit:4;stroke-dasharray:none" d="m 523.22398,98.539966 -27.86988,9.953524 -0.33179,24.22026 -4.3132,4.3132 -32.84665,16.58922 13.93495,9.28997 1.32713,2.32248 -0.66356,13.27138 14.26672,10.6171 17.25279,-0.33178 1.32714,1.65892 v 4.64498 l -2.65428,5.64034 -5.30855,4.31319 v 6.96748 l -3.64963,2.98606 -9.62174,-0.99536 -6.63569,-4.64498 -0.33179,-12.93959 -3.64963,-3.31785 -16.58922,-0.99534 -2.98605,-2.65428 -17.91636,-2.32249" id="path108" />
      <path style="fill:none;stroke:#000000;stroke-width:1.84095166;stroke-linecap:butt;stroke-linejoin:miter;stroke-opacity:1;stroke-miterlimit:4;stroke-dasharray:none" d="m 609.15614,275.04926 4.3132,-1.65892 24.55205,-24.55204 36.82806,-14.93031 4.64499,-0.66356 15.59386,9.62174 2.98606,-0.66357 10.28531,-14.59851 2.98607,-21.89777 12.27602,-4.64498 8.95818,0.66357" id="path110" />
      <path style="fill:none;stroke:#000000;stroke-width:1.84095166;stroke-linecap:butt;stroke-linejoin:miter;stroke-opacity:1;stroke-miterlimit:4;stroke-dasharray:none" d="m 641.33923,54.080856 -2.32249,10.285316 1.9907,5.972119 3.98142,6.635688 -9.62175,22.89312 -0.66357,24.883831 -3.64962,19.57528 -0.66357,10.6171 4.31319,11.61245 -0.66357,4.3132 -5.30855,4.64498 -5.64034,23.5567 -7.96282,8.29461 -14.9303,10.28531 4.97677,15.59387 -9.28996,12.27602" id="path112" />
   </g>
</svg>
