<svg width="1363" height="943" viewBox="0 0 1363 943" fill="none"
    xmlns="http://www.w3.org/2000/svg">
    <mask id="mask0_9_42" style="mask-type:luminance" maskUnits="userSpaceOnUse" x="0" y="0" width="1363" height="943">
        <path d="M0 0H1363V943H0V0Z" fill="white"/>
    </mask>
    <g mask="url(#mask0_9_42)">
        <path d="M532.957 772.816L534.056 774.026L542.902 772.627L547.865 773.052L551.619 775.158L552.223 777.453L552.352 784.306L551.344 788.802L551.436 789.949L553.157 791.568L578.962 792.92L581.233 795.843L581.635 799.286L582.917 800.921L588.796 804.583L591.25 804.913L593.228 806.941L592.148 812.788L592.422 818.73L594.931 826.007L596.268 828.648L599.4 831.792L600.792 835.8L599.693 837.702L593.43 836.507L588.503 832.405L583.851 831.084L578.797 827.721L577.735 824.404L575.555 822.093L569.329 820.663L564.897 820.883L564.384 822.313L565.354 827.831L561.985 835.847L562.571 836.554L566.655 836.303L565.373 840.138L564.036 841.553L552.901 841.301L550.886 842.842L550.758 844.021L552.718 847.07L550.502 856.203L550.447 859.975L551.656 863.889L549.513 868.432L544.898 871.481L545.063 872.691L544.202 873.697L544.605 876.008L545.685 877.061L545.722 878.9L544.495 881.447L547.773 886.744L548.011 889.652L543.689 886.838L538.305 884.622L535.008 885.298L529.001 883.38L523.892 883.569L521.859 884.575L516.127 885.486L512.83 885.062L510.175 882.846L509.094 881.116L509.387 879.387L511.896 873.572L518.159 866.765L522.536 860.179L522.445 855.81L521.236 853.106L520.247 853.027L525.906 836.916L529.752 830.833L533.085 828.192L535.246 823.414L536.876 821.999L537.664 818.84L537.004 813.417L537.517 810.194L534.752 806.359L537.004 805.149L536.308 791.835L535.448 789.713L533.543 787.434L523.763 784.636L520.082 781.98L522.408 778.49L524.899 776.447L532.957 772.816ZM1250.19 294.202L1249.95 297.078L1248.45 299.845L1246.58 302.313L1244.56 303.617L1241.32 308.176L1238.83 315.862L1233.96 319.713L1233.08 321.442L1231.96 326.173L1233.28 331.848L1234.69 333.514V336.186L1231.74 338.795L1231.27 346.042L1229.49 348.667L1229.73 354.09L1228.3 357.139L1224.55 361.179L1224.07 365.926L1221.12 367.56L1218.48 371.663L1207.73 373.486L1200.08 382.729L1200.35 384.269L1203.17 386.816L1203.25 387.822L1201.14 392.128L1197.75 394.313L1197.7 397.096L1198.96 399.61L1203.89 401.701L1205.74 404.2L1201.78 409.057L1201.54 412.594L1200.55 414.622L1201.05 416.366L1199.07 418.677L1199.68 419.903L1199.27 422.119L1200.06 423.11L1198.71 426.568L1196.84 429.146L1195.06 428.941L1191.95 431.016L1177.28 432.305L1172.24 435.7L1169.27 436.156L1162.39 441.485L1155.5 444.597L1155.67 446.703L1160.01 447.128L1160.91 447.788L1161.07 459.545L1159.73 460.63L1158.21 467.562L1159.75 470.815L1157.63 477.15L1158.18 479.225L1153.03 486.77L1148.2 490.385L1148.18 491.957L1149.48 493.513L1147.98 496.735L1150.3 502.897L1148.23 505.805L1146.24 506.402L1143.18 506.041L1140.5 506.89L1139.46 508.619L1139.17 512.91L1137.37 514.073L1135.56 516.981L1131.57 517.279L1125.34 521.618L1123.82 521.806L1113.05 519.229L1111.84 520.266L1111.4 522.954L1109.24 524.777L1107.76 529.571L1104.52 533.25L1100.25 533.47L1098.2 534.869L1093.67 534.428L1090.29 536.33L1086.79 536.849L1085.47 538.138L1084.22 544.488L1086.86 552.693L1087.92 561.763L1087.81 563.398L1086.4 564.278L1081.95 571.367L1083.09 575.312L1083.49 581.175L1075.93 591.157L1069.54 596.014L1066.31 600.745L1065.43 603.889L1063.38 606.199L1062.63 611.622L1060.6 614.074L1061.86 623.725L1063.05 626.555L1057.69 628.881L1054.1 629.306L1049.06 634.241L1046.83 632.858L1046.92 630.406L1043.37 623.144L1042.67 617.579L1041.32 614.86L1042.38 606.231L1040.47 603.056L1036.54 598.969L1028.62 592.933L1024.05 587.981L1021.26 586.221L1018.66 585.545L1015.66 586.142L1010.47 592.446L1005.49 595.574L1000.53 591.722L995.201 584.335L990.586 573.756L992.087 571.273L999.669 563.759L1006.63 558.698L1015.93 550.084L1031.74 531.976L1042.95 523.771L1043.75 520.502L1043.06 511.416L1054.03 493.434L1055.86 487.744L1055.38 484.899L1051.68 478.863L1044.1 476.553L1039.23 471.931L1038.6 465.896L1039.45 462.485L1029.81 447.049L1026 445.021L1017.49 443.324L1014.81 440.306L1004.83 424.304L1016.19 422.874L1022.36 420.626L1039.58 411.729L1050.11 405.442L1052.12 401.78L1051.17 395.964L1052.41 379.884L1064.02 381.408L1068.97 381.11L1077.34 379.035L1080.53 377.353L1083.64 374.367L1090.47 365.643L1101.82 354.545L1106.42 353.178L1117.94 352.408L1128.75 348.918L1133.21 344.8L1134.72 340.619L1140.8 340.399L1145.1 338.607L1149.17 332.791L1153.01 329.396L1157.61 327.085L1173.21 328.327L1178.47 329.946L1183.19 332.382L1188.39 337.271L1192.84 339.078L1197.2 340.682L1205.24 340.666L1207.33 338.748L1210.04 326.551L1215 317.623L1217.24 311.901L1218.85 305.456L1219.36 292.866L1225.02 292.19L1226.16 293.353L1233.03 295.145L1240.09 294.689L1250.39 291.954L1250.19 294.202Z" fill="white" stroke="black" stroke-width="1.011"/>
        <path d="M554.751 920.036V920.051L554.714 920.02L554.751 920.036ZM568.614 918.935L570.391 919.721L572.076 919.423L573.687 919.203L574.292 919.643L567.735 920.822L566.838 919.894L568.614 918.935ZM642.438 907.052L644.05 910.337L642.658 911.626L640.698 911.972L640.295 910.023L641.321 909.866L641.962 908.451L642.438 907.052ZM548.011 889.652L547.791 886.744L544.513 881.462L545.74 878.9L545.704 877.061L544.623 876.008L544.22 873.697L545.081 872.676L544.916 871.465L549.531 868.416L551.692 863.873L550.484 859.959L550.52 856.171L552.736 847.039L550.777 843.989L550.905 842.81L552.919 841.27L564.073 841.521L565.409 840.107L566.691 836.272L562.607 836.523L562.021 835.816L565.391 827.799L564.42 822.282L564.952 820.852L569.384 820.632L575.61 822.062L577.79 824.373L578.852 827.689L583.888 831.053L588.54 832.373L593.466 836.476L591.91 836.633L589.804 840.484L591.012 843.298L592.551 843.785L593.979 846.834L602.715 845.954L611.799 850.167L612.531 853.468L611.414 863.056L614.399 871.12L620.644 878.837L626.486 883.239L633.391 890.045L640.112 894.462L641.193 896.049L640.405 899.444L641.852 900.136L641.907 904.066L640.991 904.773L640.24 903.72L640.112 904.631L642.291 906.471L641.193 909.3L639.837 909.598L640.02 911.218L638.134 913.025L638.574 913.292L636.651 917.033L627.072 916.043L616.56 915.933L596.946 916.798L574.878 919.438L573.925 918.715L570.592 919.281L568.889 918.527L567.277 919.093L565.538 918.951L565.501 918.998L566.417 920.271L566.911 920.947L560.831 923.022L559.036 920.35L556.893 919.328L555.318 919.03L553.56 917.363L554.256 915.933L554.091 915.744L553.121 916.53L552.205 915.933L551.088 914.094L551.161 913.088L552.095 912.585L551.033 905.433L552.791 898.721L551.637 895.106L548.011 889.652ZM481.055 699.332L481.861 699.96L482.026 705.65L489.04 705.446L493.509 707.662L497.263 707.788L504.094 710.46L504.754 711.702L502.464 717.125L501.091 718.823L497.996 720.614L494.608 724.513L495.047 726.022L493.912 727.326L493.124 731.02L493.838 731.869L500.889 733.692L503.49 736.522L505.944 742.243L508.343 745.151L507.794 746.66L506.292 747.116L507.043 749.269L506.127 751.816L507.446 752.979L510.907 751.203L512.024 751.407L513.105 755.462L515.54 756.453L514.899 759.832L518.342 765.79L518.672 768.163L520.064 769.703L524.441 771.904L527.481 770.395L529.459 770.537L531.51 771.7L531.437 772.549L532.957 772.816L524.899 776.447L522.408 778.49L520.082 781.98L510.339 784.212L500.486 782.247L488.93 784.07L485.67 785.705L483.967 791.285L479.627 798.531L474.719 798.956L466.459 795.938L463.492 797.195L457.998 803.215L454.17 804.52L449.775 804.19L447.742 802.178L449.592 800.339L453.108 794.209L453.731 790.059L456.972 782.687L461.551 775.535L462.247 766.088L464.591 760.351L462.338 754.425L459.628 742.966L459.774 740.813L457.705 739.037L453.804 723.994L453.676 723.538L456.734 722.328L463.309 723.365L465.928 721.966L469.298 718.021L469.408 713.73L471.678 707.254L475.781 703.623L478.601 702.271L481.055 699.332ZM900.939 137.567L915.114 147.296L917.202 151.902L918.612 163.031L918.264 165.876L924.051 173.201L924.436 183.795L925.04 188.039L926.78 192.299L927.146 198.382L942.438 231.249L942.017 238.983L940.094 243.258L938.281 253.915L941.266 256.32L946.834 256.902L945.369 257.279L940.405 263.189L929.344 268.345L924.637 274.161L920.956 276.912L918.227 278.106L911.067 279.489L908.429 281.627L905.902 284.818L904.126 292.583L899.346 304.262L892.734 312.231L892.368 314.4L905.884 319.1L907.971 321.788L909.565 333.027L911.176 334.834L924.362 338.953L928.172 346.718L927.293 360.283L928.025 364.778L926.505 367.545L919.363 368.535L915.718 369.981L913.319 372.983L913.923 375.53L921.78 382.414L926.359 384.631L943.116 395.775L945.369 401.733L946.486 411.462L951.211 419.762L954.306 423.094L954.068 424.587L953.005 424.839L945.698 424.792L933.904 423.078L914.51 430.702L903.796 429.476L895.39 433.641L883.742 428.25L872.424 421.899L852.151 414.449L835.192 406.7L830.485 405.898L816.567 399.689L811.017 402.487L810.468 404.75L816.274 411.132L816.768 413.867L815.852 416.492L807.135 418.536L801.842 426.725L793.802 428.941L775.415 429.869L765.397 427.542L756.607 427.118L753.841 426.285L750.984 424.179L747.963 417.781L746.314 415.958L744.868 414.842L737.688 412.61L736.59 411.274L736.754 408.617L741.113 401.591L741.534 399.752L741.058 390.415L739.282 385.495L735.985 382.477L734.044 382.147L713.954 385.59L714.027 366.13L712.598 358.585L707.818 352.046L702.727 350.663L696.903 350.537L694.101 351.307L689.468 347.048L684.358 344.297L683.864 343.15L688.168 336.548L689.138 330.323L690.951 329.443L695.695 323.014L698.13 316.962L697.984 313.819L696.574 311.194L689.504 304.388L688.68 301.26L687.948 290.43L688.772 284.928L691.702 277.745L693.57 277.069L698.515 277.32L702.251 276.519L707.269 271.473L712.122 265.013L720.803 258.458L722.03 256.729L726.572 254.261L729.667 253.79L731.755 255.471L733.843 255.613L743.952 252.202L745.783 251.903L756.772 253.632L770.379 257.421L776.514 255.126L780.726 256.273L783.986 262.042L789.718 262.372L803.82 261.617L810.358 260.187L812.446 260.659L817.336 268.361L818.325 271.74L816.805 284.079L818.288 287.302L820.76 289.439L831.199 291.31L841.455 289.125L844.312 289.392L847.719 291.53L852.224 292.504L855.63 291.608L853.597 286.217L853.671 283.388L856.473 280.385L861.106 278.248L868.505 276.692L871.142 275.465L874.53 273.281L876.545 269.005L874.64 266.71L858.396 265.83L847.92 263.834L836.217 262.623L830.742 259.715L821.035 248.052L819.112 244.123L818.251 240.083L811.219 241.561L809.058 239.816L808.051 237.081L812.647 229.222L811.695 222.431L809.021 215.484L805.706 214.698L800.67 215.122L796.788 216.741L792.008 216.804L789.535 215.814L790.433 209.118L796.33 201.981L807.611 201.258L817.629 196.48L837.664 190.617L849.074 186.671L851.253 185.194L851.198 181.657L850.154 178.702L862.443 146.338L870.758 143.273L877.131 142.408L878.944 143.697L880.464 146.275L880.684 148.46L900.939 137.567ZM567.113 578.063L583.833 581.961L599.418 583.926L615.37 589.506L624.38 593.939L633.995 595.495L635.955 595.275L642.035 599.676L651.796 603.181L653.884 601.452L654.049 599.315L645.441 581.018L645.295 577.057L647.163 572.562L649.434 570.345L656.668 566.887L659.195 566.447L663.938 566.164L668.846 566.856L687.325 572.703L699.889 575.139L708.826 575.784L716.078 575.438L716.096 574.338L737.689 588.374L730.748 597.758L734.227 598.654L745.435 594.52L759.116 593.027L774.097 593.782L787.796 596.564L797.209 604.266L805.34 613.147L820.669 625.046L820.413 626.067L822.555 628.205L822.079 629.84L823.105 632.638L822.024 637.715L817.666 646.973L818.197 656.278L816.512 658.526L810.853 661.576L804.553 666.684L798.491 676.367L794.627 694.443L795.744 695.591L795.139 697.288L795.084 711.058L791.605 723.931L790.286 724.403L786.404 723.255L784.975 725.487L785.158 728.631L779.994 731.366L776.716 731.712L771.624 731.02L770.434 728.584L761.497 718.162L751.369 709.156L748.64 708.024L742.981 707.678L725.455 711.199L717.433 710.507L715.217 709.109L716.426 701.611L715.401 699.033L699.577 690.576L689.633 687.92L685.769 687.81L681.538 688.737L677.674 689.79L674.89 691.677L676.3 698.75L670.55 701.768L664.817 703.073L657.785 702.853L654.012 701.799L650.496 702.507L648.005 705.257L643.683 708.338L638.207 709.109L635.094 705.54L633.556 698.844L630.332 696.801L628.464 700.432L622.219 701.013L618.978 705.54L615.461 707.002L610.059 706.609L603.74 707.238L601.451 720.174L599.638 723.397L597.056 724.324L593.796 723.161L586.452 717.376L585.262 714.956L585.573 713.525L589.749 703.434L588.1 694.6L585.5 691.237L582.716 689.429L577.57 688.879L573.522 692.195L569.676 693.343L564.329 690.954L557.772 686.615L552.48 681.35L547.462 671.117L547.7 670.284L548.451 669.498L549.989 670.409L556.161 675.581L557.663 675.424L560.135 677.074H563.358L563.981 670.127L565.739 667.863L577.533 662.959L583.577 658.07L587.13 648.906L587.899 642.729L588.76 640.701L591.012 638.799L591.672 635.954L588.961 635.216L582.899 635.719L580.573 634.068L578.302 625.376L577.258 614.672L577.24 603.826L575.903 600.918L570.958 596.815L567.515 591.754L566.526 582.527L567.113 578.063ZM1212.66 17.414L1213.94 26.295L1212.42 31.011L1218.81 40.851L1218.45 44.811L1217.61 45.581L1218.12 42.171L1216.21 44.261L1215.81 47.279L1220.17 51.288L1224.67 52.247L1223.48 53.3L1224 54.148L1225.43 54.448L1233.59 66.283L1238.78 71.124L1240.7 71.47L1243.85 72.98L1246.83 74.865L1253.92 76.045L1254.4 77.396L1253.34 77.38L1252.31 79.11L1251.94 77.475L1250.74 78.386L1249.38 78.323L1252.02 80.839L1252.51 83.605L1259.62 81.782L1263.85 77.679L1268.37 74.504L1271.3 73.451L1269.32 76.217L1269.6 76.925L1270.79 76.625L1271.83 80.305L1271.23 80.65L1270 78.48L1268.44 79.235L1267.4 81.169L1263.7 82.064L1264.93 85.02L1262.75 86.796L1259.34 92.659L1260.09 93.869L1262.6 93.162L1262.47 96.997L1261.41 98.805L1262.97 98.868L1262.35 101.005L1260.24 103.426L1260.97 104.322L1263.85 103.646L1264.38 104.511L1259.56 106.696L1263.17 107.481L1262.9 108.88L1265.09 108.959L1263.72 110.295L1261.3 110.814L1261.52 111.474L1263.79 111.112L1264.01 112.056L1263.13 112.747L1262.71 112.166L1260.86 112.527L1261.3 113.706L1262.66 113.517L1261.1 116.142L1263.87 116.472L1264.27 118.579L1263.23 119.742L1263.7 121.707L1265.48 122.053L1266.45 123.954L1266.01 125.762L1269.58 126.627L1270.2 128.922L1271.32 129.739L1274.27 128.246L1275.11 128.56L1276.41 131.562L1278.65 132.678L1279.21 134.376L1283.17 135.586L1283.11 137.315L1284.34 138.887L1283.66 140.758L1284.96 141.764L1287 142.628L1289.58 141.842L1293.24 142.251L1292.75 143.886L1294.27 143.98L1294.98 142.895L1298.3 142.785L1300.99 141.512L1305.49 141.386L1305.81 143.304L1307.76 143.445L1307.55 144.876L1305.26 145.379L1305.66 146.212L1304.96 147.218L1306.7 147.658L1310.82 151.761L1317.09 150.927L1318.97 150.849L1319.76 152.122L1322.91 150.755L1328.28 152.122L1334.69 151.572L1335.93 152.059L1337.49 152.248L1340.44 152.782L1341.88 154.668L1344.21 155.203L1344.83 156.57L1343.61 156.602L1343.75 158.362L1347.73 159.95L1349.01 162.103L1347.69 164.288L1353.17 165.499L1354.56 167.856L1353.57 168.579L1355.64 169.428L1357.07 169.617L1357.29 168.847L1359.06 168.721L1360 167.919L1362.43 171.865L1359.92 173.892L1359.34 176.722L1357.98 178.089L1359.23 181.233L1356.08 183.056L1355.97 185.524L1360 191.466L1357.78 194.201L1358.2 196.323L1353.95 200.677L1353.97 203.034L1354.5 208.992L1353.22 210.925L1348.07 214.305L1347.96 215.169L1350.27 217.873L1353.95 219.649L1357.91 223.076L1358.71 226.471L1357.58 233.827L1355.27 235.289L1343.62 239.329L1336.52 240.743L1333.4 245.6L1318.59 250.583L1312.58 253.837L1309.05 258.002L1300.88 261.052L1296.63 261.114L1291.65 257.389L1287.03 256.698L1285.07 255.393L1283.11 255.644L1282 256.839L1280.93 260.486L1277.13 264.195L1275.7 268.408L1274.38 270.058L1271.7 271.567L1272.14 273.909L1270.95 274.239L1268.98 276.88L1264.73 280.087L1262.51 284.661L1256.58 287.191L1252.15 288.04L1250.74 289.219L1250.39 291.954L1240.09 294.689L1233.03 295.145L1226.16 293.353L1225.02 292.19L1219.36 292.866L1218.85 305.456L1217.24 311.901L1215 317.623L1210.04 326.551L1207.33 338.748L1205.24 340.666L1197.2 340.682L1192.84 339.078L1188.39 337.271L1183.19 332.382L1178.47 329.946L1173.21 328.327L1157.61 327.085L1153.01 329.396L1149.17 332.791L1145.1 338.607L1140.8 340.399L1134.72 340.619L1133.21 344.8L1128.75 348.918L1117.94 352.408L1106.42 353.178L1101.82 354.545L1090.47 365.643L1083.64 374.367L1080.53 377.353L1077.34 379.035L1068.97 381.11L1064.02 381.408L1052.41 379.884L1045.25 376.426L1041.94 373.911L1036.21 364.212L1025.84 360.534L1022.49 357.673L1018.04 352.156L1016.55 347.708L1026.04 335.825L1027.18 331.078L1024.7 325.891L1030.27 324.806L1036.52 317.685L1036 304.498L1037.12 300.144L1040.27 295.695L1045.14 292.677L1065.67 287.93L1076.86 282.193L1080.69 277.352L1081.13 272.73L1079.74 266.207L1079.66 261.539L1081.31 257.043L1086.61 251.778L1092.65 242.504L1100.96 235.54L1102.78 232.224L1101.24 226.989L1095.51 221.095L1086.51 221.425L1085.34 220.859L1085.07 217.81L1093.71 203.443L1090.62 191.749L1090.85 186.247L1095.51 160.642L1095.6 151.54L1092.45 145.52L1093.46 142.062L1106.38 132.144L1110.73 127.303L1114.09 120.685L1113.22 114.806L1104.43 108.77L1101.77 105.91L1099.52 99.858L1102.25 87.252L1102.39 80.634L1105.05 80.445L1113.07 81.829L1113.12 79.959L1114.2 79.314L1114.33 78.151L1114.68 75.463L1117.39 73.373L1119.48 73.749L1121.95 72.602L1121.33 70.779L1122.67 69.081L1122.24 68.578L1120.61 68.279L1121.35 66.503L1122.76 64.413L1124.22 61.615L1125.39 60.672L1129.57 61.222L1132.1 59.854L1133.86 59.996L1134.97 61.159L1136.73 59.414L1137.15 57.151L1139.61 56.789L1142.3 56.333L1142.83 55.61L1142.21 54.981L1144 53.142L1147.87 52.388L1149 50.438L1151.51 49.213L1151.8 47.971L1152.87 46.808L1153.6 45.645L1153.56 44.293L1155.58 43.617L1156.36 42.014L1154.88 41.526L1155.92 40.568L1158.18 41.558L1157.65 39.09L1159.66 39.279L1159.77 40.017L1161.33 40.473L1163.34 40.253L1166.77 37.628L1168.63 37.047L1169.22 37.644L1172.85 37.487L1175.39 35.397L1177.26 36.167L1177.35 34.469L1179.33 33.903L1181.2 34.044L1179.57 35.884L1182.26 37.125L1183.94 35.066L1186.42 36.701L1186.05 34.641L1188.76 33.841L1188.19 37.109L1189.88 37.299L1190.7 35.773L1192.81 35.38L1194.49 37.565L1196.25 33.589L1199.29 32.269L1199.33 31.577L1198.32 31.277L1198.67 30.162L1200.85 30.476L1202.02 29.219L1200.85 28.952L1200.12 27.348L1203.19 24.833L1203.08 23.922L1205.81 22.869L1205.72 21.407L1207.64 19.741L1209.91 19.363L1210.63 17.697L1212.66 17.414Z" fill="white" stroke="black" stroke-width="1.011"/>
        <path d="M460.086 910.589L459.701 909.614L458.456 909.771L451.204 905.685L449.006 898.8L446.479 895.861L442.834 895.829L430.857 899.822L428.952 899.413L428.311 896.364L429.08 894.069L423.018 891.805L422.103 890.501L422.231 883.679L425.711 879.482L427.102 876.26L427.157 874.263L424.795 874.515L423.257 873.289L425.692 866.31L433.915 853.986L438.988 854.254L439.995 853.468L441.369 849.554L444.189 848.312L443.768 845.467L446.662 843.785L448.402 841.459L448.347 838.409L447.193 835.989L445.801 835.077L442.285 833.772L436.9 834.542L434.996 834.102L436.406 837.985L434.208 839.321L424.905 842.763L418.513 842.072L413.495 842.842L409.814 849.286L405.95 850.104L404.503 849.161L401.811 849.035L401.152 850.528L401.628 854.159L396.445 856.611L393.478 857.492L387.966 857.114L385.713 860.242L381.482 861.217L378.021 860.164L376.208 857.554L372.344 855.543L370.97 856.328L368.26 861.154L362.216 863.732L357.418 863.072L343.719 869.516L341.998 868.935L337.749 869.563L335.917 867.834L330.991 865.319L325.405 864.203L320.094 861.594L316.248 858.293L315.223 859.425L313.904 858.529L311.285 859.362L310.626 858.576L307.641 859.896L311.963 867.143L315.461 876.275L314.838 877.517L316.578 879.906L317.219 882.83L324.654 893.471L325.002 895.735L326.724 896.599L326.742 896.867L326.834 898.596L340.569 914.911L342.748 915.886L342.712 917.065L347.785 919.187L347.29 919.831L349.213 921.01L349.433 922.032L354.121 924.531L354.469 923.918L355.037 924.453L354.634 924.83L354.671 925.364L359.451 928.759L360.33 928.728L360.073 927.518L359.249 927.188L362.143 926.465L360.751 927.565L361.355 928.697L360.879 929.121L361.007 929.923L365.256 932.595L374.541 936.304L374.889 933.161L373.443 932.359L372.435 930.394L373.058 930.583L373.589 931.982L375.036 932.328L374.816 931.227L375.567 931.274L375.53 932.375L376.483 932.642L376.959 933.852L375.823 935.707L376.3 936.383L375.677 938.426L376.409 938.882L385.896 940.957L386.244 937.452L387.434 936.54L388.13 942.576L403.404 941.476L402.232 937.703L404.118 932.909L405.309 931.18L404.778 929.027L401.28 927.219L402.159 927.14L404.338 927.565L406.096 930.048L407.195 928.272L406.188 927.03L406.353 923.667L404.814 921.545L405.382 920.381L405.693 922L406.957 922.865L407.012 923.462L408.367 926.637L408.184 931.51L413.166 927.628L412.103 926.637L412.286 923.588L415.784 922.645L416.7 921.655L417.964 924.185L418.184 926.213L417.305 927.832L418.403 929.907L418.495 932.438L420.949 932.846L422.927 935.22L423.806 935.141L423.458 935.66L423.861 936.336L427.835 935.581L428.183 936.116L427.048 937.137L429.85 938.379L445.343 936.949L445.38 936.194L444.647 935.393L444.519 934.182L444.336 933.648L445.563 932.296L446.662 931.384L445.709 934.591L446.112 935.204L449.83 937.971L451.588 936.43L458.053 935.833L457.137 931.95L456.973 931.353L456.277 929.577L454.17 928.398L453.823 926.842L453.859 926.543L454.39 924.877L453.42 921.34L452.669 920.476L453.31 919.91L454.702 921.325L456.991 927.926L457.687 927.015L456.496 918.794L459.61 913.465L460.086 910.589ZM425.674 938.992L410.62 940.548L405.492 940.391L405.089 939.291L407.58 935.33L407.855 935.298L408.679 935.361L408.935 933.318L412.561 929.875L412.781 929.388L413.568 927.989L414.393 927.691L413.312 926.48L412.982 924.437L413.99 923.887L415.876 923.588L417.524 925.694L416.609 927.785L418.037 930.331L417.634 932.799L420.619 933.491L421.81 934.937L425.674 938.992Z" fill="white"/>
        <path d="M316.688 880.079L316.706 880.095M460.086 910.589L459.701 909.614L458.456 909.771L451.204 905.685L449.006 898.8L446.479 895.861L442.834 895.829L430.857 899.822L428.952 899.413L428.311 896.364L429.08 894.069L423.018 891.805L422.103 890.501L422.231 883.679L425.711 879.482L427.102 876.26L427.157 874.263L424.795 874.515L423.257 873.289L425.692 866.31L433.915 853.986L438.988 854.254L439.995 853.468L441.369 849.554L444.189 848.312L443.768 845.467L446.662 843.785L448.402 841.459L448.347 838.409L447.193 835.989L445.801 835.077L442.285 833.772L436.9 834.542L434.996 834.102L436.406 837.985L434.208 839.321L424.905 842.763L418.513 842.072L413.495 842.842L409.814 849.286L405.95 850.104L404.503 849.161L401.811 849.035L401.152 850.528L401.628 854.159L396.445 856.611L393.478 857.492L387.966 857.114L385.713 860.242L381.482 861.217L378.021 860.164L376.208 857.554L372.344 855.543L370.97 856.328L368.26 861.154L362.216 863.732L357.418 863.072L343.719 869.516L341.998 868.935L337.749 869.563L335.917 867.834L330.991 865.319L325.405 864.203L320.094 861.594L316.248 858.293L315.223 859.425L313.904 858.529L311.285 859.362L310.626 858.576L307.641 859.896L311.963 867.143L315.461 876.275L314.838 877.517L316.578 879.906L317.219 882.83L324.654 893.471L325.002 895.735L326.724 896.599L326.742 896.867L326.834 898.596L340.569 914.911L342.748 915.886L342.712 917.065L347.785 919.187L347.29 919.831L349.213 921.01L349.433 922.032L354.121 924.531L354.469 923.918L355.037 924.453L354.634 924.83L354.671 925.364L359.451 928.759L360.33 928.728L360.073 927.518L359.249 927.188L362.143 926.465L360.751 927.565L361.355 928.697L360.879 929.121L361.007 929.923L365.256 932.595L374.541 936.304L374.889 933.161L373.443 932.359L372.435 930.394L373.058 930.583L373.589 931.982L375.036 932.328L374.816 931.227L375.567 931.274L375.53 932.375L376.483 932.642L376.959 933.852L375.823 935.707L376.3 936.383L375.677 938.426L376.409 938.882L385.896 940.957L386.244 937.452L387.434 936.54L388.13 942.576L403.404 941.476L402.232 937.703L404.118 932.909L405.309 931.18L404.778 929.027L401.28 927.219L402.159 927.14L404.338 927.565L406.096 930.048L407.195 928.272L406.188 927.03L406.353 923.667L404.814 921.545L405.382 920.381L405.693 922L406.957 922.865L407.012 923.462L408.367 926.637L408.184 931.51L413.166 927.628L412.103 926.637L412.286 923.588L415.784 922.645L416.7 921.655L417.964 924.185L418.184 926.213L417.305 927.832L418.403 929.907L418.495 932.438L420.949 932.846L422.927 935.22L423.806 935.141L423.458 935.66L423.861 936.336L427.835 935.581L428.183 936.116L427.048 937.137L429.85 938.379L445.343 936.949L445.38 936.194L444.647 935.393L444.519 934.182L444.336 933.648L445.563 932.296L446.662 931.384L445.709 934.591L446.112 935.204L449.83 937.971L451.588 936.43L458.053 935.833L457.137 931.95L456.973 931.353L456.277 929.577L454.17 928.398L453.823 926.842L453.859 926.543L454.39 924.877L453.42 921.34L452.669 920.476L453.31 919.91L454.702 921.325L456.991 927.926L457.687 927.015L456.496 918.794L459.61 913.465L460.086 910.589ZM425.674 938.992L410.62 940.548L405.492 940.391L405.089 939.291L407.58 935.33L407.855 935.298L408.679 935.361L408.935 933.318L412.561 929.875L412.781 929.388L413.568 927.989L414.393 927.691L413.312 926.48L412.982 924.437L413.99 923.887L415.876 923.588L417.524 925.694L416.609 927.785L418.037 930.331L417.634 932.799L420.619 933.491L421.81 934.937L425.674 938.992Z" stroke="black" stroke-width="1.011"/>
        <path d="M638.207 709.109L643.683 708.338L648.005 705.258L650.496 702.507L654.012 701.799L657.785 702.853L664.817 703.073L670.55 701.768L676.3 698.75L674.89 691.677L677.674 689.79L681.538 688.737L685.769 687.81L689.633 687.92L699.577 690.576L715.4 699.033L716.426 701.611L715.217 709.109L717.433 710.508L725.455 711.199L742.981 707.678L748.64 708.024L751.369 709.156L761.497 718.162L770.434 728.584L771.624 731.02L767.65 744.129L758.218 740.656L756.79 743.548L756.753 746.66L755.691 747.808L753.713 749.285L748.585 756.924L742.67 758.402L739.685 760.272L737.487 762.127L735.747 766.057L733.934 767.582L717.964 779.795L710.987 784.086L708.936 784.605L705.932 788.22L702.837 789.587L700.456 791.914L701.189 793.266L703.68 794.9L701.757 797.227L702.489 798.531L701.665 800.04L698.973 802.98L697.929 802.068L698.021 804.426L707.361 813.291L707.928 816.058L703.533 822.424L702.361 826.196L700.31 828.334L700.694 834.448L697.38 843.691L697.654 854.002L693.003 860.604L689.541 861.814L689.395 863.135L686.941 864.769L684.706 869.956L682.417 871.591L684.194 873.194L682.545 873.745L680.75 875.694L680.842 876.59L678.992 877.187L679.157 879.953L675.549 881.132L673.681 883.097L673.645 884.606L675.842 886.398L676.465 888.803L672.033 891.098L670.037 890.721L668.791 889.589L666.905 890.878L665.733 893.267L664.36 894.1L664.067 896.411L665.294 896.521L666.392 893.77L666.869 897.715L666.209 898.596L665.422 897.542L664.323 897.763L665.385 900.026L662.675 900.45L662.785 901.645L659.525 902.101L656.832 901.158L657.767 898.376L659.726 898.187L657.4 895.656L655.935 897.574L653.811 898.328L650.02 897.605L648.829 895.798L650.239 894.697L650.624 894.446L650.056 893.015L647.566 893.66L645.496 892.67L641.137 896.096L640.057 894.509L633.336 890.092L626.413 883.27L620.589 878.869L614.344 871.151L611.359 863.087L612.476 853.499L611.762 850.198L602.678 845.986L593.942 846.866L592.496 843.816L590.976 843.329L589.767 840.516L591.873 836.665L593.43 836.507L599.693 837.702L600.792 835.8L599.4 831.792L596.268 828.648L594.931 826.007L592.422 818.73L592.148 812.788L593.228 806.941L591.25 804.913L591.946 801.156L596.232 796.268L595.572 792.087L598.246 790.106L598.869 787.984L602.495 784.385L602.642 780.581L600.554 777.751L600.902 776.211L605.059 774.513L609.857 774.23L614.784 781.304L617.238 778.034L621.194 776.824L625.223 774.136L625.735 772.077L629.178 771.621L633.171 773.602L634.709 772.171L635.955 768.556L636.138 764.485L637.603 762.174L650.276 748.987L650.313 746.786L646.906 742.699L646.888 740.184L649.91 737.622L653.921 737.04L655.441 734.368L655.001 732.718L652.474 731.146L651.723 728.788L650.771 728.207L650.954 725.157L648.61 723.397L647.694 720.709L642.749 717.769L639.105 713.651L638.207 709.109ZM462.338 754.425L459.628 742.966L459.775 740.813L457.705 739.037L453.804 723.994L450.361 727.201L442.852 726.603L436.021 727.876L421.022 735.924L407.561 740.797L400.181 747.918L399.009 747.996L394.284 741.803L392.434 741.143L389.376 740.656L386.116 743.139L384.486 746.33L384.211 750.055L384.944 751.234L387.618 752.507L388.607 760.084L392.324 765.727L395.914 769.531L399.357 771.826L403.441 773.099L403.972 775.849L402.69 780.942L399.851 783.945L396.866 786.554L391.225 789.745L387.032 794.57L381.94 797.698L378.625 798.641L369.047 800.276L365.146 799.396L366.428 796.566L363.498 794.036L367.234 787.701L366.373 786.397L359.213 782.703L355.55 778.254L346.997 774.136L341.192 772.171L338.188 770.065L328.812 772.973L325.423 776.714L322.182 776.085L318.025 772.973L315.497 772.517L309.692 773.57L304.234 772.439L302.421 772.926L301.267 773.397L301.157 775.016L302.787 777.484L301.835 779.15L294.326 784.212L291.286 784.322L291.195 780.439L289.986 776.431L291.268 771.826L290.993 769.578L287.953 766.953L278.009 762.552L265.372 788.864L269.914 795.906L272.46 797.29L273.522 794.775L275.921 792.81L290.132 786.177L292.44 785.831L295.828 783.819L297.898 782.97L298.557 783.772L298.52 784.039L294.857 785.532L293.008 788.047L292.88 788.456L291.36 787.623L287.239 789.163L281.415 793.108L280.792 794.287L277.166 793.58L275.243 794.869L273.796 799.805L274.273 802.225L279.089 809.298L284.913 814.234L286.964 813.401L292.477 811.295L297.916 811.939L299.271 806.972L301.377 803.593L301.341 802.995L302.073 802.524V802.54L302.769 802.728L302.348 802.948L301.908 805.935L299.857 809.503L301.689 812.851L305.187 813.841L308.172 813.417L311.065 808.418L313.996 808.575L314.344 808.183V808.198L319.819 810.619L321.871 811.672L322.219 812.427L320.039 811.892L320.534 813.102L320.717 815.177L318.281 814.627L320.057 813.574L319.453 811.468L317.402 810.336L311.67 809.88L310.571 810.1L310.736 812.662L309.728 814.438L305.443 817.535L307.274 815.052L303.996 815.287L300.15 814.423L292.019 813.37L288.429 813.668L288.21 814.989L285.243 816.686L282.935 819.311L288.008 825.536L293.576 829.638L304.637 833.772L313.959 834.228L313.996 833.206L311.816 831.022L310.076 826.463L309.6 825.756L309.728 824.593L310.589 824.404L310.241 825.693L312.073 829.151L313.593 828.208H314.252L314.124 828.554L312.384 830.251L312.86 831.037L317.713 832.798L318.757 832.468L321.779 824.923L323.317 822.628L325.075 821.653L323.903 821.135L329.764 821.323L330.643 821.559L332.566 820.836L333.408 819.06L334.764 818.462L336.815 818.73L338.555 820.16L339.672 819.123L339.837 819.484L339.617 820.663L337.987 820.726L335.459 819.248L333.61 821.889L330.716 823.131L327.401 822.942L327.804 824.294L326.046 822.754L323.629 823.319L322.621 828.066L323.116 830.141L324.178 831.839L325.002 832.971L331.156 834.684L330.606 835.941L327.768 834.181L326.577 834.747L326.522 835.847L326.394 836.193L325.497 836.397L326.083 834.087L325.515 833.898L324.728 833.364L323.903 832.641L323.079 833.395L321.724 834.181L321.065 835.014L319.618 835.203L317.567 836.099L319.233 836.822L322.988 836.665L317.548 838.174L316.816 839.164L314.985 836.633L313.886 836.712L313.373 836.68L308.739 836.916L306.597 837.906L306.469 837.293L305.205 837.183L304.454 836.696L303.227 837.042L301.707 836.366L301.798 840.201L305.296 852.194L304.857 854.804L308.666 858.356L312.421 856.973L317.274 856.706L315.644 854.584L315.479 852.823L315.754 852.446L316.669 848.705L317.2 848.658L316.926 849.601L317.2 850.245L316.248 854.474L317.86 855.338L317.677 857.743L316.212 858.23L320.057 861.531L325.369 864.14L330.954 865.257L335.881 867.771L337.712 869.501L341.961 868.872L343.682 869.453L357.381 863.009L362.18 863.669L368.223 861.091L370.934 856.265L372.307 855.48L376.171 857.492L377.984 860.101L381.446 861.154L385.676 860.179L387.929 857.051L393.441 857.429L396.408 856.548L401.591 854.096L401.115 850.465L401.774 848.972L404.466 849.098L405.913 850.041L409.777 849.224L413.459 842.779L418.477 842.009L424.868 842.7L434.172 839.258L436.369 837.922L434.959 834.04L433.915 832.405L434.3 831.713L440.746 828.868L441.094 820.537L442.376 818.211L446.131 815.979L447.761 813.228L449.262 808.23L447.266 802.665L447.687 802.115L449.537 800.276L453.053 794.146L453.676 790.012L456.899 782.64L461.478 775.488L462.174 766.041L464.5 760.304L462.338 754.425Z" fill="white" stroke="black" stroke-width="1.011"/>
        <path d="M585.573 713.525L585.262 714.956L586.452 717.376L593.796 723.161L597.056 724.324L599.638 723.397L601.451 720.174L603.74 707.238L610.059 706.609L615.461 707.002L618.978 705.54L622.219 701.013L628.464 700.432L630.332 696.801L633.556 698.844L635.094 705.54L638.207 709.109L639.105 713.651L642.749 717.769L647.694 720.709L648.61 723.397L650.954 725.157L650.771 728.207L651.723 728.788L652.474 731.146L655.001 732.718L655.441 734.368L653.921 737.04L649.91 737.622L646.888 740.184L646.906 742.699L650.313 746.786L650.276 748.986L637.603 762.174L636.138 764.485L635.955 768.556L634.709 772.171L633.171 773.602L629.178 771.621L625.736 772.077L625.223 774.136L621.194 776.824L617.238 778.034L614.784 781.304L609.857 774.23L605.059 774.513L600.902 776.211L600.554 777.751L602.642 780.581L602.495 784.385L598.869 787.984L598.246 790.106L595.572 792.087L596.232 796.268L591.946 801.156L591.25 804.913L588.796 804.583L582.918 800.921L581.636 799.286L581.233 795.843L578.962 792.92L553.157 791.568L551.436 789.949L551.344 788.802L552.352 784.306L552.223 777.453L558.871 775.865L562.516 778.537L563.926 778.679L567.79 782.624L569.127 782.734L570.318 780.471L568.852 775.881L568.578 771.731L573.468 767.44L574.933 764.721L573.12 754.284L571.984 750.275L570.006 748.594L570.043 746.66L575.061 737.056L575.079 727.908L573.889 726.1L573.193 720.929L570.482 713.227L582.295 714.091L585.573 713.525ZM381.574 621.651L382.984 622.657L386.189 622.075L387.471 622.641L387.984 623.71L387.288 625.109L388.13 626.13L392.123 625.737L392.617 626.995L390.859 629.903L390.438 632.936L390.951 634.587L392.929 635.813L396.83 636.646L407.708 632.041L410.565 635.341L411.755 635.231L414.063 637.448L415.07 637.353L418.66 640.859L422.799 640.56L424.154 639.758L428.842 639.994L430.784 643.154L430.912 645.071L432.469 646.03L433.348 648.765L434.703 649.645L434.263 650.447L435.472 653.009L442.34 651.689L443.127 652.286L445.801 650.73L449.226 650.085L452.431 652.302L453.438 655.634L456.094 657.332L457.54 660.491L457.815 665.851L457.247 668.869L454.28 675.062L454.39 681.601L450.892 689.177L446.937 694.758L449.281 698.137L447.578 706.814L449.207 710.9L451.79 714.06L453.676 723.538L453.804 723.994L450.361 727.185L442.871 726.588L436.04 727.861L421.041 735.893L407.58 740.766L400.199 747.886L399.009 747.949L394.284 741.756L392.434 741.111L389.394 740.608L386.116 743.108L384.486 746.283L384.211 750.008L384.944 751.187L387.618 752.46L388.607 760.037L392.324 765.664L395.914 769.468L399.357 771.763L403.441 773.036L403.954 775.771L402.69 780.864L399.851 783.866L396.885 786.475L391.244 789.666L387.032 794.492L381.959 797.62L378.644 798.563L369.047 800.197L365.146 799.301L366.428 796.472L363.498 793.942L367.216 787.607L366.355 786.302L359.213 782.608L355.55 778.16L346.979 774.042L341.192 772.077L338.188 769.971L328.812 772.879L325.424 776.62L322.182 775.991L318.025 772.879L315.497 772.423L309.692 773.476L304.253 772.344L302.44 772.831L301.267 773.303L301.158 774.922L302.787 777.39L301.835 779.056L294.345 784.133L291.305 784.243L291.213 780.361L290.004 776.352L291.305 771.747L291.03 769.499L287.99 766.874L278.045 762.489L278.76 760.665L276.507 757.113L274.071 755.478L271.214 755.337L268.192 750.716L264.64 748.578L263.358 748.483L262.552 747.053L263.01 746.126L262.497 746.817L263.962 745.717L265.72 740.011L266.782 739.052L272.185 737.685L273.723 731.806L276.91 729.118L278.448 726.037L279.089 723.334L278.045 721.055L275.481 717.471L273.229 716.465V712.001L274.712 710.46L274.529 706.971L275.426 705.462L278.631 702.915L279.456 701.296L282.624 700.039L284.071 696.471L285.829 695.386L285.994 692.321L286.818 691.095L290.847 689.508L294.748 690.136L298.923 689.539L302 690.105L314.16 690.278L320.186 689.68L323.189 690.215L326.376 693.484L322.695 697.037L326.541 705.619L327.896 705.572L334.8 700.605L337.254 700.793L339.434 703.12L340.917 703.67L345.825 702.067L348.591 696.738L350.33 688.942L350.788 688.549L352.968 689.35L352.986 686.788L354.598 685.971L354.323 684.698L352.162 682.686L353.279 675.392L355.55 672.783L358.334 671.636L359.011 670.299L358.425 668.979L364.341 658.149L364.066 655.964L364.927 654.329L368.15 651.453L372.087 649.802L374.706 644.238L373.919 643.798L372.509 639.9L374.102 635.357L370.421 634.068L369.688 632.748L370.018 630.563L372.6 627.859L375.457 628.079L377.087 627.136L381.574 621.651ZM272.258 577.041L273.009 576.774L274.126 579.399L276.012 580.169L284.217 578.205L285.957 578.786L288.649 582.024L290.389 582.794L294.656 582.433L298.868 583.407L302.439 582.496L304.802 583.36L306.706 579.965L306.175 578.975L307.677 575.485L315.204 573.379L325.753 573.237L323.757 573.898L323.702 580.625L324.709 581.333L329.251 579.1L335.972 578.095L340.203 578.519L341.228 579.619L340.715 581.773L338.261 582.779L334.067 587.51L333.921 589.962L336.338 595.856L338.756 597.365L341.1 597.413L344.488 600.069L356.978 603.826L354.195 607.598L352.693 608.07L349.946 606.105L346.539 606.718L344.983 609.956L340.99 612.235L336.595 616.133L334.525 619.497L331.394 632.229L328.28 638.391L322.695 645.354L312.567 650.84L308.41 649.913L306.413 645.7L306.706 644.348L304.802 639.334L302.201 635.844L299.363 635.027L286.598 635.514L272.35 634.823L264.017 637.102L262.497 634.43L260.958 628.472L255.739 618.868L254.475 611.355L256.654 605.083L255.171 600.666L255.391 598.466L258.87 591.785L261.837 589.428L265.83 587.95L269.474 585.372L272.258 577.041Z" fill="white" stroke="black" stroke-width="1.011"/>
        <path d="M481.055 699.332L486.055 691.457L487.721 691.85L488.051 695.433L489.406 695.512L491.842 698.671L493.106 699.206L495.377 698.687L504.479 690.215L515.43 684.148L526.748 672.484L531.217 671.054L535.136 667.753L541.198 666.558L545.667 667.737L547.7 670.284L547.461 671.117L552.48 681.35L557.772 686.615L564.329 690.954L569.676 693.343L573.522 692.195L577.57 688.879L582.716 689.429L585.5 691.237L588.1 694.6L589.748 703.434L585.573 713.525L582.295 714.091L570.482 713.227L573.193 720.929L573.889 726.1L575.079 727.908L575.061 737.056L570.043 746.66L570.006 748.594L571.984 750.275L573.119 754.284L574.932 764.721L573.467 767.44L568.577 771.731L568.852 775.881L570.317 780.471L569.127 782.734L567.79 782.624L563.926 778.679L562.516 778.537L558.871 775.865L552.223 777.453L551.619 775.158L547.864 773.052L542.901 772.627L534.056 774.026L532.957 772.816L531.437 772.549L531.51 771.7L529.459 770.537L527.481 770.395L524.441 771.904L520.064 769.704L518.672 768.163L518.342 765.79L514.899 759.832L515.54 756.453L513.105 755.463L512.024 751.407L510.907 751.203L507.446 752.979L506.127 751.816L507.043 749.269L506.292 747.116L507.793 746.66L508.343 745.151L505.944 742.243L503.49 736.522L500.889 733.692L493.838 731.869L493.124 731.02L493.912 727.326L495.047 726.022L494.607 724.513L497.996 720.615L501.091 718.823L502.464 717.125L504.753 711.702L504.094 710.46L497.263 707.788L493.509 707.662L489.04 705.446L482.026 705.65L481.861 699.96L481.055 699.332ZM526.968 453.164L538.177 452.173L544.037 452.676L546.821 454.012L548.89 452.676L552.205 447.898L554.146 447.049L556.106 447.725L558.798 452.613L560.52 453.101L562.681 451.859L562.552 455.694L561.783 456.669L559.897 456.779L558.926 457.738L555.062 467.986L554.915 476.82L555.849 480.262L554.842 491.265L551.216 499.549L548.432 512.045L546.986 512.611L545.008 517.955L543.103 520.533L536.18 527.795L523.434 533.517L514.954 535.183L509.625 537.069L489.242 539.82L486.678 540.543L473.016 540.307L469.664 540.637L467.063 539.898L463.492 532.181L464.335 530.027L462.961 482.541L463.62 461.07L464.243 460.473L469.151 459.954L489.352 459.215L492.575 460.205L509.405 472.937L511.127 472.56L526.968 453.164ZM946.834 256.902L948.5 255.519L956.137 253.145L963.536 253.412L968.994 255L972.986 257.028L988.535 266.867L997.234 276.927L1003.5 282.555L1001.67 284.975L1004.56 283.372L1011.3 288.685L1012.53 296.34L1010.33 314.966L1011.74 325.105L1012.29 325.906L1024.7 325.891L1027.18 331.078L1026.04 335.825L1016.55 347.708L1018.04 352.156L1022.49 357.673L1025.84 360.534L1036.21 364.212L1041.94 373.911L1045.25 376.426L1052.41 379.884L1051.17 395.964L1052.12 401.78L1050.11 405.442L1039.58 411.729L1022.36 420.626L1016.19 422.874L1004.83 424.304L993.168 425.043L970.349 425.012L959.544 425.955L953.006 424.839L954.068 424.587L954.306 423.094L951.211 419.762L946.486 411.462L945.369 401.732L943.116 395.775L926.359 384.631L921.78 382.414L913.924 375.53L913.319 372.983L915.718 369.981L919.363 368.535L926.505 367.545L928.025 364.778L927.293 360.283L928.172 346.718L924.363 338.953L911.177 334.834L909.565 333.027L907.972 321.788L905.884 319.1L892.368 314.4L892.734 312.231L899.346 304.262L904.126 292.583L905.902 284.818L908.429 281.627L911.067 279.489L918.227 278.106L920.956 276.912L924.637 274.161L929.344 268.345L940.406 263.189L945.369 257.279L946.834 256.902ZM520.082 781.98L523.763 784.636L533.543 787.434L535.448 789.713L536.308 791.835L537.004 805.149L534.752 806.359L537.517 810.194L537.004 813.417L537.664 818.84L536.876 821.999L535.246 823.414L533.085 828.192L529.752 830.833L525.906 836.916L520.247 853.027L515.54 854.521L507.262 852.745L503.362 852.807L495.761 854.474L487.172 852.729L474.865 852.949L470.946 852.304L466.99 849.711L463.84 844.367L460.47 842.323L459.994 840.17L461.99 835.831L462.943 828.554L462.119 825.944L458.236 824.734L451.899 825.787L449.134 825.096L454.17 804.52L457.998 803.215L463.492 797.195L466.459 795.938L474.719 798.956L479.627 798.531L483.967 791.285L485.67 785.705L488.93 784.07L500.486 782.247L510.339 784.212L520.082 781.98ZM795.011 105.784L798.289 107.639L809.278 108.786L815.028 105.957L818.874 99.685L828.617 95.614L834.404 94.624L839.569 92.47L851.162 89.39L855.209 91.354L859.11 98.868L860.374 105.705L863.047 109.682L865.099 108.55L875.831 105.627L884.969 109.116L888.687 108.157L892.075 109.541L896.122 114.885L899.346 133.008L900.939 137.567L880.684 148.46L880.464 146.275L878.944 143.697L877.131 142.408L870.758 143.273L862.443 146.338L850.154 178.702L851.198 181.657L851.253 185.194L849.074 186.671L837.664 190.617L817.629 196.48L807.611 201.258L796.33 201.981L790.433 209.117L789.535 215.814L792.008 216.804L796.788 216.741L800.67 215.122L805.706 214.698L809.021 215.484L811.695 222.431L812.647 229.222L808.051 237.081L809.058 239.816L811.219 241.561L818.251 240.083L819.112 244.123L821.035 248.052L830.742 259.715L836.217 262.623L847.92 263.834L858.396 265.83L874.64 266.71L876.545 269.005L874.53 273.281L871.142 275.465L868.505 276.692L861.106 278.248L856.473 280.385L853.671 283.388L853.597 286.217L855.63 291.608L852.224 292.504L847.719 291.53L844.312 289.392L841.455 289.125L831.199 291.31L820.76 289.439L818.288 287.302L816.805 284.079L818.325 271.74L817.336 268.361L812.446 260.659L810.358 260.187L803.82 261.617L789.718 262.372L783.986 262.042L780.726 256.273L776.514 255.126L770.379 257.421L756.772 253.632L745.783 251.903L743.952 252.202L743.805 248.681L745.783 242.834L758.823 232.019L757.193 230.212L753.365 229.379L748.182 225.229L745.472 220.906L744.556 217.763L742.56 216.207L733.293 216.442L732.927 213.362L733.843 210.076L739.996 202.704L740.344 199.482L742.285 196.59L741.937 192.723L737.762 181.437L735.472 182.27L732.78 185.021L728.531 187.253L725.198 187.536L722.689 187.143L722.671 183.103L721.627 180.84L715.877 181.233L712.397 183.103V181.484L709.375 180.353L710.346 177.649L712.507 175.464L712.653 166.646L711.188 162.025L709.503 160.752L706.115 159.871L696.152 158.991L694.632 158.331L692.764 156.146L693.808 152.987L691.794 148.145L684.816 144.813L682.747 142.644L681.923 133.338L667.674 130.163L660.77 130.713L653.463 133.747L650.294 135.869L649.159 139.956L645.734 145.63L643.775 143.87L643.591 140.789L637.163 130.918L634.892 126.8L633.372 125.699L624.325 125.511L619.087 124.049L618.007 122.917L617.879 116.865L619.252 111.521L619.216 107.293L620.058 106.821L639.086 104.652L648.921 106.208L665.806 104.982L667.949 106.916L670.531 114.272L671.777 115.749L676.648 118.374L680.293 119.192L685.091 116.818L686.263 119.27L688.992 120.371L695.731 119.506L703.386 116.771L709.229 112.716L711.115 108.582L712.177 107.403L715.84 106.02L715.858 104.668L718.184 104.055L736.608 104.746L753.127 106.978L762.724 105.8L773.822 107.026L792.191 107.733L795.011 105.784Z" fill="white" stroke="black" stroke-width="1.011"/>
        <path d="M579.731 250.552L585.39 250.583L589.858 249.53L597.514 243.51L606.304 239.046H609.326L616.798 237.096L619.032 237.395L621.102 238.684L621.688 240.649L617.824 246.968L618.794 251.007L620.699 252.862L627.164 255.739L634.032 257.672L640.46 264.164L643.262 265.028L648.353 264.981L652.84 265.909L662.693 272.872L669.268 282.963L669.963 289.062L668.114 292.897L666.264 300.615L668.462 310.125L668.095 312.844L666.777 314.573L660.275 316.082L659.268 317.324L660.367 320.593L662.308 322.275L675.165 323.8L678.791 328.123L681.721 329.773L687.215 330.779L689.138 330.323L688.168 336.548L683.864 343.149L684.358 344.297L689.468 347.048L694.101 351.307L693.424 351.763L693.039 356.322L692.032 358.569L689.614 361.021L685.604 362.169L682.124 364.37L678.223 372.182L677.82 376.441L680.311 380.874L681.684 386.407L677.307 389.503L676.685 391.233L677.014 394.329L675.732 406.605L676.703 409.906L675.934 411.588L672.436 414.024L671.703 418.866L668.48 420.878L668.865 428.328L666.942 430.529L667.125 432.352L673.095 440.652L677.802 445.493L680.933 447.395L682.765 450.68L682.985 456.04L679.926 462.233L677.93 463.129L673.077 471.947L667.015 480.435L665.513 481.567L662.565 482.227L658.041 482.023L656.942 479.036L647.163 469.747L640.185 469.369L637.438 467.405L635.002 467.059L632.64 468.599L631.01 471.586L623.391 479.052L619.087 481.567L616.981 481.897L614.527 480.388L613.795 478.329L613.886 463.082L612 460.551L604.271 456.716L603.685 451.607L598.319 447.411L596.305 446.798L594.455 447.348L591.433 450.68L589.712 454.673L585.481 457.973H583.467L580.262 456.307L577.808 456.7L573.339 453.887L571.636 453.667L568.889 454.625L567.607 453.384L566.508 450.429L565.134 450.256L562.68 451.859L560.519 453.101L558.798 452.613L556.106 447.725L554.146 447.049L552.205 447.898L548.89 452.676L546.821 454.012L544.037 452.676L538.176 452.173L526.968 453.164L524.716 452.503L520.21 453.446L522.738 446.955L516.529 442.585L516.694 438.938L517.72 437.476L522.207 435.449L523.653 434.081L524.752 429.696L530.411 424.713L529.349 421.758L523.855 419.211L525.375 414.465L518.745 412.327L516.676 411.116L516.364 409.686L516.896 408.68L518.507 408.02L524.423 407.375L525.576 405.002L525.393 400.145L523.708 394.046L523.415 386.093L522.811 384.505L520.302 383.452L496.732 383.578L484.516 379.664L481.385 377.054L479.498 373.942L481.165 371.993L485.139 369.855L488.106 367.215L489.663 364.888L497.428 360.801L499.296 357.988L499.864 354.876L493.948 352.125L485.103 349.515L487.575 343.008L487.666 338.968L484.04 332.995L481.092 332.304L476.971 333.357L474.425 333.137L473.913 326.063L473.034 323.045L471.916 322.244L463.254 321.458L461.093 323.344L462.32 327.101L461.148 328.641L453.877 327.761L439.904 332.257L437.999 328.075L436.131 326.504L430.802 326.708L426.956 327.667L422.451 330.025L412.213 337.098L402.36 348.117L399.778 349.515L397.159 348.572L394.925 343.039L389.339 339.896L388.936 337.742L389.54 334.111L392.91 331.282L392.471 325.293L393.826 322.15L393.569 319.823L390.932 316.082L391.665 308.553L397.232 300.096L400.309 299.908L402.653 298.713L407.891 292.174L417.542 284.771L427.871 283.278L442.413 284.174L451.039 283.199L455.306 280.825L460.873 275.953L463.639 270.876L464.811 265.296L467.942 259.936L469.499 258.144L474.535 255.361L478.821 251.62L480.671 251.668L488.747 253.051L492.3 252.768L494.791 254.183L496.237 256.918L495.816 258.599L490.523 262.828L489.809 264.903L501.439 267.936L509.222 274.68L512.427 275.041L517.353 272.652L519.881 269.65L516.566 264.368L516.346 261.162L522.664 259.448L526.236 259.621L531.309 261.35L533.873 261.209L534.935 260.36L534.916 258.175L537.114 253.507L542.718 249.436L545.264 248.995L557.681 252.595L561.435 255.314L563.211 257.798L566.087 259.024L576.379 255.503L577.918 252.281L579.731 250.552ZM166.239 67.148L178.362 66.928L181.769 68.091L190.248 65.607L191.64 66.094L194.662 69.427L200.504 72.287L202.445 74.017L219.953 78.921L225.356 82.174L230.96 83.244L234.293 82.567L235.447 81.687L240.007 75.887L242.132 75.4L244.11 76.783L244.842 78.748L241.875 84.925L242.04 88.698L239.439 93.382L238.67 99.198L242.077 102.577L245.373 109.305L245.044 114.523L242.663 124.049L242.736 127.255L245.813 135.932L245.373 148.538L244.201 150.99L242.333 151.053L236.528 147.847L231.619 147.878L224.385 149.733L222.041 152.059L220.192 158.001L219.935 173.625L221.382 194.138L217.499 209.526L212.719 218.376L210.595 225.873L215.265 231.611L216.657 232.412L221.748 232.868L224.88 230.746L229.275 226.031L251.252 217.464L254.347 217.275L257.808 218.627L261.544 217.495L262.955 220.246L264.676 220.356L267.643 218.832L269.218 218.077H272.551L280.078 221.614L291.689 219.319L293.191 215.672L295.132 214.698L296.579 214.462L298.246 215.468L302.073 215.955L308.684 214.933L310.662 215.829L313.757 221.016L319.014 221.189L325.698 224.977L335.716 223.783L342.657 224.569L347.217 223.641L349.451 222.368L358.334 223.343L366.3 226.125L368.882 229.504L368.864 233.387L365.11 243.588V245.474L374.963 249.734L378.497 254.465L381.025 266.38L381.409 274.994L378.918 273.265L375.53 272.699L369.267 277.037L366.923 280.495L359.725 281.14L337.566 289.125L318.025 290.209L315.021 288.245L314.362 281.926L315.039 274.365L314.16 271.567L307.293 267.685L305.809 265.704L304.014 255.471L300.919 252.956L295.718 251.84L289.052 251.778L270.994 254.277L256.581 257.153L248.468 259.7L239.586 263.771L237.077 267.025L237.37 269.445L238.963 271.426L245.611 274.585L255.501 278.028L265.317 278.861L267.24 282.02L270.372 281.973L271.8 283.136L273.851 293.447L273.394 295.129L269.401 297.409L268.247 299.719L269.145 301.998L274.163 304.56L276.305 306.698L276.177 309.952L274.328 312.294L267.368 313.819L257.808 317.968L248.651 317.151L245.813 317.811L244.164 318.99L244.091 334.064L243.267 336.218L245.556 340.666L248.871 343.762L252.278 348.525L253.651 352.361L253.138 354.765L249.897 358.114L245.062 360.581L238.872 360.99L225.283 364.92L224.367 374.115L223.342 374.87L215.43 374.146L212.829 372.59L212.793 369.006L214.679 363.851L215.21 357.658L209.844 353.477L207.793 349.688L208.123 339.754L210.796 334.63L214.166 331.486L216.877 329.899L224.056 327.635L232.517 320.672L236.967 303.837L237.333 297.471L236.399 296.308L231.107 294.642L228.213 294.799L212.829 285.84L203.233 283.183L197.848 283.293L189.607 284.629L178.271 284.063L155.983 285.337L152.576 284.881L146.185 282.649L125.966 273.092L120.674 272.526L119.044 273.343L116.681 273.328L94.4658 257.169L102.396 225.119L106.279 217.716L115.234 211.145L113.733 206.021L109.301 203.16L108.257 195.505L114.062 189.469L109.74 175.7L110.454 167.495L112.78 160.736L111.077 135.822L130.893 121.157L145.049 111.647L162.503 88.667L166.312 73.529L166.239 67.148Z" fill="white" stroke="black" stroke-width="1.011"/>
        <path d="M637.163 130.918L643.592 140.789L643.775 143.87L645.734 145.63L649.159 139.956L650.295 135.869L653.463 133.747L660.77 130.713L667.674 130.163L681.923 133.338L682.747 142.644L684.816 144.813L691.794 148.145L693.808 152.987L692.764 156.146L694.633 158.331L696.153 158.991L706.115 159.871L709.503 160.752L711.188 162.025L712.653 166.646L712.507 175.464L710.346 177.649L709.375 180.353L712.397 181.484V183.103L715.877 181.233L721.627 180.84L722.671 183.103L722.69 187.143L725.199 187.536L728.532 187.253L732.78 185.021L735.473 182.27L737.762 181.437L741.937 192.723L742.285 196.59L740.344 199.482L739.996 202.704L733.843 210.076L732.927 213.361L733.293 216.442L742.56 216.207L744.556 217.763L745.472 220.906L748.182 225.229L753.365 229.379L757.193 230.212L758.823 232.019L745.783 242.834L743.805 248.681L743.952 252.202L733.843 255.613L731.755 255.471L729.667 253.79L726.572 254.261L722.03 256.729L720.803 258.458L712.122 265.013L707.269 271.473L702.251 276.519L698.515 277.32L693.57 277.069L691.702 277.745L688.772 284.928L687.948 290.43L688.681 301.26L689.505 304.388L696.574 311.194L697.984 313.819L698.131 316.962L695.695 323.014L690.951 329.443L689.138 330.323L687.215 330.779L681.721 329.773L678.791 328.123L675.165 323.8L662.308 322.275L660.367 320.593L659.268 317.324L660.276 316.082L666.777 314.573L668.096 312.844L668.462 310.125L666.264 300.615L668.114 292.897L669.964 289.062L669.268 282.963L662.693 272.872L652.84 265.909L648.353 264.981L643.262 265.028L640.46 264.164L634.032 257.672L627.164 255.739L620.699 252.862L618.795 251.007L617.824 246.968L621.688 240.649L621.102 238.684L619.033 237.395L616.798 237.097L609.326 239.046H606.304L597.514 243.51L589.859 249.53L585.39 250.583L579.731 250.552L573.138 246.339L571.105 242.787L569.677 237.112L572.46 232.915L572.588 229.442L575.922 226.879L582.789 225.26L587.276 222.588L592.239 222.478L593.979 221.567L588.229 209.306L589.456 202.924L585.628 195.725L587.203 185.775L585.921 166.41L586.415 161.868L590.408 158.284L598.191 154.558L612.183 150.817L618.923 147.784L620.351 146.448L622.421 139.547L626.34 132.301L628.684 131.484L637.163 130.918ZM402.269 509.153L406.298 510.049L411.371 512.532L417.817 517.641L422.89 524.431L427.56 537.399L434.355 541.014L439.318 545.243L449.336 556.67L454.317 560.663L457.302 561.056L457.906 560.505L459.042 555.963L461.313 551.986L461.661 551.577L463.474 552.961L464.316 552.819L464.426 548.151L470.964 545.416L473.015 540.307L486.678 540.543L489.242 539.82L488.143 543.97L485.304 548.151V549.502L486.806 552.159L490.817 556.34L491.806 566.038L489.663 573.442L489.59 580.814L486.641 583.439L485.084 586.771L484.773 592.65L486.037 593.53L493.838 588.893L510.797 582.496L533.506 577.199L546.454 576.098L553.011 577.167L567.112 578.063L566.526 582.527L567.515 591.754L570.958 596.815L575.903 600.918L577.24 603.826L577.258 614.672L578.302 625.376L580.573 634.068L582.899 635.719L588.961 635.216L591.671 635.954L591.012 638.8L588.76 640.701L587.899 642.729L587.13 648.907L583.577 658.07L577.533 662.959L565.739 667.863L563.981 670.127L563.358 677.074H560.135L557.662 675.424L556.161 675.581L549.989 670.409L548.451 669.498L547.7 670.284L545.667 667.737L541.198 666.558L535.136 667.753L531.217 671.054L526.749 672.484L515.431 684.148L504.479 690.215L495.377 698.687L493.106 699.206L491.842 698.671L489.406 695.512L488.051 695.433L487.722 691.85L486.055 691.457L481.055 699.332L478.601 702.271L475.781 703.623L471.678 707.254L469.408 713.73L469.298 718.021L465.928 721.966L463.309 723.365L456.734 722.328L453.676 723.538L451.79 714.06L449.207 710.9L447.577 706.814L449.281 698.137L446.936 694.758L450.892 689.177L454.39 681.601L454.28 675.062L457.247 668.869L457.815 665.851L457.54 660.491L456.093 657.332L453.438 655.634L452.431 652.302L449.226 650.085L445.801 650.73L443.127 652.286L442.34 651.689L435.472 653.009L434.263 650.447L434.703 649.645L433.347 648.765L432.468 646.03L430.912 645.071L430.783 643.154L428.842 639.994L424.154 639.758L422.799 640.56L418.66 640.859L415.07 637.353L414.063 637.448L411.755 635.231L410.565 635.341L407.708 632.041L396.829 636.646L392.929 635.813L390.951 634.587L390.438 632.936L390.859 629.903L392.617 626.995L392.123 625.737L388.13 626.13L387.288 625.109L387.984 623.71L387.471 622.641L386.189 622.075L382.984 622.657L381.574 621.651L381.153 620.425L372.472 613.87L368.736 609.626L370.036 603.118L365.439 602.443L356.978 603.826L344.488 600.069L341.1 597.413L338.756 597.365L336.339 595.856L333.921 589.962L334.068 587.51L338.261 582.779L340.716 581.773L341.228 579.619L340.203 578.519L335.972 578.095L329.251 579.1L324.709 581.333L323.702 580.625L323.757 573.898L325.753 573.238L327.127 570.974L325.625 567.186L316.907 563.13L316.669 562.203L312.237 559.358L312.109 558.305L307.695 554.454L304.179 548.638L304.491 547.082L308.41 543.262L312.604 537.116L319.398 530.766L325.991 527.166L329.233 531.285L333.207 534.051L346.1 538.782L349.47 538.908L354.524 540.606L361.319 540.276L365.22 541.36L372.399 541.172L383.936 543.561L389.486 542.775L392.361 536.865L393.533 526.663L397.763 514.419L402.269 509.153Z" fill="white" stroke="black" stroke-width="1.011"/>
        <path d="M590.921 55.233L607.696 57.355L617.201 59.525L623.758 62.574L629.105 66.504L634.105 67.651L652.217 82.803L658.243 81.42L663.59 82.017L669.139 84.454L673.333 87.204L676.721 90.521L678.626 94.356L684.047 96.51L693.68 98.506L715.858 104.668L715.84 106.02L712.177 107.403L711.115 108.582L709.229 112.716L703.387 116.771L695.731 119.506L688.992 120.371L686.263 119.27L685.091 116.818L680.293 119.192L676.648 118.374L671.777 115.749L670.531 114.272L667.949 106.916L665.806 104.982L648.921 106.208L639.086 104.652L620.058 106.821L619.216 107.293L619.252 111.521L617.879 116.865L618.007 122.917L619.087 124.049L624.325 125.511L633.372 125.699L634.892 126.799L637.163 130.918L628.684 131.484L626.34 132.301L622.421 139.547L620.351 146.448L618.923 147.784L612.183 150.817L598.191 154.558L590.408 158.284L586.415 161.868L585.921 166.41L587.203 185.775L585.628 195.725L589.456 202.924L588.228 209.306L593.979 221.567L592.239 222.478L587.276 222.588L582.789 225.26L575.922 226.879L572.588 229.442L572.46 232.915L569.676 237.112L571.105 242.787L573.138 246.339L579.731 250.552L577.918 252.281L576.379 255.503L566.087 259.024L563.212 257.798L561.435 255.314L557.681 252.595L545.264 248.995L542.718 249.436L537.114 253.507L534.917 258.175L534.935 260.36L533.873 261.209L531.309 261.35L526.236 259.621L522.665 259.448L516.346 261.162L516.566 264.368L519.881 269.65L517.354 272.652L512.427 275.041L509.222 274.679L501.439 267.936L489.809 264.903L490.524 262.828L495.816 258.599L496.238 256.918L494.791 254.183L492.3 252.768L488.747 253.051L480.671 251.668L480.707 248.005L482.997 238.417L481.348 232.617L477.85 229.63L477.557 227.948L478.381 222.038L481.238 215.531L482.429 209.243L485.176 207.923L497.281 207.719L499.626 209.086L508.563 202.846L509.57 197.816L515.687 199.089L519.148 196.543L518.233 193.478L516.108 191.23L511.2 187.63L506.567 185.807L504.259 183.905L507.592 178.199L509.588 170.088L507.849 166.206L508.087 163.565L506.823 158.771L502.245 150.597L502.977 144.986L500.578 139.94L499.864 132.474L498.032 124.347L498.161 114.838L496.347 105.139L498.985 88.132L507.885 85.664L517.555 77.239L533.488 78.465L540.045 77.302L582.899 55.06L585.243 54.541L590.921 55.233ZM114.209 371.521L124.062 370.075L144.793 369.525L151.423 370.987L177.026 395.917L180.67 400.789L190.944 410.975L195.138 413.458L198.251 413.176L200.156 413.93L200.651 418.551L199.314 425.86L199.424 434.317L201.035 440.101L203.416 440.714L217.28 439.473L218.818 440.636L219.605 443.182L219.258 448.574L219.898 450.774L221.107 452.378L226.986 456.166L232.553 456.779L234.513 457.643L236.161 460.96L237.517 469.527L240.978 471.601L244.641 471.586L261.416 465.99L265.83 465.738L277.459 470.47L280.06 472.199L291.689 483.563L295.81 484.648L303.062 482.824L311.34 484.098L318.171 486.628L319.343 486.204L340.899 497.71L350.404 503.479L352.107 505.821L354.781 506.937L358.15 507.88L367.161 508.383L373.369 506.952L387.141 506.465L402.269 509.153L397.764 514.419L393.533 526.663L392.361 536.865L389.486 542.775L383.936 543.561L372.399 541.172L365.22 541.36L361.319 540.276L354.524 540.606L349.47 538.908L346.1 538.782L333.207 534.051L329.233 531.285L325.991 527.166L319.398 530.766L312.604 537.116L308.41 543.262L304.491 547.082L304.179 548.638L307.696 554.454L312.109 558.305L312.237 559.358L316.669 562.203L316.907 563.13L325.625 567.186L327.127 570.974L325.753 573.237L315.204 573.379L307.677 575.485L306.175 578.975L306.707 579.965L304.802 583.36L302.439 582.496L298.868 583.407L294.656 582.433L290.389 582.794L288.649 582.024L285.957 578.786L284.217 578.205L276.012 580.169L274.126 579.399L273.009 576.774L272.258 577.041L271.544 576.193L268.485 577.45L262.094 577.654L259.383 572.672L255.391 571.76L246.71 574.432L241.857 573.835L242.003 575.218L241.674 573.882L241.014 574.023L234.513 576.554L229.751 577.041L214.606 576.696L213.708 575.658L211.053 575.548L209.753 574.071L206.273 566.51L205.559 562.156L204.13 561.118L204.075 559.861L197.739 556.324L192.336 549.66L190.102 544.253L189.937 540.952L188.49 536.598L184.882 532.464L179.388 521.288L176.348 518.285L173.931 509.97L172.447 507.487L174.333 500.413L178.143 497.977L178.784 495.462L179.828 494.535L185.615 491.25L189.9 486.283L189.607 484.239L187.208 483.013L182.025 485.842L177.978 485.968L170.964 484.271L168.949 484.475L164.554 482.054L154.115 479.319L148.163 475.515L145.068 472.309L144.079 468.411L136.607 464.544L132.871 464.685L125.875 467.955L122.78 473.786L122.743 477.952L121.919 479.696L113.824 485.088L101.664 489.678L91.0602 494.865L86.5002 497.914L84.4302 498.323L78.9182 501.797L66.0982 506.921L64.3952 507.157L63.4252 505.978L62.6002 506.151L60.9342 504.375L59.6702 504.076L54.9632 504.5L42.2722 513.193L39.2322 514.23L32.0712 519.637L31.7232 521.193L28.9762 522.435L21.5042 523.567L15.6982 523.598L9.8562 527.968L10.8822 525.17L9.8012 523.032L9.7832 517.468L8.4832 516.053L8.9222 513.79L9.9292 511.605L9.2152 507.345L7.4382 504.532L8.7942 502.331L11.4132 500.901L10.6802 495.651L11.9442 495.289L12.5662 492.586L12.2002 491.611L12.2372 490.228L13.5002 487.65L14.2882 485.198L13.5372 484.003L13.0422 482.793L12.4022 481.567L12.6402 479.728L13.0972 477.009L13.3902 475.924L23.2252 476.207L24.5252 475.955L26.4482 474.101L32.9502 473.22L34.1582 474.509L36.4292 475.217L39.1592 475.059L48.2242 472.34L48.6822 469.574L52.2522 463.475L52.5642 457.596L56.0622 454.641L55.4392 445.493L53.0952 439.19L53.6632 436.958L55.7872 434.003L60.3112 431.833L61.8132 428.957L66.5562 423.267L68.1132 418.394L70.0172 417.467L73.9372 417.86L77.7642 415.14L77.9472 413.223L75.4932 409.199L74.9072 406.165L75.5852 404.059L77.6182 402.141L89.9792 397.897L96.1882 398.274L98.2762 397.803L101.975 394.565L102.195 392.521L106.517 388.45L107.561 384.662L108.019 376.85L109.575 375.121L113.385 373.769L114.209 371.521ZM6.2482 728.788L8.5382 729.417L14.7822 728.741L18.3352 730.14L24.6722 726.305V723.774L25.4222 723.601L31.9242 724.434L57.0332 724.135L58.9732 722.548L60.3842 716.339L64.1942 713.746L64.3582 710.052L66.8482 706.106L70.2372 706.499L76.4822 708.747L78.6802 710.004L80.1632 712.252L88.5332 711.498L87.5992 709.219L90.5102 707.552L159.334 708.165L161.294 708.496L162.283 709.91L157.283 714.437L156.862 715.915L158.199 717.864L158.272 720.159L162.283 721.872L168.18 718.477L174.498 717.832L176.44 720.159L176.659 721.652L174.608 723.318L169.48 725.377L168.455 726.996L168.858 728.097L170.542 729.26L175.615 730.47L177.685 732.529L178.747 732.749L180.798 731.838L190.45 732.859L191.091 734.824L190.431 738.534L172.978 736.726L168.967 735.673L146.954 732.781L131.222 732.058L113.073 733.535L85.4012 733.787L84.3572 734.274L84.0092 736.349L83.0392 736.192L83.4782 736.726L73.5522 735.437L62.5272 735.453L22.9692 736.6L5.5892 738.329L4.9292 733.441L6.2482 728.788ZM562.68 451.859L565.135 450.256L566.508 450.429L567.607 453.384L568.889 454.625L571.636 453.667L573.339 453.887L577.808 456.7L580.262 456.307L583.467 457.973H585.481L589.712 454.673L591.433 450.68L594.455 447.348L596.305 446.798L598.319 447.411L603.685 451.607L604.271 456.716L612 460.551L613.886 463.082L613.795 478.329L614.527 480.388L616.981 481.897L619.087 481.567L623.391 479.052L631.01 471.586L632.64 468.599L635.002 467.059L637.438 467.405L640.185 469.369L647.163 469.747L656.942 479.036L658.041 482.023L662.565 482.227L665.513 481.567L667.015 480.435L673.077 471.947L677.93 463.129L679.926 462.233L683.021 464.827L687.453 465L691.263 466.336L692.416 473.378L695.951 478.738L699.907 480.278L709.65 481.158H716.426L721.499 479.036L723.404 479.916L727.085 483.39L725.638 487.996L720.693 494.299L716.829 497.411L714.247 497.726L711.573 499.376L708.734 503.872L705.895 506.009L705.309 509.546L706.481 512.25L710.309 516.069L710.895 518.018L710.346 526.522L712.983 529.776L722.415 534.035L729.117 536.079L744.117 535.843L761.991 531.458L780.964 538.264L785.579 541.517L788.253 545.73L783.528 551.514L778.51 552.803L770.251 551.31L769.646 550.666L766.863 551.027L765.031 549.345L761.863 547.931H758.456L756.112 549.282L753.676 552.646L752.34 557.142L755.471 559.279L759.189 563.225L759.83 567.752L758.841 568.773L760.672 572.986L760.471 574.856L739.904 586.19L737.688 588.374L716.096 574.338L716.078 575.438L708.826 575.784L699.888 575.139L687.325 572.703L668.846 566.856L663.938 566.164L659.195 566.447L656.668 566.887L649.434 570.345L647.163 572.562L645.295 577.057L645.441 581.018L654.049 599.315L653.884 601.452L651.796 603.181L642.035 599.676L635.954 595.275L633.995 595.495L624.38 593.939L615.37 589.506L599.418 583.926L583.833 581.961L567.112 578.063L553.011 577.167L546.454 576.098L533.506 577.199L510.797 582.496L493.838 588.893L486.037 593.53L484.773 592.65L485.084 586.771L486.641 583.439L489.59 580.814L489.663 573.442L491.805 566.038L490.817 556.34L486.806 552.159L485.304 549.502V548.151L488.143 543.97L489.242 539.82L509.625 537.069L514.954 535.183L523.434 533.517L536.18 527.795L543.103 520.533L545.007 517.955L546.985 512.611L548.432 512.045L551.216 499.549L554.842 491.265L555.849 480.262L554.915 476.82L555.062 467.986L558.926 457.738L559.897 456.779L561.783 456.669L562.552 455.694L562.68 451.859Z" fill="white" stroke="black" stroke-width="1.011"/>
        <path d="M119.044 273.343L120.674 272.526L125.966 273.092L146.185 282.649L152.577 284.881L155.983 285.337L178.271 284.063L189.607 284.629L197.849 283.293L203.233 283.183L212.829 285.84L228.213 294.799L231.107 294.642L236.399 296.308L237.333 297.471L236.967 303.837L232.517 320.672L224.056 327.635L216.877 329.899L214.166 331.486L210.797 334.63L208.123 339.754L207.793 349.688L209.844 353.477L215.21 357.658L214.679 363.851L212.793 369.006L212.829 372.59L215.43 374.146L223.342 374.869L224.367 374.115L225.283 364.92L238.872 360.99L245.062 360.581L249.897 358.114L253.138 354.765L253.651 352.361L252.278 348.525L248.871 343.763L245.556 340.666L243.267 336.218L244.091 334.064L244.165 318.99L245.813 317.811L248.651 317.151L257.808 317.968L267.368 313.819L274.328 312.294L276.177 309.952L276.305 306.698L274.163 304.56L269.145 301.998L268.247 299.719L269.401 297.409L273.394 295.129L273.851 293.447L271.8 283.136L270.372 281.973L267.24 282.02L265.317 278.861L255.501 278.028L245.611 274.585L238.963 271.426L237.37 269.445L237.077 267.025L239.586 263.771L248.468 259.7L256.581 257.153L270.994 254.277L289.052 251.778L295.718 251.84L300.919 252.956L304.014 255.471L305.809 265.704L307.293 267.685L314.16 271.567L315.039 274.365L314.362 281.926L315.021 288.245L318.025 290.209L337.566 289.125L359.725 281.14L366.923 280.495L369.267 277.037L375.53 272.699L378.919 273.265L381.409 274.994L387.489 281.91L394.449 292.347L397.361 298.776L397.232 300.096L391.665 308.553L390.932 316.082L393.57 319.823L393.826 322.15L392.471 325.293L392.91 331.282L389.541 334.111L388.936 337.742L389.339 339.896L394.925 343.039L397.159 348.572L399.778 349.515L402.36 348.117L412.213 337.098L422.451 330.024L426.956 327.667L430.802 326.708L436.131 326.504L437.999 328.075L439.904 332.257L453.877 327.761L461.148 328.641L462.32 327.101L461.093 323.344L463.254 321.458L471.917 322.244L473.034 323.045L473.913 326.063L474.426 333.137L476.971 333.357L481.092 332.304L484.04 332.995L487.667 338.968L487.575 343.008L485.103 349.515L493.948 352.125L499.864 354.876L499.296 357.988L497.428 360.801L489.663 364.888L488.106 367.215L485.139 369.855L481.165 371.993L479.499 373.942L481.385 377.054L484.517 379.664L496.732 383.578L520.302 383.452L522.811 384.505L523.415 386.093L523.708 394.046L525.393 400.145L525.577 405.002L524.423 407.375L518.507 408.02L516.896 408.68L516.365 409.686L516.676 411.116L518.745 412.327L525.375 414.464L523.855 419.211L529.349 421.758L530.411 424.713L524.752 429.696L523.654 434.081L522.207 435.449L517.72 437.476L516.694 438.938L516.529 442.585L522.738 446.955L520.211 453.446L524.716 452.503L526.968 453.164L511.127 472.56L509.405 472.937L492.575 460.205L489.352 459.215L469.151 459.954L464.243 460.473L463.62 461.07L462.961 482.541L464.335 530.027L463.492 532.181L467.063 539.898L469.664 540.637L473.016 540.307L470.964 545.416L464.426 548.151L464.316 552.819L463.474 552.961L461.661 551.577L461.313 551.986L459.042 555.963L457.907 560.505L457.302 561.056L454.317 560.663L449.336 556.67L439.318 545.243L434.355 541.014L427.56 537.399L422.89 524.431L417.817 517.641L411.371 512.532L406.298 510.049L402.269 509.153L387.141 506.465L373.369 506.952L367.161 508.383L358.15 507.88L354.781 506.937L352.107 505.821L350.404 503.479L340.899 497.71L319.343 486.204L318.171 486.628L311.34 484.098L303.062 482.824L295.81 484.648L291.689 483.563L280.06 472.199L277.459 470.47L265.83 465.738L261.416 465.99L244.641 471.586L240.978 471.601L237.517 469.527L236.161 460.96L234.513 457.643L232.554 456.779L226.986 456.166L221.107 452.378L219.899 450.774L219.258 448.574L219.606 443.182L218.818 440.636L217.28 439.473L203.416 440.714L201.035 440.101L199.424 434.317L199.314 425.86L200.651 418.551L200.156 413.93L198.251 413.176L195.138 413.458L190.944 410.975L180.67 400.789L177.026 395.917L151.423 370.987L144.793 369.525L124.062 370.075L114.209 371.521L115.106 366.774L111.517 365.674L107.671 362.499L104.466 356.935L110.107 345.979L109.85 343.322L111.48 341.53L116.205 339.44L127.34 344.454L129.171 339.55L129.629 334.85L134.794 324.743L133.585 314.998L128.659 312.011L123.219 303.209L125.435 295.978L125.673 292.772L123.421 284.834L119.52 283.545L120.289 280.48L119.776 277.415L120.71 274.349L119.044 273.343ZM1.76104 590.056L12.695 583.313L19.086 582.983L22.566 584.445L24.836 587.258L25.588 589.506L25.862 599.692L26.888 603.401L29.287 606.812L30.825 607.017L32.547 598.277L33.591 596.312L34.451 595.605H36.961L38.572 596.564L39.562 599.315L39.268 604.172L36.081 613.571L35.331 613.194L34.397 614.09L35.349 619.843L39.232 623.788L44.817 627.671L46.685 632.449L52.545 639.538L58.058 643.248L62.344 645.024L69.761 645.464L72.948 644.694L78.038 638.454L80.126 631.789L83.093 629.463L87.855 629.919L91.06 636.74L93.972 638.517L95.84 638.108L97.91 636.363L102.433 635.42L113.788 635.766L115.93 638.737L116.535 647.633L117.286 648.749L122.743 650.667L123.915 652.396L123.732 655.886L125.747 660.13L126.497 664.641L119.227 670.944L118.622 672.72L119.3 673.16L130.453 672.767L135.398 671.856L140.965 672.06L146.789 670.111L149.555 667.957L160.342 666.574L165.36 664.877L167.924 663.132L169.645 663.745L170.597 665.065L171.678 671.793L175.286 671.777L182.337 668.665L188.545 669.592L193.984 680.768L199.588 677.687L201.603 677.656L203.709 678.74L207.592 677.294L215.21 676.886L215.778 677.09L215.228 678.677L213.855 687.323L211.914 692.447L207.61 695.748L203.837 697.273L197.189 702.428L191.732 710.162L191.787 715.522L195.468 718.618L204.277 719.891L207.628 719.687L210.229 718.021L213.251 714.453L216.474 713.651L217.664 714.877L217.628 721.903L219.184 727.515L217.866 730.36L213.397 731.397L211.987 733.189L209.936 734.258L205.54 734.431L203.123 736.537L204.918 737.213L210.027 736.82L216.071 739.555L216.456 741.253L214.954 743.957L207.61 743.516L198.453 739.996L190.431 738.534L191.091 734.824L190.45 732.859L180.798 731.838L178.747 732.749L177.685 732.529L175.615 730.47L170.542 729.26L168.858 728.097L168.455 726.996L169.48 725.377L174.608 723.318L176.659 721.652L176.44 720.159L174.498 717.832L168.18 718.477L162.283 721.872L158.272 720.159L158.199 717.864L156.862 715.915L157.283 714.437L162.283 709.91L161.294 708.496L159.334 708.165L90.51 707.552L87.599 709.219L88.533 711.498L80.163 712.252L78.68 710.004L76.482 708.747L70.237 706.499L66.849 706.106L64.359 710.052L64.193 713.746L60.384 716.339L58.974 722.548L57.033 724.135L31.924 724.434L25.423 723.601L24.672 723.774V726.305L18.335 730.14L14.782 728.741L8.53704 729.417L6.24804 728.788L7.01804 723.632L9.08704 721.778L10.241 719.357L7.78604 713.478L10.167 710.083L14.031 707.254L14.398 702.947L14.013 701.438L10.094 700.998L8.66604 700.385L7.91504 699.033L7.60304 696.172L9.80104 693.186L9.17804 691.504L10.058 686.065L9.65504 684.525L7.27404 684.305L6.28404 683.346L6.55904 678.85L9.12304 676.32L14.727 673.522L10.222 670.017L9.34304 668.508L12.768 665.05L13.848 662.032L12.64 654.707L9.83804 652.097L9.61804 636.866L13.958 636.74L15.46 635.986L15.533 634.854L14.764 629.353L9.85604 626.146L9.45304 623.38L7.65804 620.99L7.10804 614.389L7.56704 600.305L7.01704 598.812L5.51604 598.261L3.73904 594.206L0.644043 590.795L1.76104 590.056Z" fill="white" stroke="black" stroke-width="1.011"/>
        <path d="M356.978 603.826L365.439 602.443L370.036 603.118L368.736 609.626L372.472 613.87L381.153 620.425L381.574 621.651L377.087 627.136L375.439 628.079L372.582 627.859L370 630.563L369.67 632.732L370.402 634.053L374.102 635.341L372.49 639.884L373.9 643.798L374.67 644.238L372.051 649.802L368.113 651.453L364.89 654.329L364.029 655.964L364.304 658.149L358.389 668.979L358.975 670.284L358.297 671.62L355.532 672.767L353.261 675.392L352.125 682.67L354.286 684.682L354.579 685.971L352.968 686.772L352.949 689.335L350.77 688.533L350.312 688.926L348.572 696.722L345.807 702.051L340.899 703.67L339.415 703.104L337.236 700.778L334.782 700.589L327.878 705.556L326.522 705.603L322.676 697.021L326.357 693.484L323.171 690.199L320.167 689.665L314.142 690.278L301.982 690.105L298.905 689.539L294.729 690.136L290.847 689.523L286.818 691.111L285.975 692.337L285.81 695.418L284.071 696.487L282.624 700.055L279.455 701.312L278.631 702.947L275.408 705.478L274.511 706.987L274.676 710.476L273.21 712.032V716.496L275.463 717.502L278.009 721.086L279.071 723.365L278.412 726.069L276.892 729.15L273.705 731.838L272.148 737.716L266.764 739.068L265.702 740.043L263.944 745.733L262.478 746.833L262.991 746.141L262.533 747.085L263.339 748.515L264.621 748.594L268.174 750.731L271.196 755.352L274.053 755.51L276.489 757.144L278.76 760.697L278.045 762.52L265.409 788.833L256.508 779.496L239.714 764.972L212.573 746.173L207.628 743.564L214.954 744.004L216.474 741.284L216.089 739.603L210.046 736.867L204.936 737.26L203.141 736.585L205.559 734.463L209.954 734.305L211.987 733.236L213.415 731.445L217.884 730.407L219.203 727.546L217.664 721.935L217.683 714.909L216.51 713.683L213.269 714.484L210.247 718.052L207.647 719.719L204.295 719.923L195.504 718.65L191.823 715.569L191.768 710.209L197.226 702.475L203.874 697.32L207.647 695.811L211.95 692.51L213.91 687.401L215.265 678.74L220.155 676.508L224.092 668.696L231.949 663.289L236.198 663.258L240.795 665.207L246.124 668.696L249.439 668.743L250.611 666.763L250.19 664.201L250.941 660.884L250.098 654.628L252.955 644.348L254.494 643.452L265.226 640.953L264.09 637.18L272.423 634.901L286.671 635.577L299.436 635.09L302.275 635.923L304.875 639.397L306.762 644.411L306.469 645.763L308.465 649.991L312.64 650.918L322.768 645.417L328.335 638.454L331.467 632.292L334.58 619.56L336.65 616.196L341.045 612.298L345.038 610.019L346.594 606.781L350.001 606.184L352.748 608.133L354.25 607.661L356.978 603.826Z" fill="white" stroke="black" stroke-width="1.011"/>
        <path d="M214.606 576.696L229.751 577.041L234.513 576.554L241.015 574.023L241.674 573.882L242.003 575.218L241.857 573.835L246.71 574.432L255.391 571.76L259.383 572.672L262.094 577.654L268.485 577.45L271.544 576.193L272.258 577.041L269.474 585.372L265.83 587.95L261.837 589.428L258.871 591.785L255.391 598.466L255.171 600.666L256.655 605.083L254.475 611.355L255.739 618.868L260.958 628.472L262.497 634.43L264.017 637.102L265.152 640.89L254.42 643.374L252.882 644.285L250.025 654.565L250.867 660.821L250.135 664.138L250.556 666.7L249.384 668.68L246.069 668.633L240.74 665.144L236.143 663.195L231.894 663.21L224.056 668.633L220.118 676.43L215.228 678.677L215.778 677.09L215.21 676.886L207.592 677.294L203.709 678.74L201.603 677.656L199.588 677.687L193.984 680.768L188.545 669.592L182.337 668.665L175.286 671.777L171.678 671.793L170.597 665.065L169.645 663.745L167.924 663.132L165.36 664.877L160.342 666.574L164.627 651.107L165.415 642.792L168.473 629.085L166.88 628.315L161.294 620.645L155.598 616.982L155.104 615.52L154.847 614.137L156.954 612.424L158.382 609.657L159.975 595.086L161.074 594.646L168.949 596.752L173.198 595.574L174.626 594.017L174.865 590.402L176.806 589.506L181.952 584.288L187.465 587.18L194.039 595.919L197.94 594.458L199.131 592.21L202.885 590.386L204.68 588.202L205.192 588.815L208.544 586.441L212.738 585.246L213.196 585.844L215.009 583.737L215.576 581.725L214.606 576.696Z" fill="white" stroke="black" stroke-width="1.011"/>
        <path d="M9.85623 527.968L15.6982 523.598L21.5042 523.567L28.9762 522.435L31.7232 521.193L32.0712 519.637L39.2312 514.23L42.2712 513.193L54.9632 504.5L59.6702 504.076L60.9342 504.375L62.6002 506.151L63.4242 505.978L64.3942 507.157L66.0982 506.921L78.9182 501.797L84.4302 498.323L86.5002 497.914L91.0602 494.865L101.664 489.678L113.824 485.088L121.919 479.696L122.743 477.952L122.78 473.786L125.875 467.955L132.871 464.685L136.607 464.544L144.079 468.411L145.068 472.309L148.163 475.515L154.115 479.319L164.554 482.054L168.949 484.475L170.964 484.271L177.978 485.968L182.025 485.842L187.208 483.013L189.607 484.239L189.9 486.283L185.615 491.25L179.828 494.535L178.784 495.462L178.143 497.977L174.333 500.413L172.447 507.487L173.931 509.97L176.348 518.285L179.388 521.288L184.882 532.464L188.49 536.598L189.937 540.952L190.102 544.253L192.336 549.66L197.739 556.324L204.075 559.861L204.13 561.118L205.559 562.156L206.273 566.51L209.753 574.071L211.053 575.548L213.708 575.658L214.606 576.696L215.576 581.726L215.009 583.737L213.196 585.844L212.738 585.246L208.544 586.441L205.192 588.815L204.68 588.202L202.885 590.386L199.131 592.21L197.94 594.458L194.039 595.919L187.465 587.18L181.952 584.288L176.806 589.506L174.865 590.402L174.627 594.017L173.198 595.574L168.949 596.752L161.074 594.646L159.975 595.086L158.382 609.657L156.954 612.424L154.847 614.137L155.104 615.52L155.598 616.982L161.294 620.645L166.88 628.315L168.473 629.085L165.415 642.792L164.627 651.107L160.342 666.574L149.555 667.957L146.789 670.111L140.965 672.06L135.398 671.856L130.453 672.767L119.3 673.16L118.622 672.72L119.227 670.944L126.497 664.641L125.747 660.13L123.732 655.886L123.915 652.396L122.743 650.667L117.286 648.749L116.535 647.633L115.93 638.737L113.788 635.766L102.433 635.42L97.9092 636.363L95.8392 638.108L93.9722 638.517L91.0602 636.74L87.8552 629.919L83.0932 629.463L80.1272 631.789L78.0392 638.454L72.9482 644.694L69.7612 645.464L62.3442 645.024L58.0582 643.248L52.5462 639.538L46.6862 632.449L44.8172 627.671L39.2322 623.788L35.3492 619.843L34.3972 614.09L35.3312 613.194L36.0812 613.571L39.2682 604.172L39.5612 599.315L38.5722 596.564L36.9612 595.605H34.4512L33.5912 596.312L32.5472 598.277L30.8262 607.017L29.2872 606.812L26.8882 603.401L25.8622 599.692L25.5882 589.506L24.8372 587.258L22.5662 584.445L19.0862 582.983L12.6952 583.313L1.76123 590.056L3.72123 586.787L5.05823 580.028L7.49323 573.505L6.94423 571.744L7.62223 567.5L9.69223 563.948L10.3512 559.405L5.88123 554.595L3.73923 548.324L3.88623 545.148L5.80923 542.209L5.00323 538.987L5.88223 537.886L8.17223 537.415L10.6802 532.888L9.89323 532.196L11.2292 530.672L11.2482 528.99L9.85623 527.968ZM694.101 351.307L696.903 350.537L702.727 350.663L707.819 352.046L712.599 358.585L714.027 366.13L713.954 385.59L734.044 382.147L735.985 382.477L739.282 385.495L741.058 390.415L741.535 399.752L741.113 401.591L736.755 408.617L736.59 411.274L737.689 412.61L744.868 414.842L746.315 415.958L747.963 417.781L750.985 424.179L753.842 426.285L756.607 427.118L765.398 427.542L775.415 429.869L793.803 428.941L801.842 426.725L807.135 418.536L815.853 416.492L816.768 413.867L816.274 411.132L810.468 404.75L811.018 402.487L816.567 399.689L830.485 405.898L835.192 406.7L852.151 414.449L872.424 421.899L883.742 428.25L895.39 433.641L898.247 439.834L898.632 443.214L897.698 449.627L899.089 458.995L903.302 465.062L905.225 474.525L904.217 476.616L904.767 480.152H905.554L905.939 488.86L902.679 493.702L880.373 502.913L876.893 502.74L859.458 506.041L854.898 508.304L851.125 514.89L842.444 523.881L829.423 529.791L815.358 541.816L810.908 543.687L802.831 545.274L795.304 546.123L788.253 545.73L785.58 541.517L780.964 538.264L761.991 531.458L744.117 535.843L729.118 536.079L722.415 534.035L712.983 529.776L710.346 526.522L710.895 518.018L710.309 516.069L706.482 512.25L705.31 509.546L705.896 506.009L708.734 503.872L711.573 499.376L714.247 497.726L716.829 497.411L720.693 494.299L725.638 487.996L727.085 483.39L723.404 479.916L721.499 479.036L716.426 481.158H709.65L699.907 480.278L695.951 478.738L692.417 473.378L691.263 466.336L687.453 465L683.022 464.827L679.926 462.233L682.985 456.04L682.765 450.68L680.934 447.395L677.802 445.493L673.095 440.652L667.125 432.352L666.942 430.529L668.865 428.328L668.48 420.878L671.703 418.866L672.436 414.024L675.934 411.588L676.703 409.906L675.733 406.605L677.015 394.329L676.685 391.233L677.308 389.503L681.685 386.407L680.311 380.874L677.82 376.441L678.223 372.182L682.124 364.37L685.604 362.169L689.615 361.021L692.032 358.569L693.039 356.322L693.424 351.763L694.101 351.307ZM508.618 918.857L505.944 921.042L505.981 922.252L504.845 921.875L505.248 919.643L507.885 918.354L508.618 918.857ZM502.867 915.965L499.717 914.424L498.71 914.66L497.703 914.896L497.318 913.811L498.893 912.569L498.325 911.516L498.893 910.494L498.765 908.844L497.721 907.571L496.055 907.304L495.652 907.555L494.351 904.883L493.857 904.616L494.113 903.893L492.538 902.541L492.044 903.107L490.286 903.343L489.938 904.631L490.982 906.251L491.897 907.901L492.648 911.107L491.769 910.746L490.945 911.736L492.905 917.206L492.648 919.203L494.791 925.553L494.351 925.899L495.761 926.622L499.534 925.946L500.267 925.238L500.505 924.327L503.71 925.097L503.765 921.592L504.992 919.14L502.867 915.965ZM495.908 899.837L496.659 900.56L500.651 900.702L500.999 899.271L500.248 898.784L497.153 899.256L495.908 899.837ZM498.234 895.971L498.893 897.747L499.845 898.045L499.314 895.059L498.234 895.971ZM511.42 911.28L508.783 906.785L506.951 905.685L503.966 904.411L503.472 904.223L501.933 905.244L503.124 905.386L505.523 907.162L505.779 907.492L505.358 908.215L506.31 909.677L506.53 912.695L508.893 914.581L510.559 914.848L511.786 912.632L511.42 911.28ZM522.262 920.9L518.452 916.782L516.053 919.344L517.5 920.586L518.984 920.208L519.679 921.639H521.071L521.474 922.613L523.617 921.828L525.595 923.525L529.001 921.183L527.866 920.319L522.262 920.9ZM485.799 910.51L483.748 911.343L483.235 913.418L485.323 914.047L487.96 915.744L489.846 919.328L489.315 914.047L488.656 913.811L489.132 911.469L485.799 910.51ZM519.002 914.534L514.661 911.988L511.823 908.294L511.768 907.869L510.889 905.197L510.01 905.873L509.277 905.307L510.065 904.254L510.01 901.912L509.79 901.802L508.746 904.71L504.625 903.61L503.655 903.453L502.043 901.755L501.915 899.366L501.256 898.91L501.127 898.187L500.651 897.92L500.377 896.898L501.292 895.656L499.497 893.739L498.014 894.572L497.391 895.971L498.582 898.391L494.809 899.601L494.058 900.167L492.355 900.765L491.403 900.843L489.571 902.054L488.729 903.028L488.564 900.655L487.502 901.818L487.099 902.62L488.93 905.213L489.938 909.064L487.538 909.771L486.568 910.101L484.041 907.571L482.74 904.584L480.085 900.796L477.338 899.994L478.363 897.558L477.118 894.069L478.913 892.795L479.554 892.041L478.583 890.988L475.268 890.611L471.953 888.866L471.441 891.365L469.811 892.261L469.206 891.051L466.88 890.831L466.258 890.296L465.086 890.595L463.675 890.642L462.54 889.274L462.192 889.054L461.185 889.699L461.533 891.255L461.276 891.774L462.119 892.261L464.445 894.257L464.225 896.662L466.02 903.956L471.917 909.158L471.953 911.013L468.639 913.308L468.455 914.22L471.789 924.531L472.796 929.75L477.209 933.648L476.678 934.167L463.419 935.251L459.317 934.072L459.152 929.813L458.712 925.82L458.969 925.097L458.914 924.83L458.071 920.57L457.723 919.391L461.276 913.623L460.928 909.426L459.701 909.661L458.456 909.819L451.204 905.732L449.006 898.847L446.479 895.908L442.834 895.876L430.857 899.869L428.952 899.46L428.311 896.411L429.08 894.116L423.018 891.852L422.103 890.548L422.231 883.726L425.711 879.529L427.103 876.307L427.157 874.31L424.795 874.562L423.257 873.336L425.692 866.357L433.915 854.033L438.988 854.301L439.996 853.515L441.369 849.601L444.189 848.359L443.768 845.514L446.662 843.832L448.402 841.506L448.347 838.456L447.193 836.036L445.801 835.124L442.285 833.819L436.9 834.59L434.996 834.149L433.952 832.515L434.337 831.823L440.783 828.978L441.131 820.647L442.413 818.321L446.167 816.089L447.797 813.338L449.299 808.34L447.303 802.775L447.724 802.225L449.757 804.237L454.152 804.567L449.116 825.127L451.881 825.819L458.236 824.766L462.119 825.992L462.925 828.601L461.972 835.863L459.976 840.201L460.452 842.355L463.822 844.398L466.972 849.758L470.928 852.352L474.847 852.996L487.154 852.776L495.761 854.536L503.362 852.855L507.263 852.807L515.522 854.584L520.229 853.09L521.236 853.169L522.445 855.872L522.555 860.242L518.159 866.828L511.914 873.635L509.405 879.466L509.112 881.179L510.211 882.924L512.867 885.14L516.163 885.565L521.895 884.638L523.928 883.631L529.038 883.443L535.045 885.36L538.36 884.7L543.744 886.901L548.048 889.715L551.619 895.2L552.773 898.816L551.015 905.527L552.077 912.679L551.143 913.182L551.07 914.188L552.187 916.027L549.952 917.238L548.414 916.106L548.103 914.566L545.868 914.141L544.861 913.732L544.385 914.456L541.839 916.31L540.777 915.933L540.301 915.367L539.605 915.336L538.305 915.949L535.558 912.239L533.232 913.748L531.529 913.182L528.598 912.396L527.408 910.777L526.181 911.076L524.826 909.724L523.69 910.526L523.342 911.768L521.712 912.286L522.335 913.984L522.829 915.603L523.269 916.546L524.697 917.489L526.108 917.112L527.152 917.238L528.727 916.75L528.415 919.501L525.174 919.768L522.536 920.601L521.181 918.715L520.998 918.197L519.075 916.358L518.8 914.88L519.002 914.534ZM558.413 921.309L557.15 920.696L556.362 920.649L554.751 920.083L554.714 920.051L553.981 919.485L553.212 920.208L552.626 920.004L553.267 919.155L551.656 916.813L550.007 917.646L548.103 916.232L547.443 915.697L547.132 914.896L544.586 914.911L544.11 915.352L541.858 916.719L539.422 916.64L538.579 916.703L537.792 916.342L536.638 915.352L535.668 914.864L535.503 913.591L533.232 914.125L531.345 914.157L531.382 913.497L529.093 912.962L527.426 912.239L524.972 912.098L524.093 912.475L523.672 913.387L523.635 914.628H526.785L526.95 914.754L529.093 916.436L529.514 917.489L530.173 919.643L531.712 920.13L532.005 919.501L532.627 919.941L534.587 919.988L534.697 920.334L531.327 921.497L530.54 921.733L529.276 925.506L539.294 926.716L546.949 925.27L557.809 925.05L557.461 923.132L558.413 921.309ZM469.261 892.905L470.708 892.638L472.393 891.396L472.539 889.636L474.902 891.051L477.832 892.041L476.074 893.88L476.861 896.788L477.356 897.291L477.301 898.203L476.202 899.68L476.605 900.686L478.455 901.173L480.762 903.295L484.553 910.149L482.85 911.107L482.081 912.428L482.356 913.858L488.125 916.766L489.223 921.325L490.835 923.399L490.615 925.584L491.494 928.115L494.205 929.891L492.154 932.076L490.395 932.642L488.82 931.856L487.722 932.5L476.037 930.316L474.554 926.323L475.525 925.348L474.426 925.38L471.935 919.265L470.452 916.279L470.635 913.041L473.62 910.589L473.309 908.467L469.994 905.858L466.899 904.05L465.507 897.668L464.976 896.756L465.012 893.896L463.602 892.198L465.873 891.035L467.485 892.025H468.712L469.261 892.905Z" fill="white" stroke="black" stroke-width="1.011"/>
        <path d="M326.779 0.359985L350.367 9.28799L387.966 20.684L395.291 24.378L403.789 22.035L410.473 22.004L426.114 28.48L455.196 52.938L466.148 69.317L460.599 73.404L447.596 79.691L430.179 77.679L426.7 76.642L423.586 73.419L419.429 72.35L410.327 72.052L409.246 80.666L407.91 83.636L406.994 83.982L402.049 81.719H396.939L388.057 84.171L384.193 87.031L383.991 88.131L385.42 96.211L385.548 109.478L383.076 111.05L375.677 113.627L357.326 114.869L346.173 116.362L335.496 129.849L332.053 132.788L326.431 135.791L326.541 140.317L329.16 147.611L330.35 154.291L328.995 159.054L324.49 161.726L313.3 162.559L310.956 162.103L302.165 163.109L297.33 162.622L289.144 163.141L272.057 160.516L270.372 161.459L268.669 168.548L268.852 197.171L267.643 218.832L264.676 220.356L262.955 220.246L261.544 217.495L257.808 218.627L254.347 217.275L251.252 217.464L229.275 226.031L224.88 230.746L221.748 232.868L216.657 232.412L215.265 231.611L210.595 225.873L212.72 218.376L217.499 209.526L221.382 194.138L219.935 173.625L220.192 158.001L222.041 152.059L224.386 149.733L231.62 147.878L236.528 147.847L242.333 151.053L244.201 150.99L245.373 148.538L245.813 135.932L242.736 127.255L242.663 124.049L245.044 114.523L245.373 109.305L242.077 102.577L238.67 99.197L239.44 93.382L242.04 88.698L241.875 84.925L244.842 78.748L244.11 76.783L242.132 75.4L240.007 75.887L235.447 81.687L234.293 82.567L230.96 83.243L225.356 82.175L219.954 78.921L202.445 74.017L200.504 72.287L194.662 69.427L191.64 66.094L190.248 65.607L181.769 68.091L178.363 66.928L166.239 67.148L166.404 41.306L173.986 41.275L204.313 18.357L250.318 10.482L254.732 13.846L265.189 14.601L277.001 13.469L285.884 14.349L295.645 14.098L305.26 4.25799" fill="white"/>
        <path d="M326.779 0.359985L350.367 9.28799L387.966 20.684L395.291 24.378L403.789 22.035L410.473 22.004L426.114 28.48L455.196 52.938L466.148 69.317L460.599 73.404L447.596 79.691L430.179 77.679L426.7 76.642L423.586 73.419L419.429 72.35L410.327 72.052L409.246 80.666L407.91 83.636L406.994 83.982L402.049 81.719H396.939L388.057 84.171L384.193 87.031L383.991 88.131L385.42 96.211L385.548 109.478L383.076 111.05L375.677 113.627L357.326 114.869L346.173 116.362L335.496 129.849L332.053 132.788L326.431 135.791L326.541 140.317L329.16 147.611L330.35 154.291L328.995 159.054L324.49 161.726L313.3 162.559L310.956 162.103L302.165 163.109L297.33 162.622L289.144 163.141L272.057 160.516L270.372 161.459L268.669 168.548L268.852 197.171L267.643 218.832L264.676 220.356L262.955 220.246L261.544 217.495L257.808 218.627L254.347 217.275L251.252 217.464L229.275 226.031L224.88 230.746L221.748 232.868L216.657 232.412L215.265 231.611L210.595 225.873L212.72 218.376L217.499 209.526L221.382 194.138L219.935 173.625L220.192 158.001L222.041 152.059L224.386 149.733L231.62 147.878L236.528 147.847L242.333 151.053L244.201 150.99L245.373 148.538L245.813 135.932L242.736 127.255L242.663 124.049L245.044 114.523L245.373 109.305L242.077 102.577L238.67 99.197L239.44 93.382L242.04 88.698L241.875 84.925L244.842 78.748L244.11 76.783L242.132 75.4L240.007 75.887L235.447 81.687L234.293 82.567L230.96 83.243L225.356 82.175L219.954 78.921L202.445 74.017L200.504 72.287L194.662 69.427L191.64 66.094L190.248 65.607L181.769 68.091L178.363 66.928L166.239 67.148L166.404 41.306L173.986 41.275L204.313 18.357L250.318 10.482L254.732 13.846L265.189 14.601L277.001 13.469L285.884 14.349L295.645 14.098L305.26 4.25799" stroke="black" stroke-width="1.011"/>
        <path d="M895.39 433.641L903.796 429.476L914.51 430.702L933.904 423.078L945.698 424.792L953.006 424.839L959.544 425.955L970.349 425.012L993.168 425.043L1004.83 424.304L1014.82 440.306L1017.49 443.324L1026 445.021L1029.81 447.049L1039.45 462.485L1038.6 465.896L1039.23 471.931L1044.1 476.553L1051.68 478.863L1055.38 484.899L1055.86 487.744L1054.03 493.434L1043.06 511.416L1043.75 520.502L1042.95 523.771L1031.74 531.976L1015.93 550.084L1006.63 558.698L999.669 563.759L992.087 571.273L990.586 573.756L995.201 584.335L1000.53 591.722L1005.49 595.574L1010.47 592.446L1015.66 586.142L1018.66 585.545L1021.26 586.221L1024.05 587.981L1028.62 592.933L1036.54 598.969L1040.47 603.056L1042.38 606.231L1041.32 614.86L1042.67 617.579L1043.37 623.144L1046.92 630.406L1046.83 632.858L1049.06 634.241L1040.02 642.855L1038.02 645.904L1036.39 650.494L1037.08 659.799L1038.77 665.018L1041.21 668.35L1040.88 670.378L1039.08 671.526L1031.68 670.975L1030.44 671.698L1026.66 671.793L1026.33 674.371L1023.18 675.549L1020.36 678.583L1016.87 679.259L1014.87 685.877L1010.99 686.898L1008.48 691.174L1008.59 691.96L1010.31 691.881L1011.15 692.573L1011.32 695.355L1012.93 695.528L1013.28 696.927L1011.46 697.603L1010.33 699.41L1012.05 701.799L1011.9 703.434L1008.39 705.179L1007.98 710.24L1005.31 712.504L1004.27 715.506L1000.95 716.732L997.71 715.427L996.611 716.276L994.34 716.512L993.498 717.518L994.34 718.901L994.01 721.62L993.205 722.406L986.337 723.475L985.568 723.821L985.201 725.975L982.692 725.692L977.143 722.501L973.023 724.088L971.796 722.988L966.283 721.951L963.683 720.033L962.62 720.112L960.386 722.328L956.668 722.202L957.108 708.48L953.39 705.085L949.288 704.912L944.966 708.275L939.765 707.521L936.358 706.185L933.739 700.872L931.578 697.43L929.344 696.156L927.201 696.046L924.802 692.73L924.582 691.582L927.622 684.053L922.751 681.161L920.022 680.847L918.923 682.01L915.828 678.63L913.942 678.505L911.195 675.974L909.785 675.864L909.125 673.475L906.836 672.484L906.104 673.207L903.411 672.642L900.023 670.158L900.976 667.124L900.243 663.839L897.221 661.78L895.829 669.262L895.976 673.805L893.43 683.267L891.819 684.839L888.76 685.735L888.138 687.103L886.965 687.275L885.244 685.751L856.509 688.14L851.674 683.299L852.81 680.548L851.253 677.31L850.905 675.455L851.034 674.182L849.404 673.679L834.386 685.311L833.214 687.071L828.745 689.775L826.694 692.667L818.233 699.945L815.779 698.813L811.75 698.656L808.82 698.31L807.355 697.351L805.706 700.699L806.256 701.941L804.864 703.466L804.168 706.295L804.827 709.486L804.315 711.168L803.216 711.749L801.348 716.182L798.875 724.623L797.96 725.236L796.714 724.701L794.297 725.283L792.411 723.208L791.605 723.931L795.084 711.058L795.139 697.288L795.744 695.591L794.627 694.443L798.491 676.367L804.553 666.684L810.853 661.576L816.512 658.526L818.197 656.279L817.666 646.973L822.024 637.715L823.105 632.638L822.079 629.84L822.555 628.205L820.413 626.067L820.669 625.046L805.34 613.147L797.209 604.266L787.795 596.564L774.097 593.782L759.116 593.027L745.435 594.52L734.227 598.654L730.748 597.758L737.689 588.374L739.905 586.19L760.471 574.856L760.673 572.986L758.841 568.773L759.83 567.752L759.189 563.225L755.471 559.279L752.34 557.142L753.677 552.646L756.112 549.282L758.457 547.931H761.863L765.031 549.345L766.863 551.027L769.646 550.666L770.251 551.31L778.51 552.803L783.528 551.514L788.253 545.73L795.304 546.123L802.831 545.274L810.908 543.687L815.358 541.816L829.423 529.791L842.444 523.881L851.125 514.89L854.898 508.304L859.458 506.041L876.893 502.74L880.372 502.913L902.679 493.702L905.939 488.86L905.554 480.152H904.767L904.217 476.616L905.224 474.525L903.301 465.062L899.089 458.995L897.697 449.627L898.631 443.214L898.247 439.834L895.39 433.641ZM964.085 51.005L986.886 51.303L1004.39 53.19L1024.1 59.76L1045.51 63.768L1050.51 66.142L1061.66 74.268L1070.42 78.984L1073.31 79.204L1073.86 77.914L1075.69 77.474L1078.71 78.496L1079.85 77.679L1078.84 75.824L1081.57 76.076L1084.68 77.553L1087.72 76.893L1089.24 78.009L1090.4 79.691L1092.3 78.716L1097.52 79.676L1098.88 80.461L1100.58 80.65L1102.39 80.634L1102.25 87.252L1099.52 99.858L1101.77 105.91L1104.43 108.77L1113.22 114.806L1114.1 120.685L1110.73 127.302L1106.38 132.144L1093.46 142.062L1092.45 145.52L1095.6 151.54L1095.51 160.642L1090.85 186.247L1090.62 191.748L1093.71 203.443L1085.07 217.81L1085.34 220.859L1086.51 221.425L1095.51 221.095L1101.24 226.989L1102.78 232.224L1100.96 235.54L1092.65 242.504L1086.61 251.778L1081.31 257.043L1079.66 261.539L1079.74 266.207L1081.13 272.73L1080.69 277.352L1076.86 282.193L1065.67 287.93L1045.14 292.677L1040.27 295.695L1037.12 300.144L1036 304.498L1036.52 317.685L1030.27 324.806L1024.7 325.891L1012.29 325.906L1011.74 325.105L1010.33 314.966L1012.53 296.34L1011.3 288.685L1004.56 283.372L1001.67 284.975L1003.5 282.555L997.234 276.927L988.535 266.867L972.986 257.028L968.994 255L963.536 253.412L956.137 253.145L948.5 255.519L946.834 256.902L941.266 256.32L938.281 253.915L940.094 243.258L942.017 238.983L942.438 231.249L927.146 198.382L926.78 192.299L925.04 188.039L924.436 183.795L924.051 173.201L918.264 165.876L918.612 163.031L917.202 151.902L915.114 147.296L900.939 137.567L899.346 133.008L896.122 114.885L892.075 109.541L888.687 108.157L884.969 109.116L875.831 105.627L865.099 108.55L863.048 109.682L860.374 105.705L859.11 98.868L855.209 91.354L851.162 89.389L839.569 92.47L834.405 94.624L828.617 95.614L818.874 99.685L815.028 105.957L809.278 108.786L798.289 107.639L795.011 105.784L808.527 93.994L814.479 86.764L821.951 81.247L831.456 72.052L838.745 68.059L855.319 61.678L884.731 60.2L907.715 52.812L943.574 51.13L964.085 51.005ZM473.583 79.015L483.564 89.264L492.868 89.091L498.985 88.131L496.348 105.139L498.161 114.838L498.032 124.347L499.864 132.474L500.578 139.94L502.977 144.986L502.245 150.597L506.823 158.771L508.087 163.565L507.849 166.206L509.589 170.088L507.592 178.199L504.259 183.905L506.567 185.807L511.2 187.63L516.108 191.23L518.233 193.478L519.148 196.543L515.687 199.089L509.57 197.816L508.563 202.846L499.626 209.086L497.282 207.719L485.176 207.923L482.429 209.243L481.239 215.531L478.382 222.038L477.557 227.948L477.85 229.63L481.348 232.617L482.997 238.417L480.707 248.005L480.671 251.668L478.821 251.62L474.536 255.361L469.499 258.144L467.943 259.936L464.811 265.296L463.639 270.876L460.873 275.953L455.306 280.825L451.039 283.199L442.413 284.174L427.872 283.278L417.543 284.771L407.891 292.174L402.653 298.713L400.309 299.908L397.233 300.096L397.361 298.776L394.449 292.347L387.489 281.91L381.409 274.994L381.025 266.38L378.497 254.465L374.963 249.734L365.11 245.474V243.588L368.864 233.387L368.883 229.504L366.3 226.125L358.334 223.343L349.451 222.368L347.217 223.641L342.657 224.569L335.716 223.783L325.698 224.977L319.014 221.189L313.758 221.016L310.663 215.829L308.685 214.933L302.073 215.955L298.246 215.468L296.579 214.462L295.132 214.698L293.191 215.672L291.689 219.319L280.078 221.614L272.551 218.077H269.218L267.643 218.832L268.852 197.171L268.669 168.548L270.372 161.459L272.057 160.516L289.144 163.141L297.33 162.622L302.165 163.109L310.956 162.103L313.3 162.559L324.49 161.726L328.995 159.054L330.35 154.291L329.16 147.611L326.541 140.317L326.431 135.79L332.053 132.788L335.496 129.849L346.173 116.362L357.326 114.869L375.677 113.627L383.076 111.049L385.548 109.478L385.42 96.211L383.992 88.131L384.193 87.031L388.057 84.171L396.939 81.719H402.049L406.994 83.982L407.91 83.636L409.246 80.666L410.327 72.052L419.429 72.35L423.586 73.42L426.7 76.642L430.179 77.679L447.596 79.691L460.599 73.404L466.148 69.317L473.583 79.015Z" fill="white" stroke="black" stroke-width="1.011"/>
    </g>
</svg>
