<svg width="1264" height="950" viewBox="0 0 1264 950" fill="none" xmlns="http://www.w3.org/2000/svg">
<g clip-path="url(#clip0_5_13)" >
<path d="M141.405 44.3763V60.0039L144.037 60.3229L144.413 92.5348H141.593L141.405 98.5945L94.7856 137.823L94.0337 212.772L74.4837 244.984V259.017L101.177 280.704H104.185L103.433 296.013L103.484 297.291H105.876L106.142 310.145L109.598 310.371V323.677L113.054 324.128L112.788 340.59L109.332 340.816V345.777H89.6598L89.9256 399.902L65.202 413.884L64.9362 427.189L46.327 441.171L45.9282 457.296H42.6051V476.691L33.3005 484.133L26.9203 484.584L8.17816 492.59L7.77939 522.02L7.64647 533.408L7.51354 536.115L3.52586 536.227L3.79171 563.402L0.601562 563.289V622.939H3.65878L4.05755 734.57L4.19048 742.576L161.092 743.54C161.092 743.54 161.385 743.361 166.029 745.23C168.978 746.416 167.778 747.685 170.876 750.357C178.851 757.235 184.7 759.377 184.7 759.377L189.618 759.265L189.884 761.52L196.795 767.045L201.847 767.158L210.221 774.6H215.006L222.582 782.719L228.032 783.17L228.165 786.214L231.222 786.101L231.355 788.92L234.28 789.09L234.412 791.457H237.137L244.714 797.377L244.515 802.113L247.239 802.339L247.572 812.825L250.23 813.502V821.169L266.978 834.926H272.827L280.271 837.632L279.739 840.564L282.929 841.015L282.663 854.095L278.676 854.321L279.207 859.959L282.397 859.508L282.929 862.214H289.309L289.575 884.315L311.641 917.466L347.264 946.557H362.151L362.683 949.489H375.709L375.178 941.371L379.165 940.92L378.634 937.988L435.79 938.664L436.056 935.282H440.576L440.044 932.801H449.348L449.614 930.771L458.919 930.32L459.451 927.163L464.236 927.614L465.033 930.546L471.414 930.32V932.801L475.135 933.026L474.87 936.184L493.745 935.958L493.479 932.801L517.139 933.252L516.342 925.133H520.063V922.653L558.345 922.427L558.611 919.721L592.905 919.495L593.703 916.789H627.997L628.528 922.653L635.44 922.427L635.174 920.172L638.896 919.495L639.162 873.715L660.961 855.899L660.696 819.14L671.329 812.6V810.344L665.215 806.962L663.886 802.677L658.037 798.843L657.505 787.116L661.493 786.665L660.696 783.057L666.278 783.282L667.342 781.027L706.953 748.327L710.94 747.876L712.27 745.621L715.46 745.17V743.14L718.65 742.689L719.447 740.208H721.308L722.106 737.502L723.967 737.728L725.562 737.277L725.296 730.286L731.145 730.06L731.41 726.001H737.791L747.627 717.657V693.526L760.122 694.203L760.653 691.045L766.502 691.496L767.034 688.79L772.616 688.339L786.44 676.838L786.175 672.102L789.099 672.553L789.47 669.64L801.312 669.241L802.064 671.952L808.268 671.872L807.986 674.344L829.885 674.264L830.261 672.111L833.363 671.952L833.457 666.53L837.217 666.689L837.483 660.375H841.205L840.673 658.12L853.699 658.571L886.93 687.888H892.513L901.02 694.203L914.046 701.419L927.073 710.44L927.87 713.597L930.263 713.146L930.529 709.989L936.111 705.253L942.758 705.478L943.023 702.321L946.214 701.87V698.938L949.935 699.164L948.872 690.82L952.062 691.271L953.126 680.22H955.518L956.05 669.621L958.442 669.396L958.974 659.022L961.898 658.571L962.164 655.639L971.203 656.09L971.735 652.482H977.052L977.317 645.265L974.925 644.814L975.191 633.989L972.001 633.764L971.735 625.645H974.127V623.39L981.571 623.615L981.305 617.977H987.951L988.217 615.271L991.407 614.82V612.791L994.597 612.565V609.633L997.256 609.408V595.426L1003.9 591.592V588.209L1007.36 587.984V583.248L1010.28 582.571L1010.02 577.159L1014.8 576.257L1014.27 571.746L1016.93 571.295V566.559L1020.65 566.334L1020.38 561.147L1024.11 561.598L1023.31 517.622L1025.7 517.171L1025.97 514.916L1083.92 478.156V435.759L1090.83 427.64L1096.68 416.59L1100.14 411.628L1103.59 408.471L1112.9 405.765L1119.81 402.157L1127.79 400.353L1129.12 359.083H1125.93L1125.66 353.67L1134.96 348.483L1148.52 344.424L1150.91 329.314L1153.84 319.617L1157.83 305.409L1161.02 294.134L1163.94 283.309L1167.13 269.552L1176.17 261.208L1186.27 248.128L1198.77 237.078L1202.49 228.733L1205.94 226.027L1212.86 225.802L1214.98 228.508L1224.29 228.959L1224.55 226.027L1237.05 221.066L1246.35 214.751L1255.92 209.113L1259.38 207.76L1263.37 207.986L1263.1 203.475L1260.18 204.152L1256.99 197.161L1256.46 160.852L1262.57 157.244V142.134H1257.25L1215.25 133.79L1215.52 127.701L1211.79 128.378V101.316L1208.87 100.639L1208.6 77.6364L1205.15 77.1854L1205.41 58.0164L1197.17 50.7998V46.515L1192.65 46.2894L1187.07 41.5536L1187.34 36.1411L1176.97 27.5714V23.9632L1173.51 24.1887L1168.46 19.4528L1167.4 19.2273L1167.93 14.2659L1154.37 4.5686L1153.84 0.509277H1135.76L1135.23 5.47067L1129.12 11.1086L1122.73 10.6576L1122.2 13.8148L1115.82 20.1293L1090.04 20.3549L1065.84 41.5536H1061.32L1033.41 65.2329L1018.79 65.684L975.722 65.4585L923.351 47.6425L923.085 44.7108L852.902 44.4853L853.168 47.417L786.972 60.4971L773.946 61.1736L768.097 69.5178L761.451 79.2151L754.273 84.853L750.02 85.0785L750.551 101.992H664.152L654.847 98.6096L645.011 98.3841L551.433 60.7226L546.648 60.2716L535.748 66.135L520.329 71.0964L504.644 76.9599L493.745 80.5682L469.553 78.9895L459.185 85.0785L449.349 90.491L433.132 84.853L433.664 80.5682L410.003 60.9481L403.357 52.6039L389.533 38.6218L388.204 34.1115L382.09 30.7287V26.2183L377.57 23.0611L358.961 22.61L359.227 19.9038L330.516 19.6783L294.626 3.44101H287.449L256.876 17.6486L175.794 16.9721L141.405 44.3763Z" stroke="black" stroke-width="2.5"/>
<path d="M4.19043 742.576L16.0206 735.924L37.0223 733.217L47.3903 727.128L52.1755 715.401L133.524 714.725L140.17 719.912V724.648L154.526 736.149L160.077 738.854L161.092 743.54" stroke="black" stroke-width="2.5"/>
<path d="M0.601562 591.817L12.2988 591.141L26.3886 602.417L27.4519 629.479L37.2882 640.078V642.785L48.7196 651.58L52.7073 651.354L66.2654 638.951H77.9626L103.75 647.971L104.281 669.396L108.535 672.553L125.549 673.004L129.271 670.072L143.892 669.847L153.729 684.505H189.352L189.883 698.036L174.996 710.891L175.262 723.294L190.149 730.962L190.681 735.472L177.92 755.318" stroke="black" stroke-width="2.5"/>
<path d="M7.51355 528.221L31.4396 508.601L63.6069 508.15L110.662 474.999L113.852 472.293L129.005 483.794L148.146 483.343L151.336 485.599H161.97L162.236 491.913L150.007 505.67L149.741 523.711L161.172 534.987V538.37L176.325 550.999L188.288 570.619L192.542 578.286V587.307L190.415 591.817L172.604 599.034L162.501 599.26L155.324 592.494L135.651 603.544V624.292L142.829 634.666H144.956L143.892 669.847" stroke="black" stroke-width="2.5"/>
<path d="M608.324 916.338L604.07 898.973L572.169 852.742L557.548 852.516L547.18 834.249L537.875 830.867L526.444 843.496L516.341 869.656L513.151 874.843L520.595 880.481L520.063 922.653" stroke="black" stroke-width="2.5"/>
<path d="M552.497 843.496L558.345 834.926V808.315L553.294 802.451L529.102 781.929L508.898 772.908L491.884 772.006L491.618 778.546L503.049 792.303L504.644 794.558V824.101L491.352 839.662L491.086 843.045L495.074 848.457V856.35L485.238 865.822L485.504 872.587L483.643 876.196L479.123 880.255L478.592 890.854L482.313 893.561L520.329 892.884" stroke="black" stroke-width="2.5"/>
<path d="M489.225 861.763L449.083 860.861L430.739 851.163L430.208 833.122L427.283 820.493L427.549 803.353L443.5 803.128L450.944 799.971L459.717 784.41L495.606 783.733" stroke="black" stroke-width="2.5"/>
<path d="M550.37 799.745L568.979 773.134L577.486 776.968L585.727 776.066L596.361 767.722L613.109 739.306L613.375 732.992L601.944 712.019L589.183 705.93L566.587 705.704L565.789 716.078L560.472 723.52L553.028 722.392L546.648 716.98L535.483 716.529L534.951 731.639L537.609 735.924L536.546 772.232L534.419 776.517L529.102 781.929" stroke="black" stroke-width="2.5"/>
<path d="M546.648 716.98V699.39L543.192 693.752L530.963 698.262L525.38 698.036L510.493 677.965L495.872 677.063L473.806 698.713L468.224 700.968H456.526L448.285 707.734L471.68 716.98V721.716L467.426 727.128L467.16 731.864L463.438 735.022L473.806 750.357L481.782 763.888L491.884 772.006" stroke="black" stroke-width="2.5"/>
<path d="M405.706 938.339L406.082 922.073L416.985 911.868L416.233 905.808L406.082 904.851L396.307 899.429L394.803 879.975V876.785L412.098 863.071L414.729 857.649L415.105 837.876L408.714 831.497L391.796 847.125L373.374 856.693L362.471 864.985H336.153L321.491 875.829L313.596 876.147L289.534 868.493" stroke="black" stroke-width="2.5"/>
<path d="M408.714 831.497L419.241 802.793L427.549 803.353" stroke="black" stroke-width="2.5"/>
<path d="M419.241 802.793L431.272 768.987V749.213L428.264 744.429L429.016 730.396L397.811 738.369L380.141 745.386L360.967 746.981V758.143L376.381 769.944L379.765 773.133V778.555L369.238 797.053L363.975 803.75L349.312 812.999L343.297 812.68L341.793 790.355L340.289 786.847L316.603 776.003L301.941 784.933L288.406 778.874L272.616 790.993L262.841 768.668L241.411 794.182" stroke="black" stroke-width="2.5"/>
<path d="M731.145 730.06L713.599 709.989L691.8 713.597H683.293L667.874 691.496H632.782V700.968L612.046 710.44L604.602 716.303" stroke="black" stroke-width="2.5"/>
<path d="M753.476 694.203L752.412 679.318L777.402 641.883L776.87 619.782L763.578 608.506L763.046 604.898L744.969 589.111L716.789 590.013L694.458 596.779L691.799 593.622L690.204 580.542L656.708 563.402L621.616 562.951L603.007 575.129L612.046 591.366L604.602 597.681L540.799 578.737H523.785V592.72L526.975 597.23L526.444 608.055L530.165 613.016L529.634 623.39L533.356 625.645L542.394 641.883L542.926 655.865L537.077 662.179L513.417 681.348H513.151" stroke="black" stroke-width="2.5"/>
<path d="M429.016 730.396L439.778 722.618L440.841 710.891L448.285 707.734" stroke="black" stroke-width="2.5"/>
<path d="M423.296 730.737L414.257 704.125L426.486 686.084L425.422 662.179L419.574 657.218L404.155 656.767L386.609 643.687H366.937L348.859 627.9L346.732 665.336L342.479 672.102L327.591 679.77L331.845 688.339L332.377 696.909L321.743 711.342L302.602 712.244L290.373 696.007L276.549 696.458L261.662 716.303L261.13 735.698L243.584 751.484L261.13 763.662L262.841 768.668" stroke="black" stroke-width="2.5"/>
<path d="M189.352 684.505L201.935 667.886L206.446 662.145L224.493 663.421L228.252 660.231L229.756 644.923L244.795 644.285L254.57 655.766L264.345 636.631L270.36 637.906L275.623 642.371L284.647 653.853L292.918 652.577L301.189 643.009L309.46 618.133L318.483 609.84L333.522 607.927L341.793 613.03L348.859 627.9" stroke="black" stroke-width="2.5"/>
<path d="M318.483 609.84L316.227 601.548L306.452 596.445L302.693 585.602L293.67 579.861L290.662 571.569L286.15 572.844L275.623 581.137L250.81 580.499L232.764 598.359L232.012 621.322L244.795 644.285" stroke="black" stroke-width="2.5"/>
<path d="M192.542 578.286L225.996 576.672L250.81 580.499" stroke="black" stroke-width="2.5"/>
<path d="M290.662 571.569L280.887 556.898L280.135 542.865L292.918 533.297L290.662 526.281L300.437 525.643L326.754 544.779L347.808 543.503L358.335 537.762L365.854 507.145L391.42 522.453L415.481 554.984L423.001 556.898L438.039 539.676L451.574 542.865L454.581 581.137L471.124 576.034L504.208 575.396L523.785 578.737" stroke="black" stroke-width="2.5"/>
<path d="M451.574 542.865L462.852 539.676L468.868 532.021L508.72 517.35L514.735 510.972L515.487 468.873L527.518 449.099L523.758 443.359L514.735 439.531L486.162 452.289V463.77L477.139 468.235L458.341 461.219L444.806 458.029L429.768 466.959L431.272 533.935L438.039 539.676" stroke="black" stroke-width="2.5"/>
<path d="M365.854 507.145L326.754 506.507L310.212 490.56L271.112 484.819L245.546 462.494L225.996 461.856L223.741 471.424L213.966 470.149L209.454 453.564L192.912 439.531H183.137L180.129 412.103L122.983 377.659L89.1462 376.383" stroke="black" stroke-width="2.5"/>
<path d="M690.204 580.542L708.732 578.585L713.243 569.655L715.499 551.157L716.251 545.416L720.011 542.227L729.034 544.779L738.057 542.227L726.778 526.281L698.205 533.935L689.934 530.108C689.934 530.108 674.143 523.729 671.887 514.799C669.632 505.869 672.639 490.56 672.639 490.56L681.663 479.717C681.663 479.717 677.527 476.208 663.24 476.208C648.954 476.208 645.57 458.029 645.57 458.029L635.795 461.857L632.787 469.511L592.183 459.305L580.153 472.062L559.851 446.548L524.849 445.682V445.456" stroke="black" stroke-width="2.5"/>
<path d="M738.057 542.227L778.997 525.966L824.722 484.922H852.902V472.744L843.863 457.86L842.268 428.542L774.212 393.362H763.046L760.92 410.05L744.437 417.718C744.437 417.718 732.208 420.424 728.486 420.424C724.765 420.424 708.814 418.169 708.814 418.169L693.395 407.795L691.8 392.911L694.99 386.596L693.395 377.124H669.469L671.595 345.101L649.264 345.552L634.377 361.789V365.848L637.036 368.104L636.504 375.771L631.719 385.694L632.25 399.676L623.212 414.109L622.68 432.602L633.845 441.171L645.57 458.029" stroke="black" stroke-width="2.5"/>
<path d="M649.264 345.552L633.845 323L622.68 307.665L620.553 267.974L608.324 266.621L565.257 232.342L515.81 259.855L510.493 242.265L499.328 238.656L488.694 242.265L480.187 251.736L467.958 252.187L467.426 263.914L458.919 264.365L436.524 246.06L415.32 270.68L407.345 278.798L387.141 280.152L352.049 298.644L350.986 332.472L364.81 345.552L379.697 323.902L395.116 323.451L409.472 331.119L417.447 321.196L427.018 319.843L437.651 323L444.563 333.374L447.222 343.297L459.451 348.709L442.968 366.299L444.032 371.261L463.173 380.282L480.718 379.38L481.25 389.753L476.997 402.833L484.44 414.56L486.035 419.522L477.528 436.21L492.947 448.839" stroke="black" stroke-width="2.5"/>
<path d="M104.281 287.143L114.118 290.3L157.184 290.525L173.667 299.546L202.112 299.095L202.91 307.665L178.186 339.914L179.25 355.475L197.593 377.575L205.303 377.124L206.898 361.338L224.443 353.671L223.646 343.297L219.392 337.208V316.46L224.178 312.175L236.672 311.724L241.723 308.792L242.255 286.466L209.822 266.846V256.923L248.369 249.932L266.181 249.481L274.156 256.021L274.688 273.386L282.664 279.024L309.78 279.25L313.502 281.054H339.289L350.188 276.994L351.252 276.318L352.049 298.644" stroke="black" stroke-width="2.5"/>
<path d="M351.252 276.318L350.986 264.816L325.465 242.039L325.199 223.096L286.651 221.291L274.954 211.143L264.054 210.241L254.218 217.458L207.163 217.232L178.984 230.989L178.718 207.309L180.047 202.799L194.934 189.719L180.129 169.078L186.896 144.202L200.431 143.564L204.942 137.504L204.191 129.212L212.838 111.033V105.611L201.183 94.4484V82.9669L197.047 81.0533L180.129 80.7344L150.804 68.6151L143.661 67.6583" stroke="black" stroke-width="2.5"/>
<path d="M194.935 189.719L201.559 184.387L209.078 171.63L246.674 159.829H277.503L282.015 156.002L280.887 133.039L352.696 96.681L355.327 94.4484L354.951 82.0102L338.033 62.8743L338.409 59.685L351.192 59.3661L386.532 67.3393L394.428 65.7447L406.458 57.4525" stroke="black" stroke-width="2.5"/>
<path d="M453.454 88.0698L453.83 131.125L456.461 134.315L457.213 182.792L467.364 192.998L436.535 213.091L436.524 246.06" stroke="black" stroke-width="2.5"/>
<path d="M536.546 246.775L523.785 235.499L523.254 232.342L542.395 215.202V210.241L536.546 200.318L538.141 155.666L539.736 152.057L547.711 150.704L552.497 143.488H565.789L576.423 135.82L577.486 126.348H585.462L589.183 130.408H593.437L604.071 122.74L622.68 124.544L643.947 154.313L651.923 153.862L656.176 161.98L663.088 175.962L687.014 176.864L679.571 201.671L703.497 217.458L696.053 246.775L675.849 249.481L641.289 275.641L653.518 306.312L634.909 324.353" stroke="black" stroke-width="2.5"/>
<path d="M659.293 100.189L651.21 111.192L634.291 111.99L616.809 97.3188H595.003L590.868 99.8702L571.506 100.508L569.814 100.827L569.626 117.252L581.281 126.182" stroke="black" stroke-width="2.5"/>
<path d="M987.951 617.977L975.988 609.859V589.224L954.455 579.414L946.48 585.503L926.009 564.304L953.657 539.046L985.825 486.501L985.293 482.667L962.164 454.928L960.815 453.405L960.72 441.206L931.592 418.62L897.564 417.492L878.689 406.893L849.978 422.904L842.268 428.542" stroke="black" stroke-width="2.5"/>
<path d="M878.689 406.893L883.208 400.578L883.74 390.204L856.624 367.653L867.789 356.828L868.853 334.276L830.571 313.979L825.786 307.665V301.801L839.61 288.721L841.205 284.662L840.673 265.718L860.346 266.17L867.258 269.778L876.296 264.816L883.208 250.834L897.032 247.226L925.212 263.012L938.504 289.172L941.163 295.036L940.099 312.626L952.328 326.157L938.504 338.786L973.596 366.299L973.064 396.519L956.582 412.305L936.909 413.207L931.592 418.62" stroke="black" stroke-width="2.5"/>
<path d="M883.208 250.834L869.384 240.009L870.448 209.339L874.17 205.731L839.61 127.701L835.888 126.348L835.356 109.209L805.05 94.7758L788.567 72.675L750.286 95.2268" stroke="black" stroke-width="2.5"/>
<path d="M835.888 126.348L791.226 139.879L790.694 172.805L783.782 178.668L731.145 201.22L753.476 213.849L755.603 217.007L754.539 235.048L777.402 249.481L805.05 249.03L807.177 251.285V257.6L802.923 265.267L794.416 271.131V280.603L788.567 284.662L773.148 283.309L762.515 276.994L761.983 259.404L756.134 254.894L729.55 253.54L724.765 249.932L696.053 246.775" stroke="black" stroke-width="2.5"/>
<path d="M973.596 366.3L980.508 364.044L1019.85 330.668L1078.87 310.371L1086.31 309.469L1111.3 322.549L1116.09 321.647L1132.57 301.801L1137.36 272.033L1157.03 265.718L1171.38 266.621" stroke="black" stroke-width="2.5"/>
<path d="M1025.17 65.9095L1021.45 79.8916L1024.64 88.0102L1031.02 97.031L1015.6 128.152L1014.54 161.98L1008.69 188.591L1007.62 203.024L1014.54 218.811L1013.47 224.674L1004.97 230.989L995.927 263.012L983.166 274.288L959.24 288.27L967.215 309.469L952.328 326.157" stroke="black" stroke-width="2.5"/>
</g>
<defs>
<clipPath id="clip0_5_13">
<rect width="950" height="950" fill="white"/>
</clipPath>
</defs>
</svg>
